<svg xmlns="http://www.w3.org/2000/svg" width="137" height="135" viewBox="0 0 137 135" fill="none">
    <path d="M92.6177 45.4191C86.9634 24.2231 59.5746 13.1239 38.3786 18.7783C17.1826 24.4326 4.58364 46.1991 10.238 67.3951C15.8923 88.5911 28.5782 105.657 49.7742 100.003C70.9702 94.3484 98.2721 66.6151 92.6177 45.4191Z" fill="#AE1CFD"/>
    <mask id="mask0_412_763" style="mask-type:alpha" maskUnits="userSpaceOnUse" x="8" y="17" width="115" height="95">
      <path d="M86.9955 46.9189C81.3412 25.723 59.5747 13.124 38.3787 18.7783C17.1827 24.4327 4.58372 46.1992 10.2381 67.3952C15.8924 88.5912 95.5671 116.37 116.763 110.716C137.959 105.062 92.6499 68.1149 86.9955 46.9189Z" fill="#FFCB3C"/>
    </mask>
    <g mask="url(#mask0_412_763)">
      <path fill-rule="evenodd" clip-rule="evenodd" d="M45.4155 63.5148C43.3086 65.143 40.6812 66.0562 37.4961 65.9797C26.62 65.7187 20.3917 58.9591 17.3409 49.7414C13.0555 36.7847 15.2997 18.8289 19.0333 9.20858C19.4698 8.08466 20.7354 7.52796 21.8587 7.96243C22.9805 8.39956 23.5393 9.66453 23.1028 10.7884C19.6409 19.7084 17.5106 36.3552 21.4858 48.3691C23.9426 55.8005 28.8351 61.4052 37.6017 61.6168C39.4977 61.6622 41.0791 61.1635 42.3844 60.2732C41.6659 59.4596 40.968 58.6384 40.2932 57.811C37.5951 54.4964 32.2749 44.7139 31.1685 36.7732C30.2942 30.4896 32.0045 25.3598 37.9772 23.9382C41.3966 23.1231 44.4493 24.5066 46.8501 27.4691C49.8103 31.1226 51.7561 37.4005 52.0758 43.832C52.3436 49.1796 51.4917 54.6067 49.3512 58.6745C49.0515 59.2446 48.7271 59.7897 48.3795 60.3071C62.9409 75.196 85.1219 86.6993 105.289 88.7398C106.487 88.8607 107.36 89.9313 107.239 91.1312C107.118 92.3291 106.046 93.2025 104.848 93.0815C83.8128 90.9541 60.6768 79.0121 45.4155 63.5148ZM45.3006 56.9789C44.7469 56.3428 44.2052 55.7012 43.6805 55.0551C41.2582 52.0803 36.4853 43.2993 35.4918 36.1711C34.9666 32.3988 35.4051 29.0381 38.9901 28.1834C40.7485 27.764 42.2253 28.6938 43.4584 30.2171C45.0948 32.236 46.2889 35.247 47.0092 38.599C48.1233 43.7998 48.0719 49.8312 46.403 54.5321C46.0948 55.4004 45.7292 56.223 45.3006 56.9789Z" fill="white"/>
      <path fill-rule="evenodd" clip-rule="evenodd" d="M84.1324 66.1303C88.3363 75.2844 97.3497 83.8129 105.995 89.0828C107.023 89.7099 107.35 91.0526 106.723 92.0826C106.096 93.1106 104.751 93.4377 103.723 92.8106C94.3813 87.1143 84.7067 77.8429 80.1661 67.9519C79.664 66.857 80.145 65.5608 81.2399 65.0587C82.3348 64.5565 83.6302 65.0354 84.1324 66.1303Z" fill="white"/>
      <path fill-rule="evenodd" clip-rule="evenodd" d="M104.012 93.165C96.0052 91.052 85.209 93.3764 77.9768 97.4606C76.9263 98.0526 75.5937 97.6807 75.0023 96.6322C74.4109 95.5838 74.7807 94.2518 75.8307 93.6577C83.9628 89.0691 96.1237 86.5681 105.127 88.944C106.29 89.2502 106.987 90.4469 106.678 91.6111C106.37 92.7754 105.176 93.4713 104.012 93.165Z" fill="white"/>
    </g>
    <path fill-rule="evenodd" clip-rule="evenodd" d="M124.668 98.1848C124.762 98.6183 124.877 99.034 125.002 99.4198C125.384 100.578 126.477 100.282 126.561 100.258C126.739 100.206 127.519 99.9444 127.465 98.9762C127.462 98.9183 127.385 98.5146 127.352 98.3598C127.282 98.0298 127.204 97.7076 127.074 97.3983C126.969 96.8428 126.909 96.2584 126.938 95.6857C126.978 94.8413 127.187 94.0158 127.81 93.4396C128.922 92.4053 130.635 91.9784 132.014 91.4231C132.59 91.1914 132.911 90.5738 132.771 89.9689C132.628 89.3648 132.067 88.9538 131.446 89.0026C129.576 89.1483 127.095 88.0745 125.442 87.1174C124.934 86.8234 124.23 85.9883 123.564 85.5107C123.029 85.1286 122.491 84.9201 122.031 84.9031C121.852 84.8968 120.883 84.9573 120.724 86.0194C120.682 86.317 120.654 87.8237 120.66 87.993C120.686 88.9659 120.592 89.8661 120.174 90.7567C119.812 91.5289 119.315 92.2515 118.623 92.7633C118.344 92.9696 118.044 93.1496 117.746 93.3324C117.636 93.3765 117.327 93.5023 117.224 93.5711C117.014 93.7096 116.876 93.8757 116.786 94.0284C116.616 94.3176 116.571 94.6207 116.634 94.9356C116.672 95.144 116.765 95.3787 116.982 95.6083C117.143 95.7699 117.466 95.9912 117.961 96.0586C118.479 96.1292 119.529 96.0474 119.72 96.0481C121.049 96.0512 122.399 96.2345 123.586 96.8604C124.177 97.1738 124.413 97.6189 124.668 98.1848ZM124.543 94.5286C124.756 93.4104 125.247 92.3862 126.099 91.5962C126.45 91.2687 126.851 90.9842 127.279 90.7323C126.15 90.3235 125.066 89.8057 124.179 89.2944C123.892 89.1277 123.546 88.8258 123.175 88.4922C123.155 89.6525 122.96 90.742 122.451 91.827C122.149 92.4673 121.778 93.0777 121.329 93.6239C122.44 93.7537 123.534 94.0319 124.543 94.5286Z" fill="white"/>
  </svg>