<svg xmlns="http://www.w3.org/2000/svg" width="84" height="82" viewBox="0 0 84 82" fill="none">
    <path d="M60.5356 52.3696C59.2285 67.3363 42.0661 78.0628 27.0995 76.7556C12.1329 75.4485 1.05968 62.256 2.3668 47.2894C3.67392 32.3228 10.2127 19.3104 25.1793 20.6175C40.1459 21.9246 61.8428 37.403 60.5356 52.3696Z" fill="#FFC650"/>
    <mask id="mask0_412_747" style="mask-type:alpha" maskUnits="userSpaceOnUse" x="2" y="5" width="72" height="72">
      <path d="M56.5657 52.0229C55.2586 66.9895 42.0661 78.0627 27.0995 76.7556C12.1329 75.4484 1.05965 62.256 2.36678 47.2894C3.6739 32.3227 54.1331 4.16035 69.0997 5.46747C84.0663 6.77459 57.8728 37.0562 56.5657 52.0229Z" fill="#FFCB3C"/>
    </mask>
    <g mask="url(#mask0_412_747)">
      <path fill-rule="evenodd" clip-rule="evenodd" d="M26.5548 45.7463C24.941 44.8971 23.0606 44.5919 20.9212 45.0202C13.6156 46.4827 10.2137 51.7791 9.24607 58.3578C7.88784 67.6046 11.5254 79.4513 15.1818 85.4992C15.6093 86.2057 16.5288 86.4315 17.2352 86.0056C17.9402 85.578 18.1675 84.6586 17.7401 83.9521C14.3498 78.3446 10.9439 67.3674 12.2043 58.7932C12.9826 53.4898 15.6199 49.1304 21.5085 47.9507C22.7821 47.6959 23.9078 47.8452 24.8936 48.2914C24.5051 48.9252 24.1315 49.5617 23.7742 50.1996C22.3462 52.7546 19.9145 59.9827 20.1074 65.47C20.2609 69.812 22.0213 73.0701 26.2184 73.3226C28.6213 73.4679 30.5169 72.1736 31.786 69.8913C33.3506 67.0767 33.9206 62.6118 33.3756 58.2356C32.9237 54.5967 31.7072 51.0365 29.7821 48.5458C29.5126 48.1967 29.2292 47.8674 28.9335 47.5595C36.995 35.7937 50.5966 25.4106 63.9591 21.6488C64.7528 21.4256 65.2149 20.6002 64.9918 19.805C64.7685 19.0113 63.9417 18.549 63.148 18.7723C49.2103 22.6954 35.0164 33.4874 26.5548 45.7463ZM27.2503 50.1687C26.9521 50.6632 26.6626 51.1601 26.385 51.658C25.103 53.9511 22.922 60.4389 23.0949 65.3648C23.1868 67.9715 23.8801 70.1866 26.3994 70.3391C27.6352 70.414 28.5214 69.6122 29.1731 68.4388C30.0381 66.8834 30.4874 64.7111 30.5768 62.3648C30.7132 58.7248 29.9652 54.6624 28.2834 51.6888C27.9728 51.1395 27.6288 50.6278 27.2503 50.1687Z" fill="#FC22A7"/>
      <path fill-rule="evenodd" clip-rule="evenodd" d="M52.362 39.4024C54.1151 32.7302 59.1863 25.9112 64.3948 21.3338C65.0141 20.7892 65.0756 19.8448 64.5311 19.2241C63.9865 18.6049 63.0406 18.5433 62.4214 19.0879C56.7935 24.0353 51.3641 31.4337 49.4711 38.6428C49.2619 39.4407 49.7397 40.2582 50.5376 40.4674C51.3356 40.6766 52.1528 40.2004 52.362 39.4024Z" fill="#FC22A7"/>
      <path fill-rule="evenodd" clip-rule="evenodd" d="M62.5742 18.8147C57.4232 21.187 49.8656 20.8961 44.5041 18.9964C43.7254 18.7214 42.8705 19.1299 42.5956 19.9071C42.3207 20.6843 42.7277 21.539 43.5062 21.8156C49.5345 23.949 58.0335 24.1976 63.8254 21.5301C64.5742 21.1859 64.9025 20.2963 64.5568 19.5474C64.2111 18.7986 63.323 18.4704 62.5742 18.8147Z" fill="#FC22A7"/>
    </g>
    <path fill-rule="evenodd" clip-rule="evenodd" d="M75.9139 12.9855C75.926 12.6819 75.9546 12.3879 75.993 12.1128C76.1142 11.2863 76.8861 11.3566 76.9461 11.363C77.0717 11.3768 77.6292 11.4612 77.707 12.1207C77.7122 12.1601 77.7078 12.4416 77.7041 12.5499C77.6955 12.7808 77.6815 13.0073 77.6302 13.2313C77.6252 13.6185 77.6535 14.0198 77.7411 14.4026C77.8676 14.9676 78.1064 15.4996 78.5948 15.8146C79.4675 16.3807 80.6732 16.4662 81.6692 16.6776C82.0851 16.7658 82.3748 17.1444 82.3521 17.569C82.3266 17.9935 81.9969 18.3371 81.5726 18.3775C80.2939 18.5004 78.7468 19.5183 77.7454 20.3594C77.4375 20.6178 77.0612 21.2644 76.6688 21.6653C76.3526 21.9864 76.0149 22.1906 75.7065 22.2565C75.5862 22.282 74.9256 22.3557 74.6925 21.6581C74.6289 21.4624 74.4321 20.4492 74.4162 20.3343C74.3182 19.675 74.1484 19.0789 73.7614 18.5276C73.4256 18.0496 73.0048 17.6209 72.4774 17.3576C72.2648 17.2514 72.0418 17.1653 71.8189 17.0773C71.7397 17.0606 71.5162 17.0122 71.4385 16.9781C71.2803 16.9095 71.1676 16.8138 71.0892 16.7213C70.9402 16.5464 70.874 16.3472 70.8788 16.1275C70.88 15.9823 70.9149 15.813 71.0344 15.6324C71.1234 15.5045 71.3156 15.3169 71.6417 15.2128C71.9826 15.104 72.7004 15.035 72.8292 15.012C73.725 14.8527 74.6143 14.5693 75.3406 14.0068C75.7024 13.7255 75.8088 13.3973 75.9139 12.9855ZM76.2621 15.4665C76.5385 16.1956 76.9904 16.8284 77.6587 17.2605C77.9341 17.4399 78.2385 17.5843 78.5566 17.7038C77.8436 18.1129 77.1737 18.5904 76.6358 19.0403C76.4617 19.1867 76.2645 19.4312 76.0537 19.7001C75.9029 18.9198 75.6423 18.208 75.1707 17.5363C74.8912 17.1401 74.5688 16.7722 74.2016 16.4569C74.9354 16.238 75.6403 15.9209 76.2621 15.4665Z" fill="#FC22A7"/>
  </svg>