<svg xmlns="http://www.w3.org/2000/svg" width="63" height="59" viewBox="0 0 63 59" fill="none">
    <ellipse cx="34.1813" cy="14.3299" rx="6.20538" ry="5.72804" transform="rotate(-19.9434 34.1813 14.3299)" fill="#FF5C8F"/>
    <path d="M27.4983 47.3002L37.5324 25.2652M40.5261 40.5132L51.0732 30.2676M33.0548 53.8986L54.3763 43.6265M24.6982 22.9482L24.0336 27.4557M23.458 31.3594L21.9697 41.4528M11.2336 26.1393L14.9617 44.8237M18.6297 3.13558C19.2956 4.94041 18.3928 6.91827 16.6133 7.55324C14.8339 8.18821 12.8516 7.23986 12.1858 5.43502C11.52 3.63019 12.4227 1.65234 14.2022 1.01737C15.9816 0.382395 17.9639 1.33075 18.6297 3.13558ZM57.2867 13.7886C57.5874 14.6037 57.1797 15.497 56.376 15.7838C55.5724 16.0705 54.6771 15.6422 54.3764 14.8271C54.0757 14.012 54.4834 13.1188 55.2871 12.832C56.0907 12.5452 56.986 12.9735 57.2867 13.7886Z" stroke="#FFB71A" stroke-linecap="round"/>
  </svg>