<?xml version="1.0" standalone="no"?>
<!DOCTYPE svg PUBLIC "-//W3C//DTD SVG 20010904//EN"
 "http://www.w3.org/TR/2001/REC-SVG-20010904/DTD/svg10.dtd">
<svg version="1.0" xmlns="http://www.w3.org/2000/svg"
 width="101.000000pt" height="101.000000pt" viewBox="0 0 101.000000 101.000000"
 preserveAspectRatio="xMidYMid meet">
<metadata>
Created by potrace 1.14, written by Peter Selinger 2001-2017
</metadata>
<g transform="translate(0.000000,101.000000) scale(0.100000,-0.100000)"
fill="#000000" stroke="none">
<path d="M410 989 c-120 -23 -259 -131 -314 -243 -49 -101 -55 -139 -56 -405
-1 -265 1 -274 51 -286 50 -12 54 3 59 299 l5 271 33 60 c53 98 109 149 202
182 131 47 276 14 374 -83 143 -144 139 -387 -10 -523 -62 -57 -105 -79 -182
-92 -95 -17 -105 -22 -113 -52 -22 -81 113 -87 266 -12 65 32 152 114 187 178
109 194 79 426 -73 578 -113 113 -269 159 -429 128z"/>
<path d="M425 756 c-28 -12 -65 -39 -83 -60 -61 -70 -64 -85 -65 -370 -2 -281
2 -310 47 -322 30 -7 71 15 78 43 3 11 6 59 6 109 1 49 1 103 1 120 l1 32 43
-15 c52 -19 130 -12 183 15 141 73 178 263 75 383 -72 85 -188 111 -286 65z
m168 -131 c70 -46 60 -162 -18 -199 -79 -38 -165 17 -165 105 0 95 102 148
183 94z"/>
</g>
</svg>
