<svg xmlns="http://www.w3.org/2000/svg" width="180" height="56" viewBox="0 0 180 56" fill="none">
    <g clip-path="url(#clip0_135_583)">
      <path d="M0 0H180V56H0V0Z" fill="black"/>
      <path d="M89.9754 10.8115H88.7313V19.5765H89.9754V10.8115Z" fill="white"/>
      <path d="M36.8521 16.0948C37.9883 14.731 38.548 12.9779 38.4125 11.208C36.6767 11.3903 35.0733 12.2199 33.9219 13.5314C33.3589 14.1722 32.9277 14.9176 32.6529 15.7251C32.3782 16.5325 32.2653 17.3862 32.3207 18.2374C33.1889 18.2463 34.0478 18.0581 34.8327 17.687C35.6176 17.3159 36.3081 16.7715 36.8521 16.0948Z" fill="white"/>
      <path d="M40.6764 27.4202C40.6915 26.2517 41.0019 25.106 41.5787 24.0897C42.1555 23.0733 42.9801 22.2194 43.9756 21.6074C43.3432 20.7041 42.5089 19.9608 41.5389 19.4365C40.5689 18.9121 39.4901 18.6211 38.388 18.5866C36.95 18.4357 35.5388 18.9957 34.3855 19.4535C33.6534 19.744 33.0251 19.9934 32.5599 19.9934C32.0307 19.9934 31.3845 19.7338 30.6604 19.4429C29.7135 19.0626 28.6335 18.6288 27.508 18.652C26.2233 18.6935 24.9712 19.0671 23.8738 19.7364C22.7763 20.4056 21.871 21.3478 21.2459 22.471C18.5383 27.1588 20.558 34.0483 23.1516 37.8375C24.4493 39.693 25.9659 41.7656 27.9503 41.6921C28.8505 41.6548 29.4893 41.386 30.149 41.1083C30.9125 40.787 31.7041 40.4539 32.9615 40.4539C34.1471 40.4539 34.9048 40.7766 35.6318 41.0864C36.3289 41.3833 36.9979 41.6683 37.9889 41.6454C40.0726 41.6116 41.3854 39.7817 42.6376 37.9086C43.5699 36.5865 44.2874 35.1253 44.7634 33.5791C43.5528 33.0671 42.5197 32.21 41.7929 31.1148C41.0661 30.0196 40.6778 28.7347 40.6764 27.4202Z" fill="white"/>
      <path fill-rule="evenodd" clip-rule="evenodd" d="M58.5964 36.9948H65.2232L66.8132 41.6938H69.6679L63.3911 24.3086H60.4749L54.1982 41.6938H57.005L58.5964 36.9948ZM64.5355 34.8264H59.2827L61.8736 27.2003H61.9461L64.5355 34.8264Z" fill="white"/>
      <path fill-rule="evenodd" clip-rule="evenodd" d="M83.2236 35.357C83.2236 39.2959 81.1154 41.8265 77.9339 41.8265C77.128 41.8687 76.3265 41.6831 75.6212 41.2909C74.9159 40.8987 74.3353 40.3158 73.9458 39.6089H73.8856V45.8871H71.2839V29.0187H73.8023V31.1269H73.8501C74.2575 30.4235 74.8479 29.8436 75.5586 29.449C76.2692 29.0544 77.0736 28.8599 77.8861 28.8861C81.103 28.8861 83.2236 31.4291 83.2236 35.357ZM80.5493 35.357C80.5493 32.7908 79.2232 31.1037 77.1997 31.1037C75.2118 31.1037 73.8747 32.8264 73.8747 35.357C73.8747 37.9109 75.2118 39.6213 77.1997 39.6213C79.2232 39.6213 80.5493 37.9465 80.5493 35.357Z" fill="white"/>
      <path fill-rule="evenodd" clip-rule="evenodd" d="M91.8847 41.8266C95.0661 41.8266 97.1743 39.2959 97.1743 35.357C97.1743 31.4291 95.0538 28.8861 91.8368 28.8861C91.0243 28.8599 90.22 29.0545 89.5093 29.449C88.7986 29.8436 88.2082 30.4235 87.8009 31.1269H87.753V29.0187H85.2347V45.8871H87.8364V39.6089H87.8966C88.286 40.3158 88.8667 40.8987 89.572 41.2909C90.2773 41.6831 91.0788 41.8687 91.8847 41.8266ZM91.1505 31.1037C93.1739 31.1037 94.5001 32.7908 94.5001 35.357C94.5001 37.9465 93.174 39.6213 91.1505 39.6213C89.1626 39.6213 87.8255 37.9109 87.8255 35.357C87.8255 32.8264 89.1626 31.1037 91.1505 31.1037Z" fill="white"/>
      <path d="M106.395 36.8506C106.587 38.5746 108.262 39.7066 110.551 39.7066C112.744 39.7066 114.322 38.5746 114.322 37.0201C114.322 35.6706 113.37 34.8626 111.117 34.3089L108.864 33.7661C105.671 32.9951 104.189 31.5021 104.189 29.0794C104.189 26.0798 106.803 24.0195 110.515 24.0195C114.189 24.0195 116.707 26.0798 116.792 29.0794H114.166C114.009 27.3445 112.574 26.2972 110.478 26.2972C108.383 26.2972 106.948 27.3568 106.948 28.899C106.948 30.1281 107.864 30.8513 110.105 31.405L112.021 31.8753C115.588 32.7188 117.07 34.1517 117.07 36.6946C117.07 39.9471 114.479 41.9843 110.358 41.9843C106.503 41.9843 103.9 39.995 103.731 36.8505L106.395 36.8506Z" fill="white"/>
      <path d="M122.685 29.0191V26.0195H120.071V29.0191H118.228V31.0795H120.071V38.3447C120.071 40.8029 121.071 41.7667 123.638 41.7667C124.122 41.7758 124.606 41.7354 125.083 41.6464V39.5984C124.799 39.6335 124.513 39.6536 124.227 39.6586C123.167 39.6586 122.685 39.1527 122.685 38.0672V31.0795H125.095V29.0191H122.685Z" fill="white"/>
      <path fill-rule="evenodd" clip-rule="evenodd" d="M126.491 35.3574C126.491 31.3693 128.84 28.8633 132.503 28.8633C136.178 28.8633 138.515 31.3693 138.515 35.3574C138.515 39.3564 136.19 41.8516 132.503 41.8516C128.817 41.8516 126.491 39.3564 126.491 35.3574ZM135.864 35.3574C135.864 32.6217 134.611 31.007 132.503 31.007C130.394 31.007 129.142 32.634 129.142 35.3574C129.142 38.1041 130.394 39.7064 132.503 39.7064C134.611 39.7064 135.864 38.1041 135.864 35.3574Z" fill="white"/>
      <path d="M143.142 29.0186H140.66V41.6938H143.262V34.1756C143.219 33.7998 143.258 33.4191 143.377 33.0598C143.495 32.7005 143.689 32.371 143.947 32.0939C144.205 31.8169 144.519 31.5988 144.869 31.4548C145.219 31.3107 145.595 31.2441 145.973 31.2594C146.369 31.2479 146.764 31.301 147.142 31.4167V28.9831C146.85 28.9175 146.551 28.8849 146.251 28.886C145.557 28.8595 144.875 29.0727 144.32 29.4897C143.765 29.9068 143.37 30.5022 143.202 31.176H143.142V29.0186Z" fill="white"/>
      <path fill-rule="evenodd" clip-rule="evenodd" d="M159.138 37.9715C158.788 40.2724 156.547 41.8515 153.68 41.8515C149.993 41.8515 147.704 39.381 147.704 35.4176C147.704 31.4418 150.005 28.8633 153.571 28.8633C157.078 28.8633 159.283 31.2722 159.283 35.1154V36.0068H150.331V36.164C150.289 36.6305 150.348 37.1005 150.502 37.5426C150.656 37.9848 150.903 38.3891 151.225 38.7287C151.548 39.0682 151.939 39.3353 152.372 39.5121C152.806 39.689 153.272 39.7715 153.74 39.7543C154.355 39.8119 154.972 39.6695 155.5 39.3483C156.027 39.0271 156.437 38.5442 156.668 37.9715H159.138ZM150.343 34.1885H156.68C156.703 33.769 156.64 33.3493 156.493 32.9556C156.346 32.5619 156.12 32.2028 155.828 31.9007C155.536 31.5986 155.185 31.3601 154.797 31.2002C154.408 31.0403 153.991 30.9625 153.571 30.9715C153.147 30.9689 152.727 31.0504 152.335 31.211C151.943 31.3716 151.587 31.6083 151.287 31.9074C150.986 32.2065 150.749 32.5621 150.587 32.9536C150.425 33.3451 150.342 33.7648 150.343 34.1885Z" fill="white"/>
      <path fill-rule="evenodd" clip-rule="evenodd" d="M60.5592 11.4646C60.0495 11.2666 59.5021 11.1842 58.9567 11.2233H55.9393V19.5769H58.9567C61.445 19.5769 62.8873 18.0428 62.8873 15.3741C62.9561 14.8316 62.9036 14.2805 62.7337 13.7608C62.5637 13.241 62.2805 12.7654 61.9045 12.3683C61.5284 11.9712 61.069 11.6626 60.5592 11.4646ZM58.8117 18.3955H57.2367V12.4038H58.8117C59.1995 12.3823 59.5872 12.4468 59.9472 12.5927C60.3071 12.7387 60.6302 12.9624 60.8935 13.2479C61.1568 13.5334 61.3537 13.8736 61.4701 14.2441C61.5864 14.6147 61.6194 15.0063 61.5666 15.3911C61.6235 15.7774 61.5936 16.1715 61.479 16.5448C61.3644 16.918 61.168 17.2611 60.9041 17.5489C60.6402 17.8366 60.3155 18.062 59.9535 18.2084C59.5916 18.3549 59.2015 18.4188 58.8117 18.3955Z" fill="white"/>
      <path fill-rule="evenodd" clip-rule="evenodd" d="M64.3531 16.4214C64.3134 16.0071 64.3608 15.5891 64.4922 15.1942C64.6236 14.7993 64.836 14.4362 65.1159 14.1282C65.3959 13.8203 65.7371 13.5742 66.1177 13.4058C66.4982 13.2374 66.9098 13.1504 67.326 13.1504C67.7422 13.1504 68.1538 13.2374 68.5344 13.4058C68.9149 13.5742 69.2561 13.8203 69.5361 14.1282C69.816 14.4362 70.0284 14.7993 70.1598 15.1942C70.2912 15.5891 70.3386 16.0071 70.299 16.4214C70.3393 16.8361 70.2925 17.2547 70.1615 17.6502C70.0304 18.0457 69.8181 18.4095 69.5381 18.7181C69.2581 19.0266 68.9167 19.2732 68.5357 19.442C68.1547 19.6107 67.7427 19.6979 67.326 19.6979C66.9093 19.6979 66.4973 19.6107 66.1163 19.442C65.7353 19.2732 65.3939 19.0266 65.1139 18.7181C64.8339 18.4095 64.6216 18.0457 64.4905 17.6502C64.3595 17.2547 64.3127 16.8361 64.3531 16.4214ZM69.0192 16.4214C69.0192 15.0549 68.4054 14.2558 67.328 14.2558C66.2466 14.2558 65.6383 15.0549 65.6383 16.4214C65.6383 17.7988 66.2467 18.5918 67.328 18.5918C68.4054 18.5918 69.0193 17.7933 69.0192 16.4214Z" fill="white"/>
      <path d="M76.9119 19.5766H78.2026L79.9334 13.2725H78.6893L77.5655 18.0829H77.467L76.1709 13.2725H74.9774L73.6813 18.0829H73.5883L72.459 13.2725H71.1971L72.9348 19.5766H74.2131L75.5106 14.9337H75.609L76.9119 19.5766Z" fill="white"/>
      <path d="M81.395 13.2724H82.5926V14.2739H82.6856C82.8433 13.9142 83.1093 13.6127 83.4465 13.4114C83.7837 13.21 84.1754 13.1189 84.5668 13.1508C84.8736 13.1277 85.1816 13.1739 85.468 13.2861C85.7544 13.3982 86.012 13.5734 86.2215 13.7985C86.4311 14.0237 86.5873 14.2932 86.6786 14.5869C86.7699 14.8807 86.7939 15.1912 86.7489 15.4955V19.5765H85.5047V15.8079C85.5047 14.7948 85.0645 14.291 84.1444 14.291C83.9361 14.2813 83.7282 14.3167 83.5349 14.3949C83.3416 14.4731 83.1675 14.5921 83.0246 14.7438C82.8816 14.8956 82.7731 15.0764 82.7066 15.274C82.6401 15.4716 82.617 15.6812 82.6391 15.8886V19.5765H81.3949L81.395 13.2724Z" fill="white"/>
      <path fill-rule="evenodd" clip-rule="evenodd" d="M91.7049 16.4215C91.6653 16.0072 91.7127 15.5891 91.8441 15.1942C91.9755 14.7993 92.188 14.4362 92.468 14.1282C92.7479 13.8203 93.0892 13.5742 93.4698 13.4058C93.8504 13.2374 94.262 13.1504 94.6782 13.1504C95.0944 13.1504 95.506 13.2374 95.8866 13.4058C96.2672 13.5742 96.6085 13.8203 96.8884 14.1282C97.1684 14.4362 97.3808 14.7993 97.5123 15.1942C97.6437 15.5891 97.6911 16.0072 97.6515 16.4215C97.6918 16.8362 97.645 17.2548 97.5139 17.6503C97.3828 18.0458 97.1704 18.4096 96.8904 18.7182C96.6104 19.0267 96.2689 19.2733 95.8879 19.442C95.507 19.6108 95.0949 19.698 94.6782 19.698C94.2615 19.698 93.8494 19.6108 93.4684 19.442C93.0875 19.2733 92.746 19.0267 92.466 18.7182C92.1859 18.4096 91.9736 18.0458 91.8425 17.6503C91.7114 17.2548 91.6646 16.8362 91.7049 16.4215ZM96.3711 16.4215C96.3711 15.055 95.7572 14.2559 94.6799 14.2559C93.5985 14.2559 92.9901 15.055 92.9901 16.4215C92.9901 17.7989 93.5985 18.5919 94.6799 18.5919C95.7572 18.5919 96.3711 17.7934 96.3711 16.4215Z" fill="white"/>
      <path fill-rule="evenodd" clip-rule="evenodd" d="M101.306 15.9114C99.8062 16.0044 98.9613 16.6586 98.9613 17.7933C98.9623 18.0594 99.0191 18.3223 99.128 18.5651C99.2368 18.8079 99.3954 19.0252 99.5933 19.2029C99.7913 19.3807 100.024 19.515 100.277 19.5971C100.53 19.6793 100.798 19.7076 101.063 19.68C101.438 19.6974 101.81 19.6149 102.143 19.441C102.476 19.2671 102.756 19.008 102.956 18.6902H103.055V19.5762H104.252V15.2688C104.252 13.9372 103.361 13.1504 101.78 13.1504C100.35 13.1504 99.3318 13.8449 99.2046 14.9277H100.409C100.547 14.482 101.028 14.227 101.723 14.227C102.573 14.227 103.014 14.603 103.014 15.2688V15.813L101.306 15.9114ZM103.014 16.7276V17.2547C103 17.4535 102.947 17.6476 102.857 17.8255C102.767 18.0033 102.642 18.1612 102.49 18.2898C102.337 18.4184 102.161 18.515 101.97 18.5739C101.78 18.6328 101.58 18.6529 101.381 18.6328C100.704 18.6328 100.212 18.3026 100.212 17.7352C100.212 17.1795 100.606 16.8842 101.474 16.8261L103.014 16.7276Z" fill="white"/>
      <path fill-rule="evenodd" clip-rule="evenodd" d="M105.887 16.4218C105.887 14.4298 106.911 13.1679 108.504 13.1679C108.898 13.1497 109.289 13.2441 109.632 13.4399C109.974 13.6358 110.253 13.925 110.437 14.2739H110.53V10.8115H111.775V19.5765H110.582V18.5805H110.484C110.286 18.927 109.996 19.2127 109.647 19.4065C109.299 19.6004 108.903 19.6951 108.504 19.6804C106.901 19.6805 105.887 18.4186 105.887 16.4218ZM107.173 16.4218C107.173 17.7589 107.803 18.5635 108.857 18.5635C109.906 18.5635 110.554 17.7473 110.554 16.4272C110.554 15.1134 109.899 14.2855 108.857 14.2855C107.81 14.2855 107.173 15.0956 107.173 16.4218Z" fill="white"/>
      <path fill-rule="evenodd" clip-rule="evenodd" d="M117.061 15.1942C116.93 15.5891 116.882 16.0071 116.922 16.4214C116.882 16.8361 116.928 17.2547 117.059 17.6502C117.191 18.0457 117.403 18.4095 117.683 18.7181C117.963 19.0266 118.304 19.2732 118.685 19.442C119.066 19.6107 119.478 19.6979 119.895 19.6979C120.312 19.6979 120.724 19.6107 121.105 19.442C121.486 19.2732 121.827 19.0266 122.107 18.7181C122.387 18.4095 122.599 18.0457 122.73 17.6502C122.861 17.2547 122.908 16.8361 122.868 16.4214C122.908 16.0071 122.86 15.5891 122.729 15.1942C122.597 14.7993 122.385 14.4362 122.105 14.1282C121.825 13.8203 121.484 13.5742 121.103 13.4058C120.723 13.2374 120.311 13.1504 119.895 13.1504C119.479 13.1504 119.067 13.2374 118.687 13.4058C118.306 13.5742 117.965 13.8203 117.685 14.1282C117.405 14.4362 117.193 14.7993 117.061 15.1942ZM119.897 14.2558C120.974 14.2558 121.588 15.0549 121.588 16.4214C121.588 17.7933 120.974 18.5918 119.897 18.5918C118.816 18.5918 118.207 17.7988 118.207 16.4214C118.207 15.0549 118.816 14.2558 119.897 14.2558Z" fill="white"/>
      <path d="M124.537 13.2724H125.735V14.2739H125.828C125.986 13.9142 126.252 13.6127 126.589 13.4114C126.926 13.21 127.318 13.1189 127.709 13.1508C128.016 13.1277 128.324 13.1739 128.61 13.2861C128.897 13.3982 129.154 13.5734 129.364 13.7985C129.573 14.0237 129.73 14.2932 129.821 14.5869C129.912 14.8807 129.936 15.1912 129.891 15.4955V19.5765H128.647V15.8079C128.647 14.7948 128.207 14.291 127.287 14.291C127.078 14.2813 126.87 14.3167 126.677 14.3949C126.484 14.4731 126.31 14.5921 126.167 14.7438C126.024 14.8956 125.915 15.0764 125.849 15.274C125.782 15.4716 125.759 15.6812 125.781 15.8886V19.5765H124.537V13.2724Z" fill="white"/>
      <path d="M136.921 13.3014V11.7031H135.676V13.3013H134.675V14.3493H135.676V17.9095C135.676 19.1249 136.227 19.6116 137.61 19.6116C137.837 19.6093 138.064 19.588 138.287 19.548V18.5117C138.13 18.5303 137.971 18.5399 137.813 18.5404C137.193 18.5404 136.921 18.2513 136.921 17.5909V14.3493H138.287V13.3014H136.921Z" fill="white"/>
      <path d="M139.986 10.8115H141.22V14.2855H141.318C141.483 13.9225 141.757 13.6193 142.101 13.4172C142.445 13.2151 142.843 13.124 143.24 13.1562C143.545 13.1396 143.85 13.1906 144.134 13.3054C144.417 13.4203 144.671 13.5962 144.879 13.8207C145.086 14.0452 145.241 14.3127 145.333 14.604C145.425 14.8954 145.452 15.2035 145.411 15.5064V19.5765H144.166V15.8133C144.166 14.8064 143.697 14.2964 142.818 14.2964C142.604 14.2789 142.389 14.3083 142.188 14.3826C141.986 14.4569 141.804 14.5742 141.653 14.7264C141.501 14.8787 141.385 15.0621 141.312 15.2639C141.24 15.4657 141.212 15.681 141.231 15.8947V19.5765H139.986V10.8115Z" fill="white"/>
      <path fill-rule="evenodd" clip-rule="evenodd" d="M151.631 19.282C152.13 18.9486 152.497 18.4503 152.666 17.8741H151.468C151.322 18.1358 151.102 18.3483 150.834 18.4844C150.567 18.6205 150.266 18.674 149.968 18.6383C149.736 18.6409 149.506 18.5949 149.293 18.5034C149.079 18.4118 148.887 18.2767 148.729 18.1067C148.571 17.9366 148.451 17.7354 148.375 17.516C148.299 17.2965 148.27 17.0637 148.289 16.8323V16.7626H152.741V16.3285C152.741 14.3489 151.683 13.1505 149.929 13.1505C149.512 13.1469 149.1 13.2329 148.719 13.4026C148.339 13.5723 147.999 13.8217 147.724 14.134C147.448 14.4463 147.243 14.8142 147.122 15.2127C147.001 15.6113 146.967 16.0312 147.022 16.444C146.965 16.8556 146.999 17.2746 147.12 17.672C147.241 18.0693 147.448 18.4355 147.725 18.7451C148.002 19.0547 148.343 19.3003 148.725 19.4648C149.106 19.6293 149.519 19.7089 149.934 19.6979C150.531 19.7627 151.132 19.6155 151.631 19.282ZM151.474 15.8425H148.289C148.287 15.6273 148.327 15.4137 148.408 15.2144C148.489 15.015 148.609 14.8339 148.761 14.6817C148.913 14.5295 149.094 14.4093 149.294 14.3282C149.493 14.2471 149.707 14.2067 149.922 14.2094C150.134 14.2045 150.345 14.2441 150.541 14.3255C150.736 14.407 150.913 14.5285 151.059 14.6823C151.205 14.8361 151.318 15.0188 151.389 15.2186C151.46 15.4184 151.489 15.6309 151.474 15.8425Z" fill="white"/>
    </g>
    <defs>
      <clipPath id="clip0_135_583">
        <rect width="180" height="56" rx="6" fill="white"/>
      </clipPath>
    </defs>
  </svg>