<svg xmlns="http://www.w3.org/2000/svg" width="42" height="42" viewBox="0 0 42 42" fill="none">
    <path d="M2 21C2 24.7578 3.11433 28.4313 5.20208 31.5558C7.28982 34.6804 10.2572 37.1156 13.729 38.5537C17.2008 39.9918 21.0211 40.368 24.7067 39.6349C28.3924 38.9018 31.7778 37.0922 34.435 34.435C37.0922 31.7778 38.9018 28.3923 39.6349 24.7067C40.368 21.0211 39.9918 17.2008 38.5537 13.729C37.1156 10.2572 34.6804 7.28982 31.5558 5.20207C28.4313 3.11433 24.7578 2 21 2C15.9625 2.00532 11.1329 4.00881 7.57084 7.57085C4.00881 11.1329 2.00532 15.9625 2 21Z" fill="white"/>
    <path d="M14 21H28M28 21L22.5 15.5M28 21L22.5 26.5" stroke="black" stroke-width="1.6" stroke-linecap="round" stroke-linejoin="round"/>
  </svg>