<svg xmlns="http://www.w3.org/2000/svg" width="195" height="46" viewBox="0 0 195 46" fill="none">
    <mask id="path-1-outside-1_40_865" maskUnits="userSpaceOnUse" x="0" y="0" width="43" height="46" fill="black">
      <rect fill="white" width="43" height="46"/>
      <path d="M34.3598 5.43753C35.008 5.95418 35.6262 6.50856 36.2107 7.09786C38.126 9.03046 39.6432 11.3259 40.6798 13.8529C41.7164 16.3797 42.25 19.0886 42.25 21.8242C42.25 24.5599 41.7164 27.2687 40.6798 29.7957C39.6432 32.3224 38.1238 34.618 36.2085 36.5505C35.8115 36.961 35.3578 37.3737 34.7771 37.8783L34.7498 37.9036C34.0108 38.5117 33.2325 39.0695 32.4203 39.5731C32.3862 39.5989 32.3506 39.6226 32.3135 39.6442C31.7874 39.9675 31.2179 40.2771 30.5692 40.5958C29.6627 41.0517 28.7185 41.4262 27.7472 41.7149H27.7336C25.7578 42.3436 23.6983 42.6614 21.6269 42.6575C21.2058 42.6575 20.802 42.4882 20.5041 42.1873C20.2064 41.8863 20.039 41.4778 20.039 41.0522C20.039 40.6263 20.2064 40.2181 20.5041 39.917C20.802 39.6161 21.2058 39.4469 21.6269 39.4469C23.3863 39.4506 25.1356 39.1791 26.8126 38.642H26.8308C27.6309 38.4053 28.4089 38.0985 29.156 37.7246C29.6958 37.461 30.1585 37.2109 30.5782 36.9564L30.669 36.8945C31.3826 36.4565 32.0647 35.9684 32.7105 35.4336C33.221 34.9979 33.6179 34.631 33.9559 34.287C35.5759 32.6531 36.8609 30.712 37.7376 28.5752C38.6144 26.4384 39.0658 24.1477 39.0658 21.8345C39.0658 19.5212 38.6144 17.2305 37.7376 15.0938C36.8609 12.957 35.5759 11.016 33.9559 9.38197C33.4593 8.87847 32.9338 8.40522 32.3817 7.96473C32.1412 7.77438 31.894 7.58633 31.6489 7.40517L31.5354 7.33178C31.2519 7.12998 30.9639 6.94192 30.6781 6.76763C30.644 6.74929 30.6123 6.72636 30.5782 6.70342C29.6337 6.14383 28.6432 5.66735 27.6179 5.2793H27.5929C27.3584 5.18409 27.1194 5.10142 26.8762 5.03162L26.8126 5.01328C25.1335 4.48644 23.3852 4.21892 21.6269 4.21979H20.9033C20.7989 4.23484 20.6936 4.2425 20.5881 4.24273L19.9641 4.28631H19.937C19.8929 4.29556 19.8486 4.30297 19.804 4.30852C19.7879 4.31053 19.7717 4.3123 19.7555 4.31382L19.4584 4.35281H19.4085C19.1801 4.37328 18.9528 4.40619 18.7279 4.45142L18.6439 4.46748C17.6985 4.62727 16.7686 4.87051 15.8651 5.19443C15.1471 5.4474 14.4489 5.754 13.7759 6.11175C13.7443 6.1289 13.7117 6.14423 13.6784 6.15762C13.6103 6.18743 13.54 6.21953 13.5082 6.23789L13.4605 6.26311C13.2133 6.38925 12.9456 6.54519 12.6598 6.72177C12.2606 6.96026 11.8885 7.20566 11.5369 7.4625C11.4848 7.50836 11.4054 7.56799 11.3101 7.62762L11.1672 7.7377L11.1255 7.77044C11.0565 7.82449 10.9851 7.88041 10.9154 7.9395L10.8337 8.00141C10.7656 8.05666 10.6944 8.10796 10.6205 8.15507C10.4854 8.25616 10.3581 8.36732 10.2394 8.4876C10.2145 8.51282 10.1895 8.53804 10.1622 8.56098C10.01 8.6936 9.85564 8.83941 9.69666 8.98962C9.6165 9.06538 9.53515 9.14226 9.45225 9.21915C9.08249 9.5769 8.69683 10.0012 8.27719 10.4942C8.25027 10.5371 8.21991 10.5778 8.18644 10.6158C7.29214 11.7103 6.53057 12.909 5.918 14.1864C5.76375 14.5006 5.66623 14.7138 5.5891 14.9179L5.57322 14.9547C5.38039 15.4225 5.19438 15.9454 4.98567 16.5944C4.45529 18.2884 4.18748 20.0552 4.19174 21.8322V22.1694C4.19515 22.2221 4.19515 22.2749 4.19174 22.3276V41.0614C4.19174 41.4872 4.02443 41.8955 3.72663 42.1965C3.42884 42.4974 3.02497 42.6667 2.60385 42.6667C2.18269 42.6667 1.77879 42.4974 1.48099 42.1965C1.1832 41.8955 1.01592 41.4872 1.01592 41.0614V22.3941C1.00004 22.1854 1.00004 21.9904 1.00004 21.8276C0.995966 19.7168 1.31508 17.6181 1.94599 15.6059C2.18869 14.8766 2.39966 14.2781 2.62651 13.73C2.77168 13.3562 2.93274 13.0191 3.05978 12.7646C3.75388 11.316 4.61098 9.95317 5.61406 8.70316C5.65134 8.64686 5.69148 8.59251 5.73428 8.54033C6.26507 7.90739 6.75506 7.36388 7.23372 6.90523L7.25186 6.88689C7.29666 6.84449 7.34168 6.80173 7.38696 6.75875C7.59145 6.56455 7.80046 6.36603 8.01406 6.17826C8.26231 5.93286 8.52844 5.70671 8.81028 5.50175C8.81757 5.49682 8.82487 5.49173 8.83223 5.4866C8.85226 5.47264 8.87263 5.45845 8.89421 5.4467L8.92369 5.42377C9.02351 5.34579 9.15054 5.24259 9.21633 5.19443C9.27476 5.15169 9.33137 5.10713 9.38616 5.06396L9.40686 5.04767C9.47147 4.99431 9.54056 4.94675 9.61331 4.90549L9.63597 4.88944L9.66093 4.8688C10.0987 4.55461 10.5547 4.25419 11.022 3.97441C11.3373 3.77948 11.6572 3.59373 11.9566 3.43319C12.1131 3.34606 12.256 3.28185 12.3763 3.2291C13.1652 2.81706 13.9824 2.46297 14.8216 2.1696C15.8842 1.78968 16.9771 1.50274 18.0882 1.31192C18.4136 1.24264 18.721 1.20606 18.9968 1.17324L19.0454 1.16744L19.3653 1.12616C19.5357 1.08258 19.7114 1.06328 19.8871 1.06882L20.4383 1.03214H20.5245C20.5522 1.02793 20.58 1.02459 20.6079 1.02212C20.6262 1.0205 20.6445 1.01924 20.6628 1.01837C20.9918 1.00003 21.3184 1.00003 21.6383 1.00003C23.7032 0.996578 25.7571 1.30577 27.7313 1.91734C28.0741 2.01535 28.4118 2.13092 28.743 2.26363C29.9771 2.72969 31.1674 3.30606 32.3 3.98588C32.3408 4.01111 32.3817 4.03632 32.4225 4.06614C32.6924 4.23356 32.9646 4.41243 33.2346 4.59819C33.2974 4.63336 33.3579 4.67243 33.4161 4.71514L33.4656 4.75214C33.7544 4.96786 34.0551 5.19243 34.3598 5.43753Z"/>
      <path fill-rule="evenodd" clip-rule="evenodd" d="M13.9218 45C13.3657 45 12.8324 44.7768 12.4392 44.3799C12.0461 43.9826 11.8251 43.4438 11.8251 42.8822V21.6026C11.8247 21.2609 11.8412 20.92 11.8744 20.5813C11.9435 19.8617 12.0853 19.1475 12.2999 18.45C12.5611 17.6437 12.9106 16.8693 13.3422 16.1416C13.3738 16.0889 13.4059 16.0364 13.4384 15.9843C13.6797 15.5947 13.9475 15.2222 14.2399 14.8695C14.4499 14.6146 14.6722 14.3696 14.9056 14.1356C15.041 13.9998 15.1797 13.8681 15.3215 13.7406C16.1965 12.939 17.2026 12.2945 18.2965 11.8364C19.5633 11.3061 20.9221 11.0364 22.2935 11.0434L22.3003 11.0435L22.307 11.0434C23.6784 11.0364 25.0373 11.3061 26.3041 11.8364C27.3979 12.2945 28.404 12.939 29.2791 13.7406C29.4209 13.8681 29.5595 13.9998 29.6949 14.1356C29.9283 14.3696 30.1505 14.6144 30.3605 14.8694C30.6529 15.2221 30.9209 15.5949 31.1622 15.9845C31.1947 16.0366 31.2267 16.0889 31.2583 16.1416C31.69 16.8693 32.0395 17.6437 32.3006 18.45C32.5152 19.1475 32.657 19.8617 32.7261 20.5813C32.7418 20.7412 32.7538 20.9017 32.762 21.0624L32.7616 21.0655C32.8246 22.3104 32.6709 23.5637 32.3006 24.7672C32.0419 25.5702 31.6953 26.3415 31.2674 27.0667C30.3337 28.623 29.0198 29.9109 27.4514 30.807C25.8831 31.703 24.1132 32.1767 22.3115 32.1828L22.3003 32.1827L22.289 32.1828C20.4873 32.1767 18.7174 31.703 17.1492 30.807C16.7567 30.5828 16.3802 30.334 16.0216 30.0627V42.8822C16.0216 43.1606 15.9672 43.4362 15.8617 43.6933C15.756 43.9504 15.6013 44.1841 15.4063 44.3807C15.2113 44.5774 14.9799 44.7336 14.725 44.8396C14.4703 44.9459 14.1975 45.0003 13.9218 45ZM26.7159 17.1369C26.5344 16.9512 26.3418 16.7778 26.1395 16.6173C25.8955 16.428 25.6374 16.2564 25.367 16.104C24.4293 15.5757 23.374 15.2972 22.3003 15.2944C21.2265 15.2971 20.1713 15.5757 19.2335 16.104C18.9631 16.2564 18.705 16.428 18.461 16.6173C18.2587 16.7778 18.0662 16.9512 17.8846 17.1369L17.8546 17.1672C17.2833 17.7301 16.8345 18.4072 16.5366 19.1549L16.5097 19.2185C16.1803 19.9816 16.0141 20.8064 16.0216 21.6388V21.808C16.039 22.3716 16.1303 22.9334 16.2955 23.4784C16.4545 23.9703 16.6665 24.4429 16.9274 24.8882C17.49 25.8165 18.2775 26.5847 19.2156 27.1199C20.1537 27.655 21.2116 27.9399 22.289 27.9471L22.3003 27.9471L22.3115 27.9471C23.3889 27.9399 24.4468 27.655 25.3849 27.1199C26.323 26.5847 27.1105 25.8165 27.6731 24.8882C27.934 24.4429 28.146 23.9703 28.3051 23.4784C28.5092 22.8048 28.6005 22.1056 28.579 21.4092V21.5313C28.5718 20.7354 28.406 19.9487 28.0909 19.2185L28.0639 19.1549C27.766 18.4072 27.3172 17.7301 26.7459 17.1672L26.7159 17.1369Z"/>
      <path d="M32.762 21.0624C32.7671 21.0167 32.7708 20.9708 32.773 20.9246C32.7746 20.8909 32.7754 20.8572 32.7754 20.8233V21.5744C32.7752 21.4034 32.7707 21.2328 32.762 21.0624Z"/>
    </mask>
    <path d="M34.3598 5.43753C35.008 5.95418 35.6262 6.50856 36.2107 7.09786C38.126 9.03046 39.6432 11.3259 40.6798 13.8529C41.7164 16.3797 42.25 19.0886 42.25 21.8242C42.25 24.5599 41.7164 27.2687 40.6798 29.7957C39.6432 32.3224 38.1238 34.618 36.2085 36.5505C35.8115 36.961 35.3578 37.3737 34.7771 37.8783L34.7498 37.9036C34.0108 38.5117 33.2325 39.0695 32.4203 39.5731C32.3862 39.5989 32.3506 39.6226 32.3135 39.6442C31.7874 39.9675 31.2179 40.2771 30.5692 40.5958C29.6627 41.0517 28.7185 41.4262 27.7472 41.7149H27.7336C25.7578 42.3436 23.6983 42.6614 21.6269 42.6575C21.2058 42.6575 20.802 42.4882 20.5041 42.1873C20.2064 41.8863 20.039 41.4778 20.039 41.0522C20.039 40.6263 20.2064 40.2181 20.5041 39.917C20.802 39.6161 21.2058 39.4469 21.6269 39.4469C23.3863 39.4506 25.1356 39.1791 26.8126 38.642H26.8308C27.6309 38.4053 28.4089 38.0985 29.156 37.7246C29.6958 37.461 30.1585 37.2109 30.5782 36.9564L30.669 36.8945C31.3826 36.4565 32.0647 35.9684 32.7105 35.4336C33.221 34.9979 33.6179 34.631 33.9559 34.287C35.5759 32.6531 36.8609 30.712 37.7376 28.5752C38.6144 26.4384 39.0658 24.1477 39.0658 21.8345C39.0658 19.5212 38.6144 17.2305 37.7376 15.0938C36.8609 12.957 35.5759 11.016 33.9559 9.38197C33.4593 8.87847 32.9338 8.40522 32.3817 7.96473C32.1412 7.77438 31.894 7.58633 31.6489 7.40517L31.5354 7.33178C31.2519 7.12998 30.9639 6.94192 30.6781 6.76763C30.644 6.74929 30.6123 6.72636 30.5782 6.70342C29.6337 6.14383 28.6432 5.66735 27.6179 5.2793H27.5929C27.3584 5.18409 27.1194 5.10142 26.8762 5.03162L26.8126 5.01328C25.1335 4.48644 23.3852 4.21892 21.6269 4.21979H20.9033C20.7989 4.23484 20.6936 4.2425 20.5881 4.24273L19.9641 4.28631H19.937C19.8929 4.29556 19.8486 4.30297 19.804 4.30852C19.7879 4.31053 19.7717 4.3123 19.7555 4.31382L19.4584 4.35281H19.4085C19.1801 4.37328 18.9528 4.40619 18.7279 4.45142L18.6439 4.46748C17.6985 4.62727 16.7686 4.87051 15.8651 5.19443C15.1471 5.4474 14.4489 5.754 13.7759 6.11175C13.7443 6.1289 13.7117 6.14423 13.6784 6.15762C13.6103 6.18743 13.54 6.21953 13.5082 6.23789L13.4605 6.26311C13.2133 6.38925 12.9456 6.54519 12.6598 6.72177C12.2606 6.96026 11.8885 7.20566 11.5369 7.4625C11.4848 7.50836 11.4054 7.56799 11.3101 7.62762L11.1672 7.7377L11.1255 7.77044C11.0565 7.82449 10.9851 7.88041 10.9154 7.9395L10.8337 8.00141C10.7656 8.05666 10.6944 8.10796 10.6205 8.15507C10.4854 8.25616 10.3581 8.36732 10.2394 8.4876C10.2145 8.51282 10.1895 8.53804 10.1622 8.56098C10.01 8.6936 9.85564 8.83941 9.69666 8.98962C9.6165 9.06538 9.53515 9.14226 9.45225 9.21915C9.08249 9.5769 8.69683 10.0012 8.27719 10.4942C8.25027 10.5371 8.21991 10.5778 8.18644 10.6158C7.29214 11.7103 6.53057 12.909 5.918 14.1864C5.76375 14.5006 5.66623 14.7138 5.5891 14.9179L5.57322 14.9547C5.38039 15.4225 5.19438 15.9454 4.98567 16.5944C4.45529 18.2884 4.18748 20.0552 4.19174 21.8322V22.1694C4.19515 22.2221 4.19515 22.2749 4.19174 22.3276V41.0614C4.19174 41.4872 4.02443 41.8955 3.72663 42.1965C3.42884 42.4974 3.02497 42.6667 2.60385 42.6667C2.18269 42.6667 1.77879 42.4974 1.48099 42.1965C1.1832 41.8955 1.01592 41.4872 1.01592 41.0614V22.3941C1.00004 22.1854 1.00004 21.9904 1.00004 21.8276C0.995966 19.7168 1.31508 17.6181 1.94599 15.6059C2.18869 14.8766 2.39966 14.2781 2.62651 13.73C2.77168 13.3562 2.93274 13.0191 3.05978 12.7646C3.75388 11.316 4.61098 9.95317 5.61406 8.70316C5.65134 8.64686 5.69148 8.59251 5.73428 8.54033C6.26507 7.90739 6.75506 7.36388 7.23372 6.90523L7.25186 6.88689C7.29666 6.84449 7.34168 6.80173 7.38696 6.75875C7.59145 6.56455 7.80046 6.36603 8.01406 6.17826C8.26231 5.93286 8.52844 5.70671 8.81028 5.50175C8.81757 5.49682 8.82487 5.49173 8.83223 5.4866C8.85226 5.47264 8.87263 5.45845 8.89421 5.4467L8.92369 5.42377C9.02351 5.34579 9.15054 5.24259 9.21633 5.19443C9.27476 5.15169 9.33137 5.10713 9.38616 5.06396L9.40686 5.04767C9.47147 4.99431 9.54056 4.94675 9.61331 4.90549L9.63597 4.88944L9.66093 4.8688C10.0987 4.55461 10.5547 4.25419 11.022 3.97441C11.3373 3.77948 11.6572 3.59373 11.9566 3.43319C12.1131 3.34606 12.256 3.28185 12.3763 3.2291C13.1652 2.81706 13.9824 2.46297 14.8216 2.1696C15.8842 1.78968 16.9771 1.50274 18.0882 1.31192C18.4136 1.24264 18.721 1.20606 18.9968 1.17324L19.0454 1.16744L19.3653 1.12616C19.5357 1.08258 19.7114 1.06328 19.8871 1.06882L20.4383 1.03214H20.5245C20.5522 1.02793 20.58 1.02459 20.6079 1.02212C20.6262 1.0205 20.6445 1.01924 20.6628 1.01837C20.9918 1.00003 21.3184 1.00003 21.6383 1.00003C23.7032 0.996578 25.7571 1.30577 27.7313 1.91734C28.0741 2.01535 28.4118 2.13092 28.743 2.26363C29.9771 2.72969 31.1674 3.30606 32.3 3.98588C32.3408 4.01111 32.3817 4.03632 32.4225 4.06614C32.6924 4.23356 32.9646 4.41243 33.2346 4.59819C33.2974 4.63336 33.3579 4.67243 33.4161 4.71514L33.4656 4.75214C33.7544 4.96786 34.0551 5.19243 34.3598 5.43753Z" fill="#0058FF"/>
    <path fill-rule="evenodd" clip-rule="evenodd" d="M13.9218 45C13.3657 45 12.8324 44.7768 12.4392 44.3799C12.0461 43.9826 11.8251 43.4438 11.8251 42.8822V21.6026C11.8247 21.2609 11.8412 20.92 11.8744 20.5813C11.9435 19.8617 12.0853 19.1475 12.2999 18.45C12.5611 17.6437 12.9106 16.8693 13.3422 16.1416C13.3738 16.0889 13.4059 16.0364 13.4384 15.9843C13.6797 15.5947 13.9475 15.2222 14.2399 14.8695C14.4499 14.6146 14.6722 14.3696 14.9056 14.1356C15.041 13.9998 15.1797 13.8681 15.3215 13.7406C16.1965 12.939 17.2026 12.2945 18.2965 11.8364C19.5633 11.3061 20.9221 11.0364 22.2935 11.0434L22.3003 11.0435L22.307 11.0434C23.6784 11.0364 25.0373 11.3061 26.3041 11.8364C27.3979 12.2945 28.404 12.939 29.2791 13.7406C29.4209 13.8681 29.5595 13.9998 29.6949 14.1356C29.9283 14.3696 30.1505 14.6144 30.3605 14.8694C30.6529 15.2221 30.9209 15.5949 31.1622 15.9845C31.1947 16.0366 31.2267 16.0889 31.2583 16.1416C31.69 16.8693 32.0395 17.6437 32.3006 18.45C32.5152 19.1475 32.657 19.8617 32.7261 20.5813C32.7418 20.7412 32.7538 20.9017 32.762 21.0624L32.7616 21.0655C32.8246 22.3104 32.6709 23.5637 32.3006 24.7672C32.0419 25.5702 31.6953 26.3415 31.2674 27.0667C30.3337 28.623 29.0198 29.9109 27.4514 30.807C25.8831 31.703 24.1132 32.1767 22.3115 32.1828L22.3003 32.1827L22.289 32.1828C20.4873 32.1767 18.7174 31.703 17.1492 30.807C16.7567 30.5828 16.3802 30.334 16.0216 30.0627V42.8822C16.0216 43.1606 15.9672 43.4362 15.8617 43.6933C15.756 43.9504 15.6013 44.1841 15.4063 44.3807C15.2113 44.5774 14.9799 44.7336 14.725 44.8396C14.4703 44.9459 14.1975 45.0003 13.9218 45ZM26.7159 17.1369C26.5344 16.9512 26.3418 16.7778 26.1395 16.6173C25.8955 16.428 25.6374 16.2564 25.367 16.104C24.4293 15.5757 23.374 15.2972 22.3003 15.2944C21.2265 15.2971 20.1713 15.5757 19.2335 16.104C18.9631 16.2564 18.705 16.428 18.461 16.6173C18.2587 16.7778 18.0662 16.9512 17.8846 17.1369L17.8546 17.1672C17.2833 17.7301 16.8345 18.4072 16.5366 19.1549L16.5097 19.2185C16.1803 19.9816 16.0141 20.8064 16.0216 21.6388V21.808C16.039 22.3716 16.1303 22.9334 16.2955 23.4784C16.4545 23.9703 16.6665 24.4429 16.9274 24.8882C17.49 25.8165 18.2775 26.5847 19.2156 27.1199C20.1537 27.655 21.2116 27.9399 22.289 27.9471L22.3003 27.9471L22.3115 27.9471C23.3889 27.9399 24.4468 27.655 25.3849 27.1199C26.323 26.5847 27.1105 25.8165 27.6731 24.8882C27.934 24.4429 28.146 23.9703 28.3051 23.4784C28.5092 22.8048 28.6005 22.1056 28.579 21.4092V21.5313C28.5718 20.7354 28.406 19.9487 28.0909 19.2185L28.0639 19.1549C27.766 18.4072 27.3172 17.7301 26.7459 17.1672L26.7159 17.1369Z" fill="#0058FF"/>
    <path d="M32.762 21.0624C32.7671 21.0167 32.7708 20.9708 32.773 20.9246C32.7746 20.8909 32.7754 20.8572 32.7754 20.8233V21.5744C32.7752 21.4034 32.7707 21.2328 32.762 21.0624Z" fill="#0058FF"/>
    <path d="M36.2107 7.09786L36.6687 6.64402L36.6684 6.64382L36.2107 7.09786ZM34.3598 5.43753L33.9556 5.93987L33.9579 5.94172L34.3598 5.43753ZM40.6798 13.8529L40.0833 14.0976L40.0833 14.0976L40.6798 13.8529ZM40.6798 29.7957L41.2763 30.0404L41.2763 30.0404L40.6798 29.7957ZM36.2085 36.5505L35.7505 36.0966L35.745 36.1023L36.2085 36.5505ZM34.7771 37.8783L34.3542 37.3917L34.3467 37.3982L34.3395 37.4049L34.7771 37.8783ZM34.7498 37.9036L35.1595 38.4014L35.1739 38.3896L35.1875 38.377L34.7498 37.9036ZM32.4203 39.5731L32.0805 39.0251L32.0547 39.0411L32.0306 39.0595L32.4203 39.5731ZM32.3135 39.6442L31.9883 39.0875L31.9821 39.0911L31.976 39.0949L32.3135 39.6442ZM30.5692 40.5958L30.2848 40.0172L30.2795 40.0199L30.5692 40.5958ZM27.7472 41.7149V42.3597H27.841L27.9309 42.3329L27.7472 41.7149ZM27.7336 41.7149V41.0702H27.6335L27.5381 41.1005L27.7336 41.7149ZM21.6269 42.6575L21.6281 42.0128H21.6269V42.6575ZM20.5041 42.1873L20.0457 42.6407L20.0459 42.6409L20.5041 42.1873ZM20.5041 39.917L20.0459 39.4634L20.0456 39.4637L20.5041 39.917ZM21.6269 39.4469L21.6282 38.8022H21.6269V39.4469ZM26.8126 38.642V37.9972H26.7119L26.6159 38.0279L26.8126 38.642ZM26.8308 38.642V39.2867H26.9242L27.0137 39.2602L26.8308 38.642ZM29.156 37.7246L28.873 37.1452L28.8674 37.148L29.156 37.7246ZM30.5782 36.9564L30.9126 37.5077L30.9273 37.4987L30.9415 37.489L30.5782 36.9564ZM30.669 36.8945L30.3317 36.345L30.3185 36.3531L30.3057 36.3619L30.669 36.8945ZM32.7105 35.4336L33.1218 35.9303L33.1291 35.924L32.7105 35.4336ZM33.9559 34.287L33.498 33.833L33.496 33.8351L33.9559 34.287ZM37.7376 28.5752L37.1411 28.3304L37.1411 28.3304L37.7376 28.5752ZM37.7376 15.0938L37.1411 15.3385L37.1411 15.3385L37.7376 15.0938ZM33.9559 9.38197L33.4968 9.83469L33.498 9.8359L33.9559 9.38197ZM32.3817 7.96473L32.7838 7.46073L32.7818 7.45919L32.3817 7.96473ZM31.6489 7.40517L32.0322 6.88674L32.016 6.87475L31.9991 6.8638L31.6489 7.40517ZM31.5354 7.33178L31.1616 7.85704L31.1733 7.86536L31.1853 7.87315L31.5354 7.33178ZM30.6781 6.76763L31.0137 6.21714L30.9991 6.20823L30.984 6.20012L30.6781 6.76763ZM30.5782 6.70342L30.9384 6.16868L30.9229 6.15824L30.9069 6.14872L30.5782 6.70342ZM27.6179 5.2793L27.8461 4.67631L27.7358 4.63456H27.6179V5.2793ZM27.5929 5.2793L27.3504 5.8767L27.467 5.92404H27.5929V5.2793ZM26.8762 5.03162L26.6974 5.65109L26.6983 5.65134L26.8762 5.03162ZM26.8126 5.01328L26.6196 5.62845L26.6267 5.63068L26.6339 5.63274L26.8126 5.01328ZM21.6269 4.21979V4.86453L21.6272 4.86453L21.6269 4.21979ZM20.9033 4.21979V3.57506H20.857L20.8113 3.58165L20.9033 4.21979ZM20.5881 4.24273L20.5867 3.59799L20.5649 3.59804L20.5432 3.59956L20.5881 4.24273ZM19.9641 4.28631V4.93105H19.9866L20.0091 4.92948L19.9641 4.28631ZM19.937 4.28631V3.64157H19.8701L19.8047 3.6553L19.937 4.28631ZM19.804 4.30852L19.7243 3.66872L19.7241 3.66875L19.804 4.30852ZM19.7555 4.31382L19.6951 3.67193L19.6833 3.67303L19.6717 3.67457L19.7555 4.31382ZM19.4584 4.35281V4.99755H19.5005L19.5422 4.99207L19.4584 4.35281ZM19.4085 4.35281V3.70808H19.3796L19.3509 3.71065L19.4085 4.35281ZM18.7279 4.45142L18.849 5.0847L18.8549 5.08351L18.7279 4.45142ZM18.6439 4.46748L18.7514 5.10335L18.765 5.10073L18.6439 4.46748ZM15.8651 5.19443L16.0794 5.80253L16.0827 5.80134L15.8651 5.19443ZM13.7759 6.11175L13.4732 5.54244L13.4685 5.545L13.7759 6.11175ZM13.6784 6.15762L13.438 5.55936L13.4288 5.56305L13.4197 5.56702L13.6784 6.15762ZM13.5082 6.23789L13.8096 6.80785L13.8205 6.80209L13.8312 6.79592L13.5082 6.23789ZM13.4605 6.26311L13.7536 6.83747L13.7619 6.83307L13.4605 6.26311ZM12.6598 6.72177L12.9905 7.27533L12.9987 7.27028L12.6598 6.72177ZM11.5369 7.4625L11.1566 6.94189L11.1331 6.95906L11.1113 6.97827L11.5369 7.4625ZM11.3101 7.62762L10.968 7.08112L10.9415 7.09773L10.9167 7.11683L11.3101 7.62762ZM11.1672 7.7377L10.7737 7.22688L10.7692 7.23047L11.1672 7.7377ZM11.1255 7.77044L11.5231 8.27793L11.5235 8.27766L11.1255 7.77044ZM10.9154 7.9395L11.305 8.45322L11.3188 8.4427L11.3321 8.43145L10.9154 7.9395ZM10.8337 8.00141L10.4441 7.4877L10.4358 7.49399L10.4278 7.50054L10.8337 8.00141ZM10.6205 8.15507L10.274 7.61138L10.2536 7.62439L10.2342 7.63889L10.6205 8.15507ZM10.2394 8.4876L10.6977 8.94112L10.6984 8.9404L10.2394 8.4876ZM10.1622 8.56098L9.74702 8.06763L9.73881 8.07478L10.1622 8.56098ZM9.69666 8.98962L9.25387 8.52098L9.25379 8.52105L9.69666 8.98962ZM9.45225 9.21915L9.01373 8.74631L9.00394 8.75578L9.45225 9.21915ZM8.27719 10.4942L7.78621 10.0763L7.75585 10.112L7.73097 10.1517L8.27719 10.4942ZM8.18644 10.6158L7.7029 10.1893L7.69486 10.1984L7.68718 10.2078L8.18644 10.6158ZM5.918 14.1864L6.49678 14.4705L6.49934 14.4651L5.918 14.1864ZM5.5891 14.9179L6.18103 15.1734L6.18694 15.1598L6.19221 15.1458L5.5891 14.9179ZM5.57322 14.9547L4.98121 14.6991L4.97713 14.709L5.57322 14.9547ZM4.98567 16.5944L4.37187 16.397L4.37038 16.4017L4.98567 16.5944ZM4.19174 21.8322H4.83648L4.83648 21.8306L4.19174 21.8322ZM4.19174 22.1694H3.547V22.1902L3.54835 22.2109L4.19174 22.1694ZM4.19174 22.3276L3.54835 22.286L3.547 22.3068V22.3276H4.19174ZM3.72663 42.1965L4.18489 42.6501L4.18499 42.65L3.72663 42.1965ZM1.48099 42.1965L1.02264 42.65L1.02274 42.6501L1.48099 42.1965ZM1.01592 22.3941H1.66066V22.3696L1.6588 22.3451L1.01592 22.3941ZM1.00004 21.8276H1.64478L1.64477 21.8263L1.00004 21.8276ZM1.94599 15.6059L1.33414 15.4023L1.33078 15.4131L1.94599 15.6059ZM2.62651 13.73L3.22238 13.9766L3.2275 13.9634L2.62651 13.73ZM3.05978 12.7646L3.63674 13.0525L3.64121 13.0432L3.05978 12.7646ZM5.61406 8.70316L6.11691 9.10668L6.13535 9.0837L6.15162 9.05913L5.61406 8.70316ZM5.73428 8.54033L5.24023 8.12602L5.23582 8.1314L5.73428 8.54033ZM7.23372 6.90523L7.67978 7.37075L7.68604 7.36476L7.69213 7.3586L7.23372 6.90523ZM7.25186 6.88689L6.80872 6.41857L6.80096 6.42592L6.79344 6.43352L7.25186 6.88689ZM7.38696 6.75875L7.83083 7.22637L7.83094 7.22626L7.38696 6.75875ZM8.01406 6.17826L8.43974 6.66249L8.4539 6.65004L8.46731 6.63678L8.01406 6.17826ZM8.81028 5.50175L8.44937 4.96749L8.44011 4.97375L8.43107 4.98032L8.81028 5.50175ZM8.83223 5.4866L9.20033 6.01593L9.20086 6.01556L8.83223 5.4866ZM8.89421 5.4467L9.20252 6.01294L9.24863 5.98784L9.29008 5.9556L8.89421 5.4467ZM8.92369 5.42377L9.31955 5.93267L9.32059 5.93186L8.92369 5.42377ZM9.21633 5.19443L8.83568 4.67406L8.83551 4.67418L9.21633 5.19443ZM9.38616 5.06396L8.98731 4.55741L8.98719 4.5575L9.38616 5.06396ZM9.40686 5.04767L9.80572 5.55422L9.81163 5.54957L9.81742 5.54479L9.40686 5.04767ZM9.61331 4.90549L9.93137 5.46631L9.9595 5.45036L9.98589 5.43167L9.61331 4.90549ZM9.63597 4.88944L10.0085 5.41563L10.0283 5.40165L10.0469 5.38622L9.63597 4.88944ZM9.66093 4.8688L9.28503 4.34498L9.26703 4.3579L9.24996 4.37202L9.66093 4.8688ZM11.022 3.97441L11.3532 4.52763L11.361 4.52281L11.022 3.97441ZM11.9566 3.43319L12.2613 4.00147L12.2701 3.99654L11.9566 3.43319ZM12.3763 3.2291L12.6353 3.8195L12.6554 3.81072L12.6747 3.80059L12.3763 3.2291ZM14.8216 2.1696L15.0344 2.77823L15.0386 2.7767L14.8216 2.1696ZM18.0882 1.31192L18.1974 1.94735L18.21 1.94519L18.2225 1.94252L18.0882 1.31192ZM18.9968 1.17324L19.073 1.81346L19.0732 1.81344L18.9968 1.17324ZM19.0454 1.16744L19.1218 1.80766L19.1279 1.80687L19.0454 1.16744ZM19.3653 1.12616L19.4478 1.76559L19.4869 1.76055L19.5251 1.75079L19.3653 1.12616ZM19.8871 1.06882L19.8667 1.71324L19.8984 1.71424L19.9299 1.71214L19.8871 1.06882ZM20.4383 1.03214V0.387399H20.4169L20.3955 0.388822L20.4383 1.03214ZM20.5245 1.03214V1.67687H20.5732L20.6213 1.66956L20.5245 1.03214ZM20.6079 1.02212L20.6647 1.66435L20.665 1.66432L20.6079 1.02212ZM20.6628 1.01837L20.6934 1.66241L20.6987 1.66211L20.6628 1.01837ZM21.6383 1.00003V1.64477L21.6394 1.64476L21.6383 1.00003ZM27.7313 1.91734L27.5405 2.53336L27.5541 2.53723L27.7313 1.91734ZM28.743 2.26363L28.5032 2.86223L28.5152 2.86678L28.743 2.26363ZM32.3 3.98588L32.6391 3.43744L32.6318 3.43308L32.3 3.98588ZM32.4225 4.06614L32.0421 4.5867L32.0618 4.60116L32.0827 4.61408L32.4225 4.06614ZM33.2346 4.59819L32.8691 5.12934L32.8937 5.14622L32.9197 5.16077L33.2346 4.59819ZM33.4161 4.71514L33.8019 4.19855L33.7979 4.19561L33.4161 4.71514ZM33.4656 4.75214L33.8514 4.2356L33.8514 4.23556L33.4656 4.75214ZM12.4392 44.3799L11.981 44.8334L11.9812 44.8336L12.4392 44.3799ZM13.9218 45L13.9226 44.3553H13.9218V45ZM11.8251 21.6026H12.4699L12.4699 21.6017L11.8251 21.6026ZM11.8744 20.5813L12.5161 20.6442L12.5162 20.6429L11.8744 20.5813ZM12.2999 18.45L11.6865 18.2512L11.6837 18.2604L12.2999 18.45ZM13.3422 16.1416L12.7893 15.81L12.7877 15.8127L13.3422 16.1416ZM13.4384 15.9843L13.9855 16.3255L13.9865 16.3238L13.4384 15.9843ZM14.2399 14.8695L14.7362 15.2811L14.7375 15.2795L14.2399 14.8695ZM14.9056 14.1356L15.3621 14.5909L15.3621 14.5909L14.9056 14.1356ZM15.3215 13.7406L15.7526 14.22L15.757 14.216L15.3215 13.7406ZM18.2965 11.8364L18.0475 11.2417L18.0474 11.2417L18.2965 11.8364ZM22.2935 11.0434L22.2902 11.6882L22.2917 11.6882L22.2935 11.0434ZM22.3003 11.0435L22.2985 11.6882L22.302 11.6882L22.3003 11.0435ZM22.307 11.0434L22.3088 11.6882L22.3104 11.6882L22.307 11.0434ZM26.3041 11.8364L26.5531 11.2417L26.553 11.2417L26.3041 11.8364ZM29.2791 13.7406L28.8436 14.2161L28.8479 14.22L29.2791 13.7406ZM29.6949 14.1356L29.2384 14.5909L29.2385 14.5909L29.6949 14.1356ZM30.3605 14.8694L29.8628 15.2793L29.8641 15.2809L30.3605 14.8694ZM31.1622 15.9845L30.6141 16.324L30.6152 16.3257L31.1622 15.9845ZM31.2583 16.1416L31.8128 15.8127L31.8113 15.81L31.2583 16.1416ZM32.3006 18.45L32.9169 18.2603L32.914 18.2513L32.3006 18.45ZM32.7261 20.5813L32.0843 20.6429L32.0845 20.6441L32.7261 20.5813ZM32.7616 21.0655L32.1216 20.9877L32.1149 21.0427L32.1177 21.098L32.7616 21.0655ZM32.3006 24.7672L32.9144 24.965L32.9169 24.9568L32.3006 24.7672ZM31.2674 27.0667L31.8203 27.3984L31.8227 27.3944L31.2674 27.0667ZM27.4514 30.807L27.7712 31.3669L27.7712 31.3668L27.4514 30.807ZM22.3115 32.1828L22.3099 32.8275L22.3137 32.8275L22.3115 32.1828ZM22.3003 32.1827L22.3019 31.538L22.2987 31.538L22.3003 32.1827ZM22.289 32.1828L22.2868 32.8275L22.2906 32.8275L22.289 32.1828ZM17.1492 30.807L16.8293 31.3668L16.8293 31.3669L17.1492 30.807ZM16.0216 30.0627L16.4106 29.5485L15.3768 28.7663V30.0627H16.0216ZM15.8617 43.6933L16.458 43.9384L16.4581 43.9381L15.8617 43.6933ZM15.4063 44.3807L14.9485 43.9267L14.9484 43.9269L15.4063 44.3807ZM14.725 44.8396L14.4772 44.2444L14.4768 44.2446L14.725 44.8396ZM32.773 20.9246L33.417 20.9551V20.9551L32.773 20.9246ZM32.7754 21.5744L32.1306 21.5752L33.4201 21.5744H32.7754ZM26.1395 16.6173L26.5401 16.1121L26.5347 16.1079L26.1395 16.6173ZM26.7159 17.1369L26.2549 17.5877L26.2577 17.5905L26.7159 17.1369ZM25.367 16.104L25.0506 16.6658L25.0506 16.6658L25.367 16.104ZM22.3003 15.2944L22.3019 14.6496L22.2986 14.6496L22.3003 15.2944ZM19.2335 16.104L19.5499 16.6658L19.55 16.6657L19.2335 16.104ZM18.461 16.6173L18.0658 16.1079L18.0604 16.1121L18.461 16.6173ZM17.8846 17.1369L18.3428 17.5905L18.3456 17.5877L17.8846 17.1369ZM17.8546 17.1672L18.3072 17.6265L18.3128 17.6208L17.8546 17.1672ZM16.5366 19.1549L17.1304 19.4064L17.1356 19.3935L16.5366 19.1549ZM16.5097 19.2185L17.1016 19.474L17.1033 19.47L16.5097 19.2185ZM16.0216 21.6388H16.6663L16.6663 21.633L16.0216 21.6388ZM16.0216 21.808H15.3768V21.818L15.3771 21.828L16.0216 21.808ZM16.2955 23.4784L15.6783 23.6654L15.682 23.6768L16.2955 23.4784ZM16.9274 24.8882L16.371 25.2141L16.3761 25.2224L16.9274 24.8882ZM19.2156 27.1199L18.8961 27.6799L18.8961 27.6799L19.2156 27.1199ZM22.289 27.9471L22.2847 28.5918L22.2874 28.5918L22.289 27.9471ZM22.3003 27.9471L22.2987 28.5918L22.3019 28.5918L22.3003 27.9471ZM22.3115 27.9471L22.3131 28.5918L22.3158 28.5918L22.3115 27.9471ZM25.3849 27.1199L25.7044 27.6799L25.7044 27.6799L25.3849 27.1199ZM27.6731 24.8882L28.2245 25.2225L28.2294 25.2141L27.6731 24.8882ZM28.3051 23.4784L28.9186 23.6768L28.9221 23.6654L28.3051 23.4784ZM28.579 21.4092L29.2234 21.3892L27.9342 21.4092H28.579ZM28.579 21.5313L27.9343 21.5371L29.2237 21.5313H28.579ZM28.0909 19.2185L27.4972 19.47L27.4989 19.474L28.0909 19.2185ZM28.0639 19.1549L27.4648 19.3935L27.4703 19.4064L28.0639 19.1549ZM26.7459 17.1672L26.2877 17.6208L26.2934 17.6265L26.7459 17.1672ZM36.6684 6.64382C36.0662 6.0367 35.4294 5.46559 34.7616 4.93333L33.9579 5.94172C34.5866 6.44278 35.1861 6.98041 35.753 7.55191L36.6684 6.64382ZM41.2763 13.6082C40.2079 11.0037 38.6438 8.63704 36.6687 6.64402L35.7528 7.5517C37.6082 9.42388 39.0785 11.6482 40.0833 14.0976L41.2763 13.6082ZM42.8947 21.8242C42.8947 19.0048 42.3448 16.2128 41.2763 13.6082L40.0833 14.0976C41.088 16.5467 41.6053 19.1723 41.6053 21.8242H42.8947ZM41.2763 30.0404C42.3448 27.4356 42.8947 24.6437 42.8947 21.8242H41.6053C41.6053 24.4761 41.088 27.1018 40.0833 29.551L41.2763 30.0404ZM36.6665 37.0043C38.6414 35.0116 40.2078 32.6449 41.2763 30.0404L40.0833 29.5509C39.0786 31.9999 37.6062 34.2243 35.7506 36.0966L36.6665 37.0043ZM35.2001 38.365C35.7848 37.8568 36.2553 37.4295 36.672 36.9987L35.745 36.1023C35.3677 36.4924 34.9307 36.8907 34.3542 37.3917L35.2001 38.365ZM35.1875 38.377L35.2148 38.3518L34.3395 37.4049L34.3122 37.4301L35.1875 38.377ZM32.76 40.1211C33.5967 39.6023 34.3984 39.0278 35.1595 38.4014L34.3402 37.4057C33.6233 37.9956 32.8683 38.5367 32.0805 39.0251L32.76 40.1211ZM32.6387 40.2009C32.6966 40.1671 32.754 40.1292 32.81 40.0867L32.0306 39.0595C32.0184 39.0687 32.0045 39.078 31.9883 39.0875L32.6387 40.2009ZM30.8535 41.1745C31.5166 40.8487 32.1043 40.5294 32.651 40.1935L31.976 39.0949C31.4704 39.4055 30.9193 39.7054 30.2848 40.0172L30.8535 41.1745ZM27.9309 42.3329C28.9388 42.0333 29.9185 41.6448 30.8589 41.1718L30.2795 40.0199C29.407 40.4587 28.4983 40.8191 27.5635 41.0969L27.9309 42.3329ZM27.7336 42.3597H27.7472V41.0702H27.7336V42.3597ZM21.6257 43.3022C23.7639 43.3062 25.8897 42.9782 27.9291 42.3293L27.5381 41.1005C25.6259 41.7089 23.6328 42.0165 21.6281 42.0128L21.6257 43.3022ZM20.0459 42.6409C20.4639 43.0632 21.0324 43.3022 21.6269 43.3022V42.0128C21.3793 42.0128 21.14 41.9133 20.9623 41.7337L20.0459 42.6409ZM19.3943 41.0522C19.3943 41.6465 19.6278 42.2183 20.0457 42.6407L20.9625 41.7339C20.7849 41.5544 20.6838 41.3091 20.6838 41.0522H19.3943ZM20.0456 39.4637C19.6279 39.8862 19.3943 40.4575 19.3943 41.0522H20.6838C20.6838 40.7951 20.7848 40.5501 20.9626 40.3703L20.0456 39.4637ZM21.6269 38.8022C21.0325 38.8022 20.464 39.041 20.0459 39.4634L20.9623 40.3706C21.1399 40.1912 21.3792 40.0917 21.6269 40.0917V38.8022ZM26.6159 38.0279C25.0029 38.5446 23.3204 38.8057 21.6282 38.8022L21.6256 40.0917C23.4522 40.0954 25.2683 39.8136 27.0093 39.256L26.6159 38.0279ZM26.8308 37.9972H26.8126V39.2867H26.8308V37.9972ZM28.8674 37.148C28.1543 37.5049 27.4117 37.7978 26.648 38.0237L27.0137 39.2602C27.8501 39.0128 28.6635 38.692 29.4445 38.3012L28.8674 37.148ZM30.2439 36.4051C29.844 36.6476 29.3989 36.8885 28.8731 37.1452L29.4389 38.3039C29.9927 38.0335 30.473 37.7742 30.9126 37.5077L30.2439 36.4051ZM30.3057 36.3619L30.2149 36.4237L30.9415 37.489L31.0323 37.4271L30.3057 36.3619ZM32.2993 34.9371C31.6768 35.4525 31.0195 35.9229 30.3317 36.345L31.0062 37.444C31.7458 36.9901 32.4526 36.4843 33.1217 35.9302L32.2993 34.9371ZM33.496 33.8351C33.1745 34.1624 32.7921 34.5163 32.2919 34.9433L33.1291 35.924C33.6498 35.4795 34.0614 35.0996 34.4158 34.7388L33.496 33.8351ZM37.1411 28.3304C36.2964 30.3895 35.0583 32.2594 33.498 33.833L34.4137 34.7409C36.0934 33.0468 37.4255 31.0346 38.3341 28.8199L37.1411 28.3304ZM38.4211 21.8345C38.4211 24.0639 37.9861 26.2715 37.1411 28.3304L38.3341 28.8199C39.2428 26.6054 39.7106 24.2316 39.7106 21.8345H38.4211ZM37.1411 15.3385C37.9861 17.3975 38.4211 19.605 38.4211 21.8345H39.7106C39.7106 19.4374 39.2428 17.0635 38.3341 14.849L37.1411 15.3385ZM33.498 9.8359C35.0583 11.4097 36.2964 13.2795 37.1411 15.3385L38.3341 14.849C37.4255 12.6344 36.0934 10.6223 34.4137 8.92805L33.498 9.8359ZM31.9796 8.46871C32.5116 8.89321 33.0182 9.34932 33.4968 9.83469L34.4149 8.92926C33.9005 8.40761 33.3559 7.91724 32.7838 7.46074L31.9796 8.46871ZM31.2656 7.9236C31.506 8.10129 31.7475 8.28502 31.9815 8.47027L32.7818 7.45919C32.5349 7.26375 32.2819 7.07137 32.0322 6.88674L31.2656 7.9236ZM31.1853 7.87315L31.2988 7.94655L31.9991 6.8638L31.8856 6.7904L31.1853 7.87315ZM30.3424 7.31812C30.6167 7.48536 30.8919 7.66506 31.1616 7.85704L31.9093 6.80652C31.612 6.5949 31.3111 6.39847 31.0137 6.21714L30.3424 7.31812ZM30.218 7.23816C30.2276 7.2446 30.3013 7.29698 30.3721 7.33515L30.984 6.20012C30.9912 6.204 30.9929 6.20549 30.9842 6.19974C30.98 6.19693 30.9749 6.19348 30.9669 6.18802C30.9599 6.18326 30.9491 6.17585 30.9384 6.16868L30.218 7.23816ZM27.3896 5.88229C28.3801 6.25716 29.337 6.71748 30.2496 7.25812L30.9069 6.14872C29.9303 5.57019 28.9062 5.07754 27.8461 4.67631L27.3896 5.88229ZM27.5929 5.92404H27.6179V4.63456H27.5929V5.92404ZM26.6983 5.65134C26.9194 5.71479 27.1368 5.78999 27.3504 5.8767L27.8354 4.6819C27.5799 4.5782 27.3194 4.48805 27.0541 4.41191L26.6983 5.65134ZM26.6339 5.63274L26.6974 5.65109L27.0549 4.41216L26.9914 4.39382L26.6339 5.63274ZM21.6272 4.86453C23.3199 4.86369 25.003 5.12122 26.6196 5.62845L27.0056 4.39811C25.264 3.85166 23.4505 3.57416 21.6266 3.57506L21.6272 4.86453ZM20.9033 4.86453H21.6269V3.57506H20.9033V4.86453ZM20.5895 4.88746C20.7252 4.88716 20.8608 4.87731 20.9953 4.85794L20.8113 3.58165C20.737 3.59237 20.6619 3.59783 20.5867 3.59799L20.5895 4.88746ZM20.0091 4.92948L20.633 4.8859L20.5432 3.59956L19.9192 3.64314L20.0091 4.92948ZM19.937 4.93105H19.9641V3.64157H19.937V4.93105ZM19.8836 4.94832C19.9461 4.94054 20.008 4.93018 20.0693 4.91732L19.8047 3.6553C19.7778 3.66093 19.751 3.6654 19.7243 3.66872L19.8836 4.94832ZM19.816 4.95572C19.8386 4.95359 19.8612 4.95111 19.8838 4.9483L19.7241 3.66875C19.7145 3.66995 19.7048 3.67101 19.6951 3.67193L19.816 4.95572ZM19.5422 4.99207L19.8394 4.95308L19.6717 3.67457L19.3745 3.71356L19.5422 4.99207ZM19.4085 4.99755H19.4584V3.70808H19.4085V4.99755ZM18.8549 5.08351C19.0569 5.0429 19.2609 5.01335 19.466 4.99498L19.3509 3.71065C19.0992 3.73321 18.8487 3.76948 18.6008 3.81932L18.8549 5.08351ZM18.765 5.10073L18.849 5.08467L18.6067 3.81816L18.5228 3.83422L18.765 5.10073ZM16.0827 5.80134C16.9504 5.49024 17.8435 5.25665 18.7513 5.1032L18.5364 3.83176C17.5535 3.99789 16.5868 4.25077 15.6475 4.58752L16.0827 5.80134ZM14.0785 6.68105C14.7231 6.3384 15.3918 6.04477 16.0794 5.80253L15.6508 4.58634C14.9025 4.85002 14.1746 5.1696 13.4732 5.54246L14.0785 6.68105ZM13.9187 6.75587C13.975 6.73324 14.03 6.70739 14.0832 6.67851L13.4685 5.545C13.4585 5.55041 13.4483 5.55521 13.438 5.55936L13.9187 6.75587ZM13.8312 6.79592C13.8228 6.80077 13.82 6.80196 13.8269 6.79849C13.8324 6.79573 13.8409 6.79162 13.8526 6.78614C13.8761 6.77516 13.9055 6.76199 13.937 6.74821L13.4197 5.56702C13.3614 5.59256 13.2547 5.6397 13.1853 5.67986L13.8312 6.79592ZM13.7619 6.83307L13.8096 6.80785L13.2069 5.66793L13.1592 5.69315L13.7619 6.83307ZM12.9987 7.27028C13.2773 7.09816 13.5284 6.95232 13.7536 6.83741L13.1675 5.68881C12.8983 5.82618 12.614 5.99222 12.3209 6.17326L12.9987 7.27028ZM11.9173 7.98312C12.2517 7.73877 12.6071 7.50427 12.9904 7.27527L12.3292 6.16827C11.914 6.41625 11.5253 6.67254 11.1566 6.94189L11.9173 7.98312ZM11.6522 8.17412C11.7715 8.09945 11.8799 8.01948 11.9626 7.94674L11.1113 6.97827C11.0897 6.99725 11.0392 7.03653 10.968 7.08112L11.6522 8.17412ZM11.5606 8.24849L11.7035 8.13841L10.9167 7.11683L10.7738 7.2269L11.5606 8.24849ZM11.5235 8.27766L11.5652 8.24492L10.7692 7.23047L10.7274 7.26322L11.5235 8.27766ZM11.3321 8.43145C11.391 8.38158 11.4527 8.33309 11.5231 8.27793L10.7278 7.26295C10.6602 7.31589 10.5793 7.37924 10.4986 7.44755L11.3321 8.43145ZM11.2233 8.51513L11.305 8.45322L10.5258 7.42578L10.4441 7.4877L11.2233 8.51513ZM10.967 8.69876C11.0617 8.63843 11.1527 8.57282 11.2397 8.50229L10.4278 7.50054C10.3785 7.5405 10.3271 7.5775 10.274 7.61138L10.967 8.69876ZM10.6984 8.9404C10.7945 8.84294 10.8976 8.75298 11.0068 8.67124L10.2342 7.63889C10.0733 7.75934 9.92161 7.8917 9.78043 8.0348L10.6984 8.9404ZM10.5774 9.05426C10.6309 9.00926 10.6762 8.96281 10.6977 8.94112L9.78114 8.03409C9.76776 8.0476 9.76044 8.05496 9.75384 8.06134C9.74784 8.06713 9.74607 8.06855 9.74708 8.0677L10.5774 9.05426ZM10.1394 9.45826C10.3004 9.30616 10.445 9.16967 10.5857 9.04718L9.73881 8.07478C9.57489 8.21754 9.41086 8.37265 9.25387 8.52098L10.1394 9.45826ZM9.89068 9.69187C9.97617 9.61258 10.0597 9.53362 10.1395 9.45819L9.25379 8.52105C9.17328 8.59714 9.09414 8.67194 9.01383 8.74642L9.89068 9.69187ZM8.76817 10.9121C9.18091 10.4272 9.55159 10.0201 9.90057 9.68251L9.00394 8.75578C8.61338 9.13367 8.21276 9.57517 7.78621 10.0763L8.76817 10.9121ZM8.66999 11.0422C8.72663 10.978 8.77794 10.9093 8.82342 10.8367L7.73097 10.1517C7.7226 10.165 7.7132 10.1776 7.7029 10.1893L8.66999 11.0422ZM6.49934 14.4651C7.08983 13.2338 7.82387 12.0785 8.68571 11.0237L7.68718 10.2078C6.76041 11.342 5.97131 12.5841 5.33665 13.9076L6.49934 14.4651ZM6.19221 15.1458C6.25824 14.9711 6.34486 14.7799 6.49675 14.4705L5.33924 13.9022C5.18263 14.2212 5.07421 14.4566 4.986 14.69L6.19221 15.1458ZM6.16515 15.2102L6.18103 15.1734L4.99717 14.6623L4.98129 14.6991L6.16515 15.2102ZM5.59945 16.7918C5.80508 16.1523 5.98525 15.6469 6.1693 15.2004L4.97713 14.709C4.77553 15.1981 4.58368 15.7384 4.37189 16.397L5.59945 16.7918ZM4.83648 21.8306C4.83238 20.1195 5.09027 18.4181 5.60095 16.787L4.37038 16.4017C3.8203 18.1587 3.54259 19.991 3.54701 21.8337L4.83648 21.8306ZM4.83648 22.1694V21.8322H3.547V22.1694H4.83648ZM4.83514 22.3692C4.84033 22.2888 4.84033 22.2082 4.83514 22.1278L3.54835 22.2109C3.54996 22.2359 3.54996 22.261 3.54835 22.286L4.83514 22.3692ZM4.83648 41.0614V22.3276H3.547V41.0614H4.83648ZM4.18499 42.65C4.60291 42.2275 4.83648 41.656 4.83648 41.0614H3.547C3.547 41.3185 3.44594 41.5635 3.26828 41.7431L4.18499 42.65ZM2.60385 43.3114C3.1984 43.3114 3.76689 43.0724 4.18489 42.6501L3.26838 41.743C3.09079 41.9224 2.85155 42.022 2.60385 42.022V43.3114ZM1.02274 42.6501C1.44075 43.0724 2.00929 43.3114 2.60385 43.3114V42.022C2.35609 42.022 2.11682 41.9224 1.93925 41.743L1.02274 42.6501ZM0.371185 41.0614C0.371185 41.6559 0.604692 42.2275 1.02264 42.65L1.93935 41.7431C1.76171 41.5635 1.66066 41.3185 1.66066 41.0614H0.371185ZM0.371185 22.3941V41.0614H1.66066V22.3941H0.371185ZM0.355302 21.8276C0.355302 21.9887 0.355056 22.2067 0.373045 22.443L1.6588 22.3451C1.64502 22.1641 1.64478 21.9921 1.64478 21.8276H0.355302ZM1.33078 15.4131C0.680164 17.4881 0.351103 19.6523 0.355303 21.8288L1.64477 21.8263C1.64083 19.7814 1.95 17.7481 2.5612 15.7988L1.33078 15.4131ZM2.03078 13.4834C1.79501 14.0531 1.5783 14.669 1.33424 15.4024L2.55774 15.8095C2.79908 15.0843 3.00431 14.5031 3.22224 13.9765L2.03078 13.4834ZM2.48288 12.4767C2.3519 12.7392 2.181 13.0963 2.02552 13.4965L3.2275 13.9634C3.36237 13.6162 3.51359 13.2991 3.63667 13.0525L2.48288 12.4767ZM5.11121 8.29964C4.07717 9.58823 3.19373 10.993 2.47834 12.486L3.64121 13.0432C4.31404 11.639 5.14479 10.3181 6.11691 9.10668L5.11121 8.29964ZM5.23582 8.1314C5.17911 8.20053 5.12592 8.27255 5.0765 8.34719L6.15162 9.05913C6.17676 9.02116 6.20384 8.98449 6.23274 8.94926L5.23582 8.1314ZM6.78765 6.43971C6.28533 6.92103 5.77855 7.48416 5.24026 8.12605L6.22829 8.95462C6.75158 8.33063 7.22478 7.80673 7.67978 7.37075L6.78765 6.43971ZM6.79344 6.43352L6.7753 6.45186L7.69213 7.3586L7.71027 7.34025L6.79344 6.43352ZM6.9431 6.29113C6.89757 6.33434 6.85305 6.37663 6.80872 6.41857L7.69499 7.3552C7.74026 7.31236 7.78579 7.26912 7.83083 7.22637L6.9431 6.29113ZM7.58837 5.69403C7.36388 5.89137 7.14589 6.09855 6.94299 6.29123L7.83094 7.22626C8.03702 7.03056 8.23703 6.84069 8.43974 6.66249L7.58837 5.69403ZM8.43107 4.98032C8.12294 5.20441 7.83206 5.45159 7.5608 5.71974L8.46731 6.63678C8.69256 6.41412 8.93395 6.20902 9.18949 6.02317L8.43107 4.98032ZM8.46414 4.95727C8.45493 4.96368 8.45212 4.96563 8.44937 4.96749L9.17119 6.036C9.18302 6.02801 9.1948 6.01977 9.20033 6.01593L8.46414 4.95727ZM8.58591 4.88045C8.52789 4.91204 8.47861 4.94718 8.4636 4.95764L9.20086 6.01556C9.20617 6.01186 9.20939 6.00962 9.21233 6.0076C9.21507 6.00572 9.21632 6.00489 9.21665 6.00467C9.21758 6.00407 9.21219 6.00768 9.20252 6.01294L8.58591 4.88045ZM8.52782 4.91487L8.49835 4.9378L9.29008 5.9556L9.31955 5.93267L8.52782 4.91487ZM8.83551 4.67418C8.75993 4.72951 8.6056 4.85411 8.52678 4.91569L9.32059 5.93186C9.44141 5.83748 9.54115 5.75568 9.59715 5.71468L8.83551 4.67418ZM8.98719 4.5575C8.93119 4.60162 8.88338 4.63917 8.83568 4.67406L9.59698 5.71481C9.66614 5.66422 9.73155 5.61264 9.78514 5.57043L8.98719 4.5575ZM9.008 4.54111L8.98731 4.55741L9.78502 5.57052L9.80572 5.55422L9.008 4.54111ZM9.29526 4.34466C9.18992 4.4044 9.08987 4.47327 8.9963 4.55055L9.81742 5.54479C9.85307 5.51535 9.8912 5.48909 9.93137 5.46631L9.29526 4.34466ZM9.2634 4.36325L9.24074 4.3793L9.98589 5.43167L10.0085 5.41563L9.2634 4.36325ZM9.24996 4.37202L9.225 4.39266L10.0469 5.38622L10.0719 5.36558L9.24996 4.37202ZM10.6908 3.42124C10.2077 3.71049 9.73684 4.02075 9.28503 4.34498L10.0368 5.39261C10.4607 5.08847 10.9017 4.79789 11.3532 4.52758L10.6908 3.42124ZM11.6519 2.86498C11.3392 3.03266 11.0078 3.22519 10.683 3.42601L11.361 4.52281C11.6668 4.33377 11.9751 4.15481 12.2613 4.0014L11.6519 2.86498ZM12.1172 2.6387C11.9928 2.69327 11.8271 2.76736 11.643 2.86984L12.2701 3.99654C12.3991 3.92476 12.5192 3.87044 12.6353 3.8195L12.1172 2.6387ZM14.6088 1.56098C13.7402 1.86465 12.8943 2.23116 12.0778 2.65762L12.6747 3.80059C13.4361 3.40296 14.2247 3.06128 15.0344 2.77822L14.6088 1.56098ZM17.9791 0.676483C16.8312 0.873615 15.7022 1.17004 14.6045 1.5625L15.0386 2.7767C16.0662 2.40932 17.123 2.13186 18.1974 1.94735L17.9791 0.676483ZM18.9206 0.533023C18.6474 0.565539 18.3122 0.60505 17.954 0.681314L18.2225 1.94252C18.5151 1.88022 18.7947 1.84658 19.073 1.81346L18.9206 0.533023ZM18.969 0.527242L18.9204 0.533048L19.0732 1.81344L19.1218 1.80763L18.969 0.527242ZM19.2828 0.486722L18.9629 0.528001L19.1279 1.80687L19.4478 1.76559L19.2828 0.486722ZM19.9074 0.424408C19.6711 0.416949 19.4347 0.442911 19.2056 0.501526L19.5251 1.75079C19.6367 1.72224 19.7517 1.70961 19.8667 1.71324L19.9074 0.424408ZM20.3955 0.388822L19.8443 0.425511L19.9299 1.71214L20.4811 1.67545L20.3955 0.388822ZM20.5245 0.387399H20.4383V1.67687H20.5245V0.387399ZM20.551 0.379897C20.5098 0.383548 20.4687 0.388485 20.4277 0.394713L20.6213 1.66956C20.6357 1.66737 20.6502 1.66563 20.6647 1.66435L20.551 0.379897ZM20.6323 0.37436C20.605 0.375655 20.5778 0.377515 20.5508 0.379921L20.665 1.66432C20.6745 1.66348 20.684 1.66283 20.6934 1.66239L20.6323 0.37436ZM21.6383 0.355292C21.3212 0.355292 20.9768 0.355129 20.6269 0.374636L20.6987 1.66211C21.0068 1.64493 21.3156 1.64477 21.6383 1.64477V0.355292ZM27.9221 1.30148C25.8858 0.670681 23.7672 0.351734 21.6373 0.355293L21.6394 1.64476C23.6392 1.64142 25.6284 1.94087 27.5406 2.53321L27.9221 1.30148ZM28.9828 1.66514C28.6311 1.52423 28.2725 1.40151 27.9086 1.29745L27.5541 2.53723C27.8757 2.62918 28.1925 2.73761 28.5032 2.86212L28.9828 1.66514ZM32.6318 3.43308C31.4662 2.73343 30.241 2.14019 28.9708 1.66047L28.5152 2.86678C29.7131 3.31918 30.8686 3.87869 31.9682 4.53869L32.6318 3.43308ZM32.8029 3.54558C32.7387 3.49872 32.6768 3.46084 32.6391 3.43749L31.961 4.53427C32.0048 4.56137 32.0246 4.57393 32.0421 4.5867L32.8029 3.54558ZM33.6001 4.06703C33.3227 3.87621 33.042 3.69165 32.7622 3.5182L32.0827 4.61408C32.3429 4.77546 32.6065 4.94864 32.8691 5.12934L33.6001 4.06703ZM33.7979 4.19561C33.7188 4.13752 33.636 4.08402 33.5495 4.03561L32.9197 5.16077C32.9588 5.1827 32.997 5.20733 33.0343 5.23468L33.7979 4.19561ZM33.8514 4.23556L33.8018 4.19857L33.0303 5.23172L33.0798 5.26872L33.8514 4.23556ZM34.7639 4.93518C34.4488 4.6817 34.139 4.4504 33.8514 4.2356L33.0798 5.26868C33.3698 5.48532 33.6614 5.70316 33.9556 5.93987L34.7639 4.93518ZM11.9812 44.8336C12.4947 45.3521 13.1926 45.6447 13.9218 45.6447V44.3553C13.5388 44.3553 13.1701 44.2016 12.8973 43.9262L11.9812 44.8336ZM11.1804 42.8822C11.1804 43.6127 11.4677 44.3147 11.981 44.8334L12.8975 43.9264C12.6244 43.6504 12.4699 43.2748 12.4699 42.8822H11.1804ZM11.1804 21.6026V42.8822H12.4699V21.6026H11.1804ZM11.2327 20.5184C11.1974 20.8783 11.1799 21.2404 11.1804 21.6035L12.4699 21.6017C12.4694 21.2813 12.4849 20.9618 12.5161 20.6442L11.2327 20.5184ZM11.6837 18.2604C11.4562 18.9998 11.3058 19.7569 11.2326 20.5197L12.5162 20.6429C12.5811 19.9665 12.7144 19.2951 12.9161 18.6395L11.6837 18.2604ZM12.7877 15.8127C12.3316 16.5816 11.9624 17.3998 11.6865 18.2513L12.9132 18.6486C13.1598 17.8877 13.4896 17.1569 13.8967 16.4705L12.7877 15.8127ZM12.8913 15.6431C12.8569 15.6984 12.8228 15.7541 12.7893 15.81L13.8952 16.4732C13.9248 16.4237 13.955 16.3744 13.9855 16.3255L12.8913 15.6431ZM13.7436 14.458C13.4322 14.8336 13.1471 15.2301 12.8903 15.6448L13.9865 16.3238C14.2123 15.9593 14.4627 15.6109 14.7362 15.2811L13.7436 14.458ZM14.4491 13.6803C14.2013 13.9287 13.9653 14.1889 13.7423 14.4596L14.7375 15.2795C14.9345 15.0404 15.1431 14.8104 15.3621 14.5909L14.4491 13.6803ZM14.8903 13.2613C14.7399 13.3966 14.5927 13.5363 14.4491 13.6803L15.3621 14.5909C15.4892 14.4634 15.6195 14.3397 15.7526 14.22L14.8903 13.2613ZM18.0474 11.2417C16.8847 11.7287 15.8156 12.4136 14.886 13.2652L15.757 14.216C16.5775 13.4644 17.5205 12.8604 18.5455 12.4311L18.0474 11.2417ZM22.2968 10.3987C20.8386 10.3912 19.394 10.678 18.0475 11.2417L18.5454 12.4311C19.7325 11.9342 21.0056 11.6816 22.2902 11.6882L22.2968 10.3987ZM22.302 10.3987L22.2953 10.3987L22.2917 11.6882L22.2985 11.6882L22.302 10.3987ZM22.3053 10.3987L22.2985 10.3987L22.302 11.6882L22.3088 11.6882L22.3053 10.3987ZM26.553 11.2417C25.2065 10.678 23.7619 10.3912 22.3037 10.3987L22.3104 11.6882C23.5949 11.6816 24.868 11.9342 26.0551 12.4311L26.553 11.2417ZM29.7146 13.2652C28.7849 12.4136 27.7158 11.7287 26.5531 11.2417L26.055 12.4311C27.0801 12.8604 28.0231 13.4644 28.8436 14.216L29.7146 13.2652ZM30.1514 13.6803C30.0078 13.5363 29.8607 13.3966 29.7103 13.2613L28.8479 14.22C28.981 14.3397 29.1112 14.4634 29.2384 14.5909L30.1514 13.6803ZM30.8581 14.4594C30.6351 14.1887 30.3992 13.9287 30.1514 13.6803L29.2385 14.5909C29.4575 14.8105 29.6658 15.0402 29.8629 15.2793L30.8581 14.4594ZM31.7103 15.645C31.4535 15.2303 31.1682 14.8334 30.8568 14.4578L29.8641 15.2809C30.1377 15.6107 30.3884 15.9595 30.6141 16.324L31.7103 15.645ZM31.8113 15.81C31.7777 15.7541 31.7437 15.6985 31.7093 15.6433L30.6152 16.3257C30.6457 16.3746 30.6757 16.4237 30.7054 16.4732L31.8113 15.81ZM32.914 18.2513C32.6382 17.3998 32.269 16.5816 31.8128 15.8127L30.7038 16.4705C31.1109 17.1569 31.4408 17.8877 31.6873 18.6486L32.914 18.2513ZM33.3679 20.5197C33.2947 19.7569 33.1444 18.9998 32.9169 18.2604L31.6844 18.6395C31.8861 19.2951 32.0194 19.9665 32.0843 20.6429L33.3679 20.5197ZM33.4059 21.0296C33.3972 20.8587 33.3844 20.6882 33.3678 20.5184L32.0845 20.6441C32.0992 20.7942 32.1104 20.9447 32.1181 21.0952L33.4059 21.0296ZM33.4016 21.1432L33.402 21.1402L32.1219 20.9847L32.1216 20.9877L33.4016 21.1432ZM32.9169 24.9568C33.3094 23.681 33.4723 22.3524 33.4055 21.0329L32.1177 21.098C32.1769 22.2683 32.0324 23.4465 31.6844 24.5776L32.9169 24.9568ZM31.8227 27.3944C32.2749 26.628 32.641 25.8132 32.9143 24.965L31.687 24.5695C31.4428 25.3272 31.1158 26.055 30.7121 26.7391L31.8227 27.3944ZM27.7712 31.3668C29.4361 30.4157 30.83 29.0489 31.8203 27.3984L30.7146 26.735C29.8374 28.197 28.6035 29.4062 27.1315 30.2472L27.7712 31.3668ZM22.3137 32.8275C24.2271 32.821 26.1064 32.3179 27.7712 31.3669L27.1315 30.2472C25.6598 31.088 23.9993 31.5323 22.3093 31.538L22.3137 32.8275ZM22.2987 32.8275L22.3099 32.8275L22.3131 31.538L22.3019 31.538L22.2987 32.8275ZM22.2906 32.8275L22.3019 32.8275L22.2987 31.538L22.2874 31.538L22.2906 32.8275ZM16.8293 31.3669C18.4941 32.3179 20.3734 32.821 22.2868 32.8275L22.2912 31.538C20.6012 31.5323 18.9407 31.088 17.469 30.2472L16.8293 31.3669ZM15.6325 30.5768C16.0131 30.8648 16.4127 31.1288 16.8293 31.3668L17.469 30.2472C17.1007 30.0368 16.7473 29.8033 16.4106 29.5485L15.6325 30.5768ZM16.6663 42.8822V30.0627H15.3768V42.8822H16.6663ZM16.4581 43.9381C16.5955 43.6033 16.6663 43.2445 16.6663 42.8822H15.3768C15.3768 43.0767 15.3388 43.2691 15.2652 43.4485L16.4581 43.9381ZM15.8641 44.8347C16.1189 44.5778 16.3204 44.2731 16.458 43.9384L15.2653 43.4482C15.1915 43.6278 15.0837 43.7904 14.9485 43.9267L15.8641 44.8347ZM14.9728 45.4349C15.307 45.2958 15.6097 45.0914 15.8643 44.8345L14.9484 43.9269C14.8129 44.0635 14.6528 44.1713 14.4772 44.2444L14.9728 45.4349ZM13.921 45.6447C14.2822 45.6452 14.6397 45.5738 14.9733 45.4347L14.4768 44.2446C14.301 44.318 14.1127 44.3555 13.9226 44.3553L13.921 45.6447ZM32.129 20.8941C32.1274 20.9265 32.1249 20.9585 32.1213 20.9902L33.4027 21.1346C33.4094 21.075 33.4141 21.0151 33.417 20.9551L32.129 20.8941ZM32.1306 20.8233C32.1306 20.8468 32.1301 20.8704 32.129 20.8941L33.417 20.9551C33.4191 20.9114 33.4201 20.8675 33.4201 20.8233H32.1306ZM33.4201 21.5744V20.8233H32.1306V21.5744H33.4201ZM32.1181 21.0953C32.1262 21.255 32.1304 21.415 32.1306 21.5752L33.4201 21.5735C33.4199 21.3919 33.4151 21.2105 33.4059 21.0295L32.1181 21.0953ZM25.7389 17.1225C25.92 17.2661 26.0924 17.4214 26.2549 17.5876L27.1769 16.6861C26.9764 16.4811 26.7636 16.2894 26.5401 16.1121L25.7389 17.1225ZM25.0506 16.6658C25.2934 16.8025 25.5251 16.9567 25.7442 17.1267L26.5347 16.1079C26.2659 15.8994 25.9815 15.7102 25.6835 15.5423L25.0506 16.6658ZM22.2986 15.9391C23.2618 15.9416 24.2087 16.1914 25.0506 16.6658L25.6835 15.5423C24.6499 14.9599 23.4862 14.6527 22.3019 14.6496L22.2986 15.9391ZM19.55 16.6657C20.3918 16.1914 21.3387 15.9416 22.3019 15.9391L22.2986 14.6496C21.1143 14.6527 19.9507 14.9599 18.917 15.5423L19.55 16.6657ZM18.8562 17.1267C19.0754 16.9567 19.3072 16.8025 19.5499 16.6658L18.917 15.5423C18.619 15.7102 18.3346 15.8994 18.0658 16.1079L18.8562 17.1267ZM18.3456 17.5877C18.5082 17.4214 18.6806 17.2661 18.8616 17.1225L18.0604 16.1121C17.8368 16.2894 17.6241 16.4811 17.4237 16.6861L18.3456 17.5877ZM18.3128 17.6208L18.3428 17.5905L17.4264 16.6833L17.3964 16.7136L18.3128 17.6208ZM17.1356 19.3935C17.4006 18.7283 17.7997 18.1265 18.3071 17.6265L17.4021 16.708C16.767 17.3338 16.2684 18.086 15.9377 18.9162L17.1356 19.3935ZM17.1033 19.47L17.1303 19.4064L15.943 18.9033L15.916 18.9669L17.1033 19.47ZM16.6663 21.633C16.6596 20.8902 16.808 20.1544 17.1016 19.4739L15.9177 18.963C15.5527 19.8088 15.3686 20.7226 15.3769 21.6446L16.6663 21.633ZM16.6663 21.808V21.6388H15.3768V21.808H16.6663ZM16.9125 23.2914C16.7639 22.801 16.6817 22.2953 16.666 21.7881L15.3771 21.828C15.3963 22.4478 15.4967 23.0658 15.6784 23.6654L16.9125 23.2914ZM17.4837 24.5623C17.2464 24.1572 17.0536 23.7274 16.9089 23.28L15.682 23.6768C15.8555 24.2133 16.0867 24.7286 16.3711 25.2141L17.4837 24.5623ZM19.5351 26.5598C18.6928 26.0793 17.9849 25.3891 17.4788 24.554L16.3761 25.2224C16.9952 26.2438 17.8622 27.09 18.8961 27.6799L19.5351 26.5598ZM22.2933 27.3024C21.3268 27.2959 20.3775 27.0404 19.5351 26.5598L18.8961 27.6799C19.93 28.2697 21.0964 28.5838 22.2847 28.5918L22.2933 27.3024ZM22.3019 27.3024L22.2906 27.3023L22.2874 28.5918L22.2987 28.5918L22.3019 27.3024ZM22.3099 27.3023L22.2987 27.3024L22.3019 28.5918L22.3131 28.5918L22.3099 27.3023ZM25.0654 26.5598C24.2231 27.0404 23.2737 27.2959 22.3072 27.3024L22.3158 28.5918C23.5041 28.5838 24.6705 28.2697 25.7044 27.6799L25.0654 26.5598ZM27.1217 24.554C26.6156 25.3891 25.9077 26.0793 25.0654 26.5598L25.7044 27.6799C26.7383 27.09 27.6053 26.2438 28.2245 25.2224L27.1217 24.554ZM27.6916 23.28C27.5469 23.7274 27.3541 24.1572 27.1168 24.5623L28.2294 25.2141C28.5138 24.7286 28.745 24.2133 28.9185 23.6768L27.6916 23.28ZM27.9345 21.4291C27.9539 22.056 27.8717 22.6853 27.688 23.2914L28.9221 23.6654C29.1467 22.9244 29.2471 22.1553 29.2234 21.3892L27.9345 21.4291ZM29.2237 21.5313V21.4092H27.9342V21.5313H29.2237ZM27.4989 19.474C27.7799 20.1251 27.9279 20.8268 27.9343 21.5371L29.2237 21.5255C29.2158 20.6439 29.0321 19.7723 28.6828 18.963L27.4989 19.474ZM27.4703 19.4064L27.4972 19.47L28.6845 18.9669L28.6576 18.9033L27.4703 19.4064ZM26.2934 17.6265C26.8008 18.1265 27.2 18.7283 27.465 19.3935L28.6629 18.9162C28.3321 18.086 27.8335 17.3338 27.1985 16.708L26.2934 17.6265ZM26.2577 17.5905L26.2877 17.6208L27.2041 16.7136L27.1741 16.6833L26.2577 17.5905Z" fill="#0058FF" mask="url(#path-1-outside-1_40_865)"/>
    <path d="M60.9238 35.3755V10.3755H70.7871C72.6833 10.3755 74.2987 10.7376 75.6333 11.4619C76.9679 12.1781 77.9852 13.175 78.6851 14.4526C79.3931 15.7222 79.7471 17.187 79.7471 18.8472C79.7471 20.5073 79.389 21.9722 78.6729 23.2417C77.9567 24.5112 76.9191 25.5 75.5601 26.208C74.2091 26.916 72.5734 27.27 70.6528 27.27H64.3662V23.0342H69.7983C70.8156 23.0342 71.6538 22.8592 72.313 22.5093C72.9803 22.1512 73.4767 21.6589 73.8022 21.0322C74.1359 20.3975 74.3027 19.6691 74.3027 18.8472C74.3027 18.0171 74.1359 17.2928 73.8022 16.6743C73.4767 16.0477 72.9803 15.5635 72.313 15.2217C71.6457 14.8717 70.7993 14.6968 69.7739 14.6968H66.2095V35.3755H60.9238Z" fill="#0058FF"/>
    <path d="M83.0826 35.3755V16.6255H88.2828V35.3755H83.0826ZM85.6949 14.2085C84.9218 14.2085 84.2586 13.9521 83.7052 13.4395C83.16 12.9186 82.8873 12.2961 82.8873 11.5718C82.8873 10.8556 83.16 10.2412 83.7052 9.72852C84.2586 9.20768 84.9218 8.94727 85.6949 8.94727C86.4681 8.94727 87.1272 9.20768 87.6725 9.72852C88.2259 10.2412 88.5026 10.8556 88.5026 11.5718C88.5026 12.2961 88.2259 12.9186 87.6725 13.4395C87.1272 13.9521 86.4681 14.2085 85.6949 14.2085Z" fill="#0058FF"/>
    <path d="M96.7942 16.6255L100.237 23.1807L103.764 16.6255H109.099L103.667 26.0005L109.245 35.3755H103.935L100.237 28.8936L96.5989 35.3755H91.2278L96.7942 26.0005L91.4231 16.6255H96.7942Z" fill="#0058FF"/>
    <path d="M120.061 35.7417C118.132 35.7417 116.472 35.3511 115.08 34.5698C113.697 33.7804 112.631 32.6655 111.882 31.2251C111.133 29.7765 110.759 28.0635 110.759 26.0859C110.759 24.1572 111.133 22.4645 111.882 21.0078C112.631 19.5511 113.685 18.4159 115.044 17.6021C116.411 16.7882 118.014 16.3814 119.853 16.3814C121.09 16.3814 122.242 16.5807 123.308 16.9795C124.382 17.3701 125.318 17.9601 126.115 18.7495C126.921 19.5389 127.548 20.5317 127.995 21.728C128.443 22.9162 128.667 24.3078 128.667 25.9028V27.3311H112.834V24.1084H123.772C123.772 23.3597 123.609 22.6965 123.283 22.1187C122.958 21.5409 122.506 21.0892 121.928 20.7637C121.359 20.43 120.696 20.2632 119.939 20.2632C119.149 20.2632 118.449 20.4463 117.839 20.8125C117.237 21.1706 116.765 21.6548 116.423 22.2651C116.081 22.8674 115.906 23.5387 115.898 24.2793V27.3433C115.898 28.271 116.069 29.0726 116.411 29.748C116.761 30.4235 117.253 30.9443 117.888 31.3106C118.523 31.6768 119.275 31.8599 120.146 31.8599C120.724 31.8599 121.253 31.7785 121.733 31.6157C122.213 31.453 122.624 31.2088 122.966 30.8833C123.308 30.5578 123.568 30.159 123.747 29.687L128.557 30.0044C128.313 31.16 127.812 32.1691 127.055 33.0317C126.307 33.8862 125.338 34.5536 124.15 35.0337C122.97 35.5057 121.607 35.7417 120.061 35.7417Z" fill="#0058FF"/>
    <path d="M137.26 10.3755V35.3755H132.06V10.3755H137.26Z" fill="#0058FF"/>
    <path d="M141.524 35.3755V10.3755H151.387C153.283 10.3755 154.899 10.7376 156.233 11.4619C157.568 12.1781 158.585 13.175 159.285 14.4526C159.993 15.7222 160.347 17.187 160.347 18.8472C160.347 20.5073 159.989 21.9722 159.273 23.2417C158.557 24.5112 157.519 25.5 156.16 26.208C154.809 26.916 153.173 27.27 151.253 27.27H144.966V23.0342H150.398C151.416 23.0342 152.254 22.8592 152.913 22.5093C153.58 22.1512 154.077 21.6589 154.402 21.0322C154.736 20.3975 154.903 19.6691 154.903 18.8472C154.903 18.0171 154.736 17.2928 154.402 16.6743C154.077 16.0477 153.58 15.5635 152.913 15.2217C152.246 14.8717 151.399 14.6968 150.374 14.6968H146.809V35.3755H141.524Z" fill="#0058FF"/>
    <path d="M163.683 35.3755V16.6255H168.724V19.897H168.919C169.261 18.7332 169.835 17.8543 170.641 17.2603C171.446 16.658 172.374 16.3569 173.424 16.3569C173.684 16.3569 173.965 16.3732 174.266 16.4058C174.567 16.4383 174.832 16.4831 175.06 16.54V21.1543C174.815 21.0811 174.478 21.016 174.046 20.959C173.615 20.902 173.22 20.8735 172.862 20.8735C172.097 20.8735 171.414 21.0404 170.812 21.374C170.217 21.6995 169.745 22.1553 169.396 22.7412C169.054 23.3272 168.883 24.0026 168.883 24.7676V35.3755H163.683Z" fill="#0058FF"/>
    <path d="M185.347 35.7417C183.451 35.7417 181.811 35.3389 180.428 34.5332C179.052 33.7194 177.99 32.5882 177.242 31.1397C176.493 29.6829 176.119 27.9943 176.119 26.0737C176.119 24.1369 176.493 22.4442 177.242 20.9956C177.99 19.5389 179.052 18.4077 180.428 17.6021C181.811 16.7882 183.451 16.3814 185.347 16.3814C187.243 16.3814 188.879 16.7882 190.254 17.6021C191.638 18.4077 192.704 19.5389 193.453 20.9956C194.201 22.4442 194.576 24.1369 194.576 26.0737C194.576 27.9943 194.201 29.6829 193.453 31.1397C192.704 32.5882 191.638 33.7194 190.254 34.5332C188.879 35.3389 187.243 35.7417 185.347 35.7417ZM185.371 31.7134C186.234 31.7134 186.954 31.4692 187.532 30.981C188.11 30.4845 188.545 29.8091 188.838 28.9546C189.139 28.1001 189.29 27.1276 189.29 26.0371C189.29 24.9466 189.139 23.9741 188.838 23.1196C188.545 22.2651 188.11 21.5897 187.532 21.0933C186.954 20.5968 186.234 20.3486 185.371 20.3486C184.501 20.3486 183.768 20.5968 183.174 21.0933C182.588 21.5897 182.145 22.2651 181.844 23.1196C181.551 23.9741 181.404 24.9466 181.404 26.0371C181.404 27.1276 181.551 28.1001 181.844 28.9546C182.145 29.8091 182.588 30.4845 183.174 30.981C183.768 31.4692 184.501 31.7134 185.371 31.7134Z" fill="#0058FF"/>
  </svg>