<svg xmlns="http://www.w3.org/2000/svg" width="20" height="20" viewBox="0 0 20 20" fill="none">
    <path d="M4.21249 2.70486C4.15761 2.64299 4.09099 2.59263 4.01649 2.5567C3.942 2.52077 3.86112 2.49997 3.77853 2.49553C3.69594 2.49109 3.61329 2.50308 3.53537 2.53081C3.45746 2.55855 3.38582 2.60147 3.32461 2.6571C3.2634 2.71272 3.21384 2.77994 3.17881 2.85486C3.14377 2.92978 3.12395 3.0109 3.1205 3.09354C3.11705 3.17617 3.13003 3.25867 3.15869 3.33625C3.18736 3.41383 3.23114 3.48495 3.28749 3.54549L4.79062 5.19939C1.95312 6.9408 0.732805 9.62518 0.678899 9.74705C0.643362 9.82698 0.625 9.91348 0.625 10.001C0.625 10.0884 0.643362 10.1749 0.678899 10.2549C0.706243 10.3166 1.36796 11.7838 2.83906 13.2549C4.79921 15.2142 7.27499 16.2502 9.99999 16.2502C11.4005 16.2582 12.7868 15.9698 14.068 15.4041L15.7867 17.2955C15.8416 17.3574 15.9082 17.4077 15.9827 17.4437C16.0572 17.4796 16.1381 17.5004 16.2207 17.5048C16.3033 17.5093 16.3859 17.4973 16.4638 17.4695C16.5417 17.4418 16.6134 17.3989 16.6746 17.3433C16.7358 17.2876 16.7854 17.2204 16.8204 17.1455C16.8554 17.0706 16.8753 16.9894 16.8787 16.9068C16.8822 16.8242 16.8692 16.7417 16.8405 16.6641C16.8118 16.5865 16.7681 16.5154 16.7117 16.4549L4.21249 2.70486ZM7.91015 8.62986L11.1656 12.2119C10.6754 12.4698 10.1134 12.5576 9.56783 12.4615C9.02229 12.3653 8.52413 12.0907 8.15157 11.6808C7.77901 11.2709 7.55315 10.7488 7.50945 10.1966C7.46575 9.64438 7.6067 9.09329 7.91015 8.62986ZM9.99999 15.0002C7.59531 15.0002 5.49452 14.126 3.75546 12.4025C3.04165 11.6931 2.43454 10.8839 1.95312 10.0002C2.31952 9.31346 3.48905 7.39158 5.65234 6.14236L7.05859 7.68533C6.51416 8.3826 6.23377 9.24989 6.26697 10.1339C6.30017 11.0179 6.64483 11.8617 7.24002 12.5162C7.83521 13.1707 8.64262 13.5936 9.51952 13.7104C10.3964 13.8271 11.2864 13.6301 12.032 13.1541L13.1828 14.4197C12.1672 14.8094 11.0878 15.0062 9.99999 15.0002ZM10.4687 7.54471C10.3059 7.51363 10.162 7.41912 10.0689 7.28199C9.97568 7.14485 9.94079 6.97632 9.97187 6.81346C10.0029 6.6506 10.0975 6.50675 10.2346 6.41357C10.3717 6.32039 10.5403 6.2855 10.7031 6.31658C11.4997 6.47101 12.225 6.87881 12.7708 7.47915C13.3167 8.07949 13.6539 8.84021 13.732 9.64783C13.7475 9.81287 13.6967 9.97727 13.5909 10.1049C13.4851 10.2325 13.333 10.3129 13.168 10.3283C13.1484 10.3294 13.1289 10.3294 13.1094 10.3283C12.9532 10.329 12.8024 10.2711 12.6867 10.1661C12.571 10.0612 12.4988 9.91666 12.4844 9.76111C12.4318 9.22392 12.2072 8.71805 11.844 8.31873C11.4809 7.9194 10.9985 7.64794 10.4687 7.54471ZM19.3187 10.2549C19.2859 10.3283 18.4945 12.0806 16.7125 13.6767C16.6516 13.733 16.5801 13.7766 16.5022 13.805C16.4243 13.8334 16.3415 13.846 16.2587 13.842C16.1759 13.8381 16.0947 13.8178 16.0198 13.7821C15.9449 13.7465 15.8779 13.6964 15.8226 13.6346C15.7673 13.5728 15.7249 13.5007 15.6977 13.4223C15.6706 13.344 15.6593 13.261 15.6645 13.1783C15.6698 13.0955 15.6914 13.0146 15.7282 12.9403C15.765 12.866 15.8163 12.7998 15.8789 12.7455C16.7532 11.96 17.4876 11.0317 18.0508 10.0002C17.5683 9.11563 16.9599 8.30587 16.2445 7.59627C14.5055 5.87439 12.4047 5.00018 9.99999 5.00018C9.49332 4.99956 8.98745 5.04058 8.48749 5.12283C8.40619 5.13721 8.32285 5.13534 8.24227 5.11732C8.1617 5.0993 8.08549 5.0655 8.01806 5.01787C7.95062 4.97023 7.89329 4.9097 7.84938 4.83979C7.80547 4.76987 7.77584 4.69194 7.76222 4.61051C7.7486 4.52908 7.75124 4.44575 7.77001 4.36535C7.78877 4.28495 7.82328 4.20906 7.87153 4.14207C7.91979 4.07507 7.98085 4.01831 8.05117 3.97505C8.12149 3.93179 8.19969 3.90289 8.28124 3.89002C8.84934 3.79622 9.42421 3.74944 9.99999 3.75017C12.725 3.75017 15.2008 4.78611 17.1609 6.74627C18.632 8.21736 19.2937 9.68533 19.3211 9.74705C19.3566 9.82698 19.375 9.91348 19.375 10.001C19.375 10.0884 19.3566 10.1749 19.3211 10.2549H19.3187Z" fill="#5D5D5D"/>
  </svg>