<svg xmlns="http://www.w3.org/2000/svg" width="70" height="70" viewBox="0 0 70 70" fill="none">
    <path d="M17.3511 24.8913C15.6234 25.4869 14.4468 26.4847 14.4468 27.3633C14.4468 28.4058 15.5787 28.6887 16.5021 27.8845C17.1574 27.3038 18.0213 26.9166 18.9447 26.7825C19.3319 26.723 19.7489 26.5592 19.8979 26.3953C20.2404 26.023 20.2255 25.3082 19.883 24.921C19.5404 24.5338 18.4085 24.519 17.3511 24.8913Z" fill="white"/>
    <path d="M22.266 28.2122C21.6107 27.3782 21.566 26.723 22.1319 26.2762C22.683 25.8444 22.9958 25.889 23.6809 26.4996C24.4256 27.1846 25.1256 28.5845 25.3341 29.8056C25.5575 31.2502 25.2745 31.7714 24.2766 31.7714C23.5915 31.7714 23.2341 31.3842 23.2341 30.6396C23.2341 29.9397 22.8468 28.9568 22.266 28.2122Z" fill="white"/>
    <path d="M13.3893 30.2971C12.6893 30.997 13.3595 33.4542 14.6255 34.8242C15.251 35.5093 15.4595 35.6433 15.8766 35.6433C17.0234 35.6433 17.3361 34.5413 16.4574 33.5733C15.8617 32.9181 15.4149 31.9799 15.2659 31.0566C15.1021 30.029 14.0744 29.612 13.3893 30.2971Z" fill="white"/>
    <path d="M21.8935 33.6327C22.1021 33.4093 22.4744 33.1264 22.7127 33.0221C23.2489 32.7987 23.651 32.8732 24.0233 33.2902C24.5148 33.871 24.2467 34.6751 23.2489 35.4644C21.834 36.5962 19.5552 37.1919 18.9148 36.6111C18.5276 36.2686 18.5276 35.4346 18.885 35.0772C19.0489 34.9134 19.451 34.7496 19.7935 34.69C20.5978 34.5709 21.4169 34.1539 21.8935 33.6327Z" fill="white"/>
    <path fill-rule="evenodd" clip-rule="evenodd" d="M32.2894 8.56968C32.1553 8.67392 30.4872 11.4438 28.5809 14.7201C26.6745 17.9963 25.066 20.7364 25.0064 20.8109C24.9319 20.8853 24.5149 20.7811 23.9936 20.5428C22.2809 19.7833 20.866 19.5153 18.7809 19.5897C17.1723 19.6493 16.7106 19.7238 15.5936 20.111C13.8064 20.7364 12.7936 21.3768 11.3787 22.7617C10.0085 24.1169 9.14468 25.4721 8.54894 27.2293C7.96809 28.927 7.86383 31.6224 8.32553 33.4244C8.95106 35.9709 10.5298 38.3089 12.6894 39.8875L13.5234 40.513L10.2617 46.1123C7.98298 50.014 7 51.8457 7 52.1585C7 52.4563 7.11915 52.6946 7.38723 52.9031C7.78936 53.2158 7.86383 53.2158 20.5532 53.2158C32.8106 53.2158 33.3468 53.2009 33.6745 52.9329C34.1511 52.5457 34.1511 51.6521 33.6745 51.265C33.3468 50.9969 32.8404 50.982 21.6702 50.982H10.0085L12.7638 46.2464C13.1813 45.5343 13.5785 44.8559 13.9357 44.2459L13.9375 44.243C14.8792 42.6348 15.5422 41.5025 15.5638 41.4809C15.5787 41.466 16.0255 41.5405 16.5468 41.6596C18.0809 42.0022 19.3468 42.0766 20.6574 41.8979C25.7957 41.198 29.6085 37.4303 30.383 32.2628C30.8596 29.1653 29.7426 25.5316 27.6128 23.2978L26.7043 22.3448L29.8319 16.9985C31.5447 14.0499 32.9745 11.6821 33.0043 11.697C33.034 11.7268 36.3404 17.3857 40.3468 24.2509L47.6447 36.7602L42.8638 36.8049C38.6638 36.8346 38.0383 36.8644 37.8 37.0878C37.5468 37.3112 37.5319 37.9366 37.5319 49.5673C37.5319 61.2426 37.5468 61.8234 37.8 62.0467C38.0532 62.285 39.1255 62.2999 50.2362 62.2999C62.2106 62.2999 62.4043 62.2999 62.7021 62.0021C63 61.7042 63 61.5106 63 49.5971C63 38.8897 62.9702 37.4601 62.7617 37.1623L62.5383 36.8346H50.2511L42.0894 22.8213C37.5915 15.1221 33.8234 8.7186 33.7043 8.59946C33.4362 8.3463 32.617 8.33141 32.2894 8.56968ZM21.9681 22.1512C24.917 23.0894 27.2255 25.5614 28 28.5845C28.566 30.7587 28.3574 32.5309 27.3149 34.7051C25.9149 37.6388 23.0851 39.545 19.7936 39.7684C15.7426 40.0364 11.9149 37.4154 10.6191 33.4839C10.1277 31.965 10.0681 29.8056 10.4851 28.4207C11.7064 24.3254 15.534 21.4959 19.5851 21.7044C20.2851 21.7491 21.2681 21.9278 21.9681 22.1512ZM60.9149 60.215H39.617V38.9195H60.9149V60.215Z" fill="white"/>
    <path d="M50.9809 11.7863C50.534 11.8608 50.0426 12.5012 50.0426 13.0373C50.0426 13.6032 50.6383 14.1988 51.2043 14.1988C51.8745 14.1988 52.4255 13.6925 52.4255 13.0671C52.4255 12.7692 52.366 12.4118 52.2766 12.2629C52.1128 11.9502 51.4574 11.7119 50.9809 11.7863Z" fill="white"/>
    <path fill-rule="evenodd" clip-rule="evenodd" d="M54.1086 18.9494C54.7043 17.6985 55.3299 17.1177 56.4767 16.7007C58.0703 16.1348 60.0809 16.6709 61.0788 17.9367C62.3745 19.5748 62.2256 22.1214 60.766 23.551C59.932 24.3403 59.0533 24.6828 57.8618 24.6828C56.6405 24.6679 55.9852 24.4296 55.1065 23.6404C54.2426 22.8511 53.8852 22.0767 53.7958 20.8109C53.7362 19.8876 53.7809 19.6344 54.1086 18.9494ZM59.7979 20.8853C59.932 20.3046 59.4256 19.2621 58.8448 18.9196C58.383 18.6515 57.6235 18.6069 57.1022 18.8154C56.9384 18.8749 56.6107 19.143 56.4022 19.411C55.4043 20.5875 56.3128 22.5384 57.8618 22.5384C58.6958 22.5384 59.6043 21.764 59.7979 20.8853Z" fill="white"/>
  </svg>