<svg xmlns="http://www.w3.org/2000/svg" width="70" height="70" viewBox="0 0 70 70" fill="none">
    <path fill-rule="evenodd" clip-rule="evenodd" d="M37.8333 20.9234C37.8333 9.27555 37.8333 9.06077 38.1667 8.73034C38.5 8.3999 38.7167 8.3999 50.3333 8.3999H62.1833L62.5833 8.81295L63 9.20947V20.8408C63 32.3564 63 32.4886 62.65 32.9182L62.3167 33.3477H50.3833C39.5 33.3477 38.4167 33.3312 38.1333 33.0669C37.85 32.819 37.8333 32.2243 37.8333 20.9234ZM60.5 31.0347V10.8782H40.1667V31.0347H60.5Z" fill="white"/>
    <path d="M14.0667 9.80423C14.4667 9.4077 16.1667 8.81292 17.6167 8.5651C19.0167 8.33379 19.6 8.38336 20.0667 8.74683C20.3834 8.99466 20.5 9.24249 20.5 9.63901C20.5 10.4486 19.95 10.8121 18.55 10.9277C17.9334 10.9773 16.8834 11.2086 16.2334 11.4399C14.7667 11.9686 14.5834 11.9686 14.0834 11.4564C13.55 10.9442 13.55 10.3164 14.0667 9.80423Z" fill="white"/>
    <path d="M22.8668 9.63914C22.1668 10.4983 22.5168 11.1426 24.0834 11.8861C24.6668 12.167 25.5668 12.7617 26.1168 13.2078C27.2501 14.1496 27.8001 14.2322 28.4501 13.5878C29.0668 12.9765 28.8834 12.3157 27.8834 11.4235C26.7501 10.4322 24.8001 9.35827 23.9334 9.27566C23.3001 9.19305 23.1834 9.24261 22.8668 9.63914Z" fill="white"/>
    <path d="M7.66667 17.1564C7.66667 16.2808 9.65 12.9103 10.5333 12.2825C11.0667 11.919 11.6167 11.9686 12.0833 12.4477C12.6833 13.026 12.6 13.4721 11.65 14.7608C11.1667 15.4051 10.6 16.3303 10.3833 16.826C9.85 17.999 9.55 18.3129 8.96667 18.3129C8.4 18.3129 7.66667 17.6686 7.66667 17.1564Z" fill="white"/>
    <path d="M29.3001 15.6198C28.8667 16.132 28.8334 16.4954 29.1667 17.4537C29.5334 18.5276 29.8334 20.0972 29.8334 20.9067C29.8334 21.9807 31.0834 22.5259 31.8501 21.7659C32.1834 21.4354 32.2001 21.2867 32.1334 19.8989C32.0334 18.2137 31.4834 16.1485 30.9834 15.6528C30.5834 15.2563 29.6334 15.2398 29.3001 15.6198Z" fill="white"/>
    <path d="M7.11664 21.9644C7.0833 21.0557 7.1333 20.8905 7.4833 20.6096C7.96664 20.2131 8.51664 20.2131 8.99997 20.5931C9.26664 20.8079 9.41664 21.2209 9.59997 22.2618C9.7333 23.0218 10.0333 24.1122 10.25 24.6739C10.75 25.9131 10.7666 26.0783 10.3166 26.64C9.89997 27.1522 9.0333 27.2348 8.6333 26.7722C7.9333 25.9792 7.1833 23.6 7.11664 21.9644Z" fill="white"/>
    <path d="M29.8001 23.1043C29.6501 23.2035 29.4334 23.5504 29.3167 23.8974C29.0334 24.7565 28.4001 25.9956 27.7167 26.9704C27.2834 27.5982 27.1667 27.8956 27.2501 28.2096C27.5167 29.2835 28.6667 29.5809 29.4334 28.7713C30.5001 27.6148 31.9501 24.5582 31.7667 23.8313C31.7167 23.6165 31.5501 23.3356 31.4001 23.2035C31.1167 22.9061 30.2334 22.8565 29.8001 23.1043Z" fill="white"/>
    <path d="M11.4666 30.4069C10.9 29.8782 10.8333 29.0521 11.3333 28.5564C11.8333 28.0608 12.4666 28.1434 13.5333 28.9034C14.0666 29.2669 15.0666 29.8286 15.75 30.1425C17.0333 30.7208 17.3333 31.0347 17.3333 31.7616C17.3333 32.2408 16.6333 32.8521 16.1 32.8521C15.25 32.8356 12.6 31.4477 11.4666 30.4069Z" fill="white"/>
    <path d="M23.5833 30.1262C23.1333 30.3409 22.2666 30.6053 21.6666 30.7209C20.1 31.0018 19.7166 31.167 19.5 31.6957C19.2333 32.307 19.5666 33.034 20.2166 33.2488C21.1833 33.5957 25.35 32.3731 25.9666 31.5801C26.2666 31.167 26.2166 30.4235 25.8333 30.0435C25.4 29.614 24.6333 29.6305 23.5833 30.1262Z" fill="white"/>
    <path fill-rule="evenodd" clip-rule="evenodd" d="M7 49.159C7 37.6434 7 37.5112 7.35 37.0816L7.68333 36.6521H19.6167C30.5 36.6521 31.5833 36.6686 31.8667 36.9329C32.15 37.1808 32.1667 37.7756 32.1667 49.0764C32.1667 60.7243 32.1667 60.939 31.8333 61.2695C31.5 61.5999 31.2833 61.5999 19.6667 61.5999H7.81667L7.41667 61.1869L7 60.7903V49.159ZM29.8333 59.1216V38.9651H9.5V59.1216H29.8333Z" fill="white"/>
    <path fill-rule="evenodd" clip-rule="evenodd" d="M46.7833 46.1521C47.25 45.6399 48.2 44.979 48.75 44.7807C49.0333 44.6816 49.7833 44.599 50.4333 44.599C51.3667 44.5825 51.7667 44.6651 52.4667 45.0121C55.15 46.3338 55.8167 49.9355 53.7833 52.1494C52.9 53.0912 52 53.5373 50.7333 53.6364C48.8167 53.7851 47.1 52.8434 46.2167 51.1251C45.4167 49.6216 45.6833 47.3747 46.7833 46.1521ZM52.45 49.3407C52.5667 48.3825 52.1 47.5564 51.2667 47.1599C50.95 47.0112 50.5667 46.8955 50.3833 46.8955C49.5167 46.9286 48.45 47.7877 48.2167 48.6799C48.0667 49.3242 48.45 50.3155 49.0667 50.7781C50.3833 51.7694 52.2667 50.9764 52.45 49.3407Z" fill="white"/>
    <path fill-rule="evenodd" clip-rule="evenodd" d="M47.2833 36.9823C43.1833 38.0067 39.7833 41.1458 38.4 45.1606C38.0166 46.251 37.9333 46.8623 37.8666 48.5971C37.7833 51.0919 38.0166 52.3641 38.9833 54.4128C40.5666 57.7502 43.5666 60.2284 47.1666 61.2032C48.8166 61.6493 52.0166 61.6163 53.7166 61.1371C58.1666 59.8815 61.5333 56.445 62.6166 52.0502C63.0333 50.3484 62.9833 47.4736 62.5166 45.838C61.8833 43.6076 60.9666 42.0545 59.25 40.3693C57.5333 38.6676 56.45 37.9902 54.3833 37.2632C53.1 36.8336 52.65 36.751 50.75 36.718C49 36.6684 48.3333 36.718 47.2833 36.9823ZM52.0833 39.2128C55.9333 39.8902 59.2 42.8971 60.1666 46.6476C60.9833 49.8032 60.1333 53.2563 57.9333 55.751C54.9666 59.105 49.8666 60.0797 45.8833 58.0641C43.0166 56.6102 41.0166 53.9997 40.4 50.9102C39.3166 45.4415 43.3 39.9728 49 39.1467C50.3333 38.9484 50.6 38.9484 52.0833 39.2128Z" fill="white"/>
  </svg>