<svg xmlns="http://www.w3.org/2000/svg" width="70" height="70" viewBox="0 0 70 70" fill="none">
    <path fill-rule="evenodd" clip-rule="evenodd" d="M56.5842 7.13441C54.7753 7.63145 53.5499 9.21027 53.5499 11.023C53.5499 13.2158 55.4463 15.1163 57.6345 15.1163C59.8373 15.1163 61.6316 13.2889 61.6316 11.0376C61.6316 9.40032 60.8584 8.11387 59.4872 7.45602C58.539 7.00284 57.474 6.87127 56.5842 7.13441ZM58.9037 9.73655C59.5018 10.3359 59.6476 11.0376 59.3413 11.7978C58.7578 13.172 56.8176 13.3035 56.0298 12.0025C54.8774 10.1166 57.3428 8.17234 58.9037 9.73655Z" fill="white"/>
    <path d="M13.4623 7.70455C13.0247 8.17235 13.0393 8.97638 13.4769 9.38571C14.2355 10.102 15.4755 9.57575 15.4755 8.55244C15.4755 7.52912 14.148 6.95899 13.4623 7.70455Z" fill="white"/>
    <path d="M44.126 10.1166C43.8488 9.57574 43.9801 8.9179 44.4032 8.6109C44.8262 8.30391 45.5702 8.33315 45.9787 8.66938C46.2413 8.87404 46.3288 9.09332 46.3288 9.56112C46.3288 10.2774 45.9057 10.7306 45.2347 10.7306C44.622 10.7306 44.374 10.5991 44.126 10.1166Z" fill="white"/>
    <path d="M30.5009 11.1693C29.3193 11.3155 29.0859 11.4324 28.8963 11.9002C28.6774 12.4265 28.9109 13.1575 29.3485 13.289C29.509 13.3475 30.6614 13.3036 31.9306 13.2013C34.5126 13.0113 34.7314 12.9089 34.7314 12.0464C34.7314 11.1693 34.4397 11.0231 32.7475 11.0377C31.9597 11.0524 30.9386 11.1108 30.5009 11.1693Z" fill="white"/>
    <path d="M36.8904 13.1135C36.5549 12.8211 36.5403 11.944 36.8758 11.5785C37.1676 11.2569 37.7219 11.2423 39.1369 11.5347C41.0188 11.9294 42.1566 12.3241 42.3171 12.6457C42.5797 13.1281 42.4338 13.8152 41.9962 14.1368L41.6023 14.4292L40.2456 14.0491C39.5016 13.8444 38.4951 13.5959 38.0283 13.5228C37.5469 13.4351 37.0363 13.2597 36.8904 13.1135Z" fill="white"/>
    <path d="M24.2135 12.7626C22.1274 13.6105 21.6022 13.9029 21.4418 14.3561C21.3251 14.6485 21.3396 14.8677 21.5147 15.2186C21.8648 15.9642 22.2733 15.9642 23.8342 15.2917C24.5636 14.9701 25.5556 14.5608 26.0224 14.3853C27.1748 13.9468 27.452 13.3474 26.8393 12.5726C26.4308 12.0463 25.9057 12.0756 24.2135 12.7626Z" fill="white"/>
    <path d="M43.9948 15.087C43.8781 14.6046 44.1407 13.9614 44.5346 13.8006C44.7242 13.7275 44.9576 13.669 45.0597 13.669C45.3369 13.6544 46.3143 14.1807 47.8314 15.1601C49.1152 15.9934 49.4653 16.3735 49.4653 16.9582C49.4653 17.2944 48.7942 17.8938 48.4004 17.8938C48.2107 17.8938 47.4667 17.5137 46.7373 17.0459L46.4688 16.879C45.8016 16.4642 45.0725 16.0109 44.7388 15.818C44.3595 15.5841 44.0386 15.2771 43.9948 15.087Z" fill="white"/>
    <path d="M17.5906 16.5929C15.0669 18.6103 14.6876 19.1658 15.3441 19.9991C15.7817 20.5546 16.409 20.5107 17.153 19.8529C17.2029 19.8097 17.2644 19.7562 17.3353 19.6947C17.7203 19.3604 18.3806 18.787 18.9473 18.3179C20.0122 17.4115 20.1435 17.2361 20.1435 16.7975C20.1435 16.242 19.6037 15.7011 19.0348 15.7011C18.8452 15.7011 18.2179 16.0812 17.5906 16.5929Z" fill="white"/>
    <path d="M51.1575 20.7738C50.2092 19.692 50.0634 19.1657 50.5594 18.6248C50.7344 18.4348 51.0116 18.3324 51.3471 18.3324C51.7993 18.3324 51.9744 18.4494 52.7184 19.2388C54.9649 21.6509 55.388 22.7181 54.3085 23.2882C53.7687 23.566 53.3457 23.3759 52.66 22.5426C52.3099 22.1187 51.6389 21.3293 51.1575 20.7738Z" fill="white"/>
    <path d="M12.7328 21.68C12.0326 22.4255 10.5155 25.13 10.5155 25.627C10.5155 26.4457 11.3616 26.9281 12.1347 26.5188C12.2806 26.4311 12.5578 26.0802 12.7182 25.744C12.8933 25.4078 13.3893 24.5891 13.8123 23.9167C14.7022 22.5425 14.8335 21.87 14.2792 21.4899C13.7686 21.1245 13.1705 21.1976 12.7328 21.68Z" fill="white"/>
    <path fill-rule="evenodd" clip-rule="evenodd" d="M17.3425 32.8927C19.8954 27.9223 24.9137 24.2237 30.4279 23.2443C33.2288 22.7472 37.0217 23.0396 39.735 23.946C41.9086 24.6769 44.4178 26.1096 44.6657 26.7674C44.8554 27.2937 44.5928 27.9077 44.0822 28.1269C43.6154 28.317 43.4695 28.2585 42.0545 27.4252C36.2631 23.9752 29.1588 24.3992 23.7904 28.507C22.6525 29.3695 20.9166 31.2407 20.1288 32.4395C16.4819 37.9654 16.4673 44.997 20.0997 50.4644C20.9166 51.707 22.9735 53.9291 23.8779 54.5577L24.3447 54.8793L23.8488 53.8852C22.3462 50.8591 22.3462 47.0582 23.8779 43.9737C24.8991 41.8978 26.6642 40.1582 28.8232 39.091C30.3112 38.3455 31.3907 38.0677 33.1267 37.9654C36.3069 37.7753 39.1369 38.8571 41.4564 41.1376C43.2361 42.8919 44.3302 45.1286 44.6512 47.6576C44.9283 49.7773 44.4032 52.511 43.382 54.2799L43.0027 54.9231L43.4987 54.5869C44.4469 53.9291 46.4892 51.7216 47.3208 50.4644C48.3419 48.9441 49.0713 47.3068 49.5819 45.4063C49.9174 44.1345 49.9612 43.7398 49.9612 41.43C49.9466 39.1056 49.9174 38.7402 49.5527 37.4099C49.0713 35.6556 48.1377 33.6236 47.1457 32.1763C46.7372 31.5916 46.4017 30.963 46.4017 30.8022C46.4017 30.2759 46.9561 29.735 47.4958 29.735C48.0939 29.735 48.6191 30.3051 49.6256 32.0155C52.3682 36.6789 52.9371 42.2341 51.2157 47.4529C49.1734 53.5782 43.8926 58.227 37.3572 59.645C35.6212 60.0251 31.7992 60.0251 30.0632 59.645C23.5278 58.2416 18.247 53.5782 16.2047 47.4529C15.4753 45.2309 15.2856 44.0468 15.2856 41.5762C15.2711 38.1993 15.8254 35.831 17.3425 32.8927ZM40.3477 43.0819C39.5016 42.1317 37.8094 40.9768 36.6132 40.5529C35.3878 40.129 32.7036 40.012 31.5366 40.3336C28.94 41.0646 26.8685 42.7896 25.7306 45.1578C24.5052 47.7453 24.5344 50.3036 25.8473 52.9642C27.2915 55.9172 30.3404 57.8176 33.6373 57.8176C35.2857 57.8323 36.088 57.6422 37.649 56.882C39.9393 55.771 41.646 53.6221 42.3171 50.9907C42.4776 50.3621 42.6088 49.4996 42.6088 49.0464C42.5943 47.0582 41.6606 44.5731 40.3477 43.0819Z" fill="white"/>
    <path d="M55.1546 24.9107C54.7462 25.32 54.7899 25.9486 55.2859 26.9281C55.5193 27.3812 55.884 28.273 56.1029 28.9016C56.3363 29.5741 56.628 30.1003 56.7885 30.188C57.2553 30.4366 57.9409 30.2904 58.2619 29.8518C58.5244 29.4863 58.539 29.3986 58.3786 28.8285C57.9993 27.5567 56.8614 25.0422 56.5697 24.8376C56.132 24.5306 55.5047 24.5598 55.1546 24.9107Z" fill="white"/>
    <path d="M8.5607 30.5682C8.96917 28.9309 9.23175 28.3315 9.59645 28.2292C10.1508 28.083 10.3988 28.1415 10.7343 28.4923C11.1574 28.9017 11.1865 29.2379 10.8656 30.2466C10.7489 30.6413 10.5301 31.5623 10.3696 32.2932C10.18 33.2434 10.0195 33.6674 9.78609 33.8574C9.33386 34.2229 8.8087 34.179 8.37106 33.7405C7.94801 33.3019 7.9626 32.9657 8.5607 30.5682Z" fill="white"/>
    <path d="M57.6929 32.1911C57.299 32.4542 57.1969 32.9366 57.3428 33.9307C57.4157 34.4716 57.4886 35.4364 57.4886 36.065C57.4886 37.1614 57.6345 37.7169 57.9846 37.9508C58.3202 38.1847 59.0787 38.0678 59.3997 37.7316C59.6914 37.4246 59.706 37.3222 59.6185 35.5826C59.5018 33.3459 59.3413 32.5127 59.0058 32.2641C58.7286 32.0595 57.9555 32.0156 57.6929 32.1911Z" fill="white"/>
    <path d="M7.7 36.635L8.07928 36.2549C8.56069 35.7725 9.11503 35.7725 9.56725 36.2403C9.90278 36.5619 9.93195 36.7081 9.93195 37.8045C9.93195 38.477 10.0049 39.4711 10.0778 40.0412C10.2091 40.9475 10.2091 41.0937 9.96113 41.43C9.77148 41.6639 9.52349 41.8101 9.18797 41.8393C8.16681 41.927 7.97717 41.4592 7.80211 38.4185L7.7 36.635Z" fill="white"/>
    <path d="M57.5762 40.2022C57.4449 40.3191 57.299 40.5969 57.2552 40.8162C57.2115 41.0354 57.0072 41.8687 56.803 42.6727C56.2778 44.734 56.2487 45.0264 56.5258 45.4503C56.8176 45.9035 57.7512 45.962 58.1013 45.5526C58.5536 45.0556 59.4872 41.2693 59.3121 40.6992C59.1663 40.2168 58.8161 39.9683 58.291 39.9683C58.0284 39.9683 57.6929 40.0706 57.5762 40.2022Z" fill="white"/>
    <path d="M8.9108 44.6022C8.9108 44.4853 9.04209 44.2221 9.21714 44.0029C9.43596 43.7251 9.65478 43.6228 10.0049 43.6228C10.6176 43.6228 10.9823 43.9882 11.2303 44.8215C11.3324 45.1431 11.6679 46.0056 11.9889 46.722C12.6307 48.1984 12.6891 48.6078 12.266 49.0317C11.6533 49.6457 10.8218 49.3533 10.3112 48.33C9.88819 47.4967 8.9108 44.88 8.9108 44.6022Z" fill="white"/>
    <path d="M55.3588 47.4384C55.1983 47.5262 54.8482 47.994 54.571 48.4764C54.3084 48.9734 53.7833 49.8067 53.4186 50.333C52.66 51.4586 52.5579 52.1164 53.0976 52.555C53.9292 53.2275 54.6148 52.7012 56.0298 50.3037C56.9634 48.7395 57.1093 48.0963 56.6571 47.6723C56.307 47.3654 55.7235 47.263 55.3588 47.4384Z" fill="white"/>
    <path d="M12.4994 51.8824C12.3827 51.4 12.6307 50.8006 13.0246 50.6398L13.0513 50.6297C13.2545 50.5524 13.3519 50.5153 13.4507 50.5111C13.5417 50.5072 13.6338 50.5312 13.8108 50.5772L13.8269 50.5814C14.002 50.6252 14.6438 51.2684 15.2419 52.014C15.84 52.7449 16.4965 53.5051 16.7007 53.6952C16.9633 53.9437 17.08 54.2068 17.08 54.5577C17.08 55.2448 16.7299 55.6102 16.0735 55.6102C15.6212 55.6102 15.4316 55.4933 14.8772 54.9085C13.8123 53.8121 12.5869 52.2479 12.4994 51.8824Z" fill="white"/>
    <path d="M50.9241 53.6661C50.8074 53.7099 50.4135 54.0169 50.0488 54.3532C49.6841 54.6894 48.9109 55.3473 48.342 55.8004C47.35 56.5898 47.2771 56.6922 47.2771 57.2038C47.2771 58.4172 48.2982 58.5926 49.6111 57.5839C50.9532 56.546 52.1057 55.435 52.2516 55.0403C52.4558 54.514 52.164 53.9146 51.6243 53.7246L51.5945 53.714C51.3602 53.6311 51.1715 53.5644 51.1575 53.5784C51.1485 53.5784 51.106 53.5951 51.0473 53.6183C51.0111 53.6326 50.9686 53.6493 50.9241 53.6661Z" fill="white"/>
    <path d="M18.4367 58.0076C17.8532 57.452 17.8095 56.9111 18.32 56.4141C18.5097 56.2094 18.816 56.0486 18.9911 56.0486C19.1661 56.0486 19.9101 56.4287 20.6395 56.9111C21.3689 57.3789 22.1712 57.876 22.4338 57.9929C23.1195 58.3584 23.3529 58.6508 23.3529 59.2063C23.3529 59.908 22.8861 60.3466 22.2588 60.2442C21.6898 60.1565 19.1224 58.6508 18.4367 58.0076Z" fill="white"/>
    <path d="M44.0677 58.4609C43.8635 58.5778 43.0174 58.9433 42.1713 59.2795C40.552 59.9081 40.2749 60.1128 40.2749 60.7268C40.2749 61.37 40.6542 61.7501 41.2814 61.7501C42.0546 61.7501 45.1181 60.566 45.7162 60.0397C46.0517 59.7181 46.0517 58.7971 45.7016 58.4901C45.3661 58.1831 44.5637 58.1831 44.0677 58.4609Z" fill="white"/>
    <path d="M59.9686 60.4783C59.9686 60.1274 60.0853 59.8204 60.2895 59.6011C60.7272 59.1333 61.4711 59.148 61.938 59.6304C62.6965 60.3759 62.1859 61.6039 61.121 61.6039C60.377 61.6039 59.9686 61.2092 59.9686 60.4783Z" fill="white"/>
    <path d="M25.2055 59.9667C25.0596 60.1129 24.9575 60.4784 24.9575 60.7708C24.9575 61.4871 25.3076 61.7064 27.35 62.218C29.3777 62.7297 30.253 62.7589 30.5593 62.3057C30.8656 61.8672 30.8511 61.224 30.5155 60.8877C30.3697 60.7415 29.8153 60.5369 29.2464 60.4345C28.692 60.3322 27.8168 60.1275 27.2916 59.9667C26.0954 59.6305 25.5119 59.6305 25.2055 59.9667Z" fill="white"/>
    <path d="M34.3959 60.8585C34.9356 60.8438 35.7525 60.8 36.1902 60.7269C38.0429 60.4784 38.5243 60.6538 38.5243 61.5748C38.5243 62.5835 38.2617 62.715 35.6504 62.9197C33.3455 63.0951 32.9517 63.022 32.7037 62.3057C32.5286 61.7941 32.7037 61.2532 33.1121 61.0339C33.2726 60.9462 33.8415 60.8731 34.3959 60.8585Z" fill="white"/>
  </svg>