<svg xmlns="http://www.w3.org/2000/svg" width="70" height="70" viewBox="0 0 70 70" fill="none">
    <path fill-rule="evenodd" clip-rule="evenodd" d="M10.98 9.04458C11.4732 8.22513 12.2802 7.52488 13.1021 7.2418C14.6265 6.70543 16.4049 7.07791 17.5258 8.19534C18.4224 9.08928 18.7662 10.0875 18.6765 11.488C18.5121 13.708 16.8831 15.183 14.5817 15.1979C12.8331 15.1979 11.4582 14.3039 10.7409 12.6799C10.3224 11.7115 10.427 9.98322 10.98 9.04458ZM16.1807 12.2032C16.7337 11.4135 16.4647 9.93852 15.7025 9.52135C13.5953 8.40392 11.6226 10.7282 13.2366 12.4416C14.0885 13.3504 15.4335 13.2312 16.1807 12.2032Z" fill="white"/>
    <path d="M57.7121 9.68524C57.7121 9.23827 58.011 8.687 58.3696 8.52312C58.9226 8.24003 59.3709 8.32943 59.8342 8.7913C60.2078 9.17867 60.2676 9.32766 60.1929 9.72994C60.0584 10.4153 59.6399 10.758 58.9674 10.758C58.534 10.758 58.3099 10.6686 58.0558 10.3557C57.8615 10.1471 57.7121 9.83423 57.7121 9.68524Z" fill="white"/>
    <path d="M50.0304 9.70014C49.5373 10.0875 49.4775 11.0113 49.9408 11.4731C50.1351 11.6668 50.4339 11.7711 50.8225 11.7711C51.9135 11.7711 52.4365 10.5196 51.6594 9.75974C51.2111 9.29787 50.5684 9.28297 50.0304 9.70014Z" fill="white"/>
    <path d="M29.646 15.7938C29.8403 15.7045 30.5277 15.5555 31.1853 15.4363C32.889 15.1383 34.6076 15.1383 34.9065 15.4363C35.31 15.8385 35.3698 16.3749 35.041 16.807C34.787 17.1497 34.5927 17.2242 33.7109 17.3136C33.143 17.3731 32.0521 17.537 31.2899 17.6711C30.0196 17.8946 29.8702 17.8946 29.5414 17.6711C28.839 17.2093 28.9137 16.1067 29.646 15.7938Z" fill="white"/>
    <path d="M37.4621 15.7194C36.6402 16.5239 37.1184 17.3136 38.6577 17.6562C39.2405 17.7754 40.3016 18.0585 41.0189 18.282L42.3341 18.6694L42.7376 18.3714C43.4848 17.8201 43.3653 16.7921 42.4985 16.4345C41.7811 16.1365 38.6577 15.3469 38.1795 15.3469C37.9852 15.3469 37.6564 15.5108 37.4621 15.7194Z" fill="white"/>
    <path d="M21.7851 19.7421C21.9196 19.4143 23.8475 18.133 25.1776 17.4923C26.3134 16.956 26.672 16.9411 27.1204 17.4625C27.7182 18.1628 27.3445 18.8631 26.0294 19.5186C25.6558 19.7123 24.8637 20.1891 24.2659 20.5764C23.6532 20.9936 23.0106 21.3065 22.7864 21.3065C22.0242 21.3065 21.5012 20.4871 21.7851 19.7421Z" fill="white"/>
    <path d="M45.0839 18.5502C44.4114 19.2206 44.6206 19.8464 45.8012 20.6211C46.2197 20.9042 47.0118 21.5151 47.5498 21.9621C48.3269 22.6325 48.6258 22.7964 49.0592 22.7964C49.7317 22.7964 50.0904 22.4239 50.0904 21.7535C50.0904 21.3363 49.9559 21.1277 49.3132 20.5168C48.2223 19.5335 46.2047 18.1777 45.7863 18.1777C45.592 18.1777 45.2782 18.3416 45.0839 18.5502Z" fill="white"/>
    <path d="M16.3153 26.238C16.3153 25.7016 17.6902 23.6009 18.9007 22.3046C19.3491 21.8279 20.0066 21.7683 20.4699 22.1557C21.1574 22.7516 21.0378 23.1241 19.4985 25.1951L19.2547 25.5223C18.2401 26.8848 18.015 27.1871 17.7351 27.2512C17.6552 27.2694 17.5709 27.2683 17.4626 27.2669C17.4311 27.2665 17.3975 27.266 17.3614 27.266C16.7188 27.266 16.3153 26.8787 16.3153 26.238Z" fill="white"/>
    <path d="M51.2709 23.8691C50.8225 24.0181 50.4938 24.6289 50.6283 25.0759C50.6731 25.2398 50.9421 25.7165 51.2111 26.1337C51.4801 26.5509 51.9434 27.3852 52.2423 27.9663C52.855 29.2029 53.3034 29.5754 53.9759 29.4264C54.9174 29.2178 54.9622 28.3388 54.1253 26.7148C52.8102 24.1968 52.1825 23.5562 51.2709 23.8691Z" fill="white"/>
    <path d="M60.0285 30.0969C58.9077 30.0969 58.3547 28.8454 59.1318 28.0856C59.9239 27.281 61.1494 27.7876 61.1494 28.905C61.1494 29.6649 60.7459 30.0969 60.0285 30.0969Z" fill="white"/>
    <path fill-rule="evenodd" clip-rule="evenodd" d="M33.2029 28.5473C30.2438 29.188 27.6584 31.7059 27.0008 34.6112L26.8215 35.386L17.9593 35.4307L9.08214 35.4605L8.72347 35.8031C8.3648 36.116 8.3648 36.1756 8.43952 37.7698C8.70853 42.8355 10.1731 47.2009 12.9976 51.4173C17.3167 57.8239 24.1912 61.9659 32.082 62.8896C33.9202 63.1131 37.8805 62.979 39.6739 62.6512C48.9097 60.9676 56.4717 54.6951 59.8941 45.8898C60.8206 43.491 61.3885 40.7496 61.5529 37.8145C61.6426 36.265 61.6277 36.1905 61.2989 35.8329C60.9551 35.4605 60.8954 35.4605 58.6537 35.4605H56.3671V34.79C56.3671 33.4193 56.0383 31.84 55.6797 31.4824C55.2313 31.0354 54.6485 31.0503 54.2001 31.5122C54.1664 31.5458 54.1354 31.5757 54.1068 31.6032C54.02 31.6867 53.9568 31.7476 53.9152 31.8206C53.804 32.0161 53.8478 32.2991 54.0085 33.3391C54.0217 33.4251 54.0358 33.5163 54.0507 33.613C54.1703 34.4175 54.2749 35.1774 54.2749 35.2668C54.2749 35.4158 53.4081 35.4605 50.464 35.4605C46.8474 35.4605 46.6381 35.4754 46.3542 35.7584C45.9507 36.1607 45.9656 36.9653 46.3691 37.3377C46.668 37.6059 47.0267 37.6208 53.0345 37.6655L59.4009 37.7102L59.2963 38.7829C58.1754 50.5234 48.6706 59.8204 36.8195 60.7739C25.8501 61.6679 15.3739 54.6951 11.8469 44.1764C11.3388 42.6418 10.8456 40.3622 10.6962 38.768L10.5916 37.6953H26.9261V38.0231C26.941 38.6935 27.6584 40.392 28.3309 41.3307C29.9001 43.5208 32.2165 44.6979 34.9962 44.6979C39.4647 44.6979 42.9169 41.4648 43.171 37.0249C43.3204 34.5069 42.5732 32.5849 40.7499 30.7524C38.7324 28.7261 36.0424 27.9364 33.2029 28.5473ZM36.6551 30.7822C38.2841 31.2589 39.7486 32.5253 40.5108 34.1195C40.8545 34.8347 40.8994 35.1327 40.8994 36.5034C40.8994 37.9486 40.8695 38.1423 40.4361 39.0511C39.2853 41.4648 36.5355 42.9547 34.0697 42.463C32.0222 42.0756 30.4232 40.8539 29.5713 39.0809C29.123 38.1423 29.0931 37.9486 29.0931 36.5034C29.0931 35.1178 29.1379 34.8347 29.4816 34.1046C30.7669 31.393 33.8455 29.9627 36.6551 30.7822Z" fill="white"/>
    <path d="M13.715 33.7176C13.7448 32.6895 14.522 29.6948 14.8508 29.2627C15.4187 28.5625 16.7637 28.9648 16.7637 29.8289C16.7637 30.0226 16.5993 30.7377 16.405 31.4529C16.2107 32.1532 16.0015 33.0769 15.9417 33.5239C15.7624 34.835 14.8806 35.4011 14.0587 34.7307C13.7598 34.4923 13.7 34.3135 13.715 33.7176Z" fill="white"/>
  </svg>