<svg xmlns="http://www.w3.org/2000/svg" width="180" height="56" viewBox="0 0 180 56" fill="none">
    <g clip-path="url(#clip0_135_611)">
      <path d="M0 0H180V56H0V0Z" fill="black"/>
      <path d="M27.6 26.8672L13.4667 41.9338C13.8667 43.5338 15.3333 44.7338 17.2 44.7338C17.8667 44.7338 18.5333 44.6005 19.2 44.2005L35.2 35.0005L27.6 26.8672Z" fill="#EA4335"/>
      <path d="M42 24.333L35.0667 20.333L27.3333 27.2664L35.0667 34.9997L41.8667 30.9997C43.0667 30.333 43.8667 29.133 43.8667 27.6664C44 26.1997 43.2 24.9997 42 24.333Z" fill="#FBBC04"/>
      <path d="M13.4667 13.4004C13.3333 13.6671 13.3333 14.0671 13.3333 14.3337V41.0004C13.3333 41.4004 13.3333 41.6671 13.4667 41.9337L28.1333 27.2671L13.4667 13.4004Z" fill="#4285F4"/>
      <path d="M27.7333 27.6663L35.0667 20.3329L19.0667 11.1329C18.5333 10.7329 17.8667 10.5996 17.0667 10.5996C15.3333 10.5996 13.7333 11.7996 13.3333 13.3996L27.7333 27.6663Z" fill="#34A853"/>
      <path d="M63.2 14.6002C63.2 15.6669 62.9333 16.6002 62.2667 17.2669C61.4667 18.0669 60.5333 18.4669 59.3333 18.4669C58.1333 18.4669 57.2 18.0669 56.4 17.2669C55.6 16.4669 55.2 15.5335 55.2 14.3335C55.2 13.1335 55.6 12.2002 56.4 11.4002C57.2 10.6002 58.1333 10.2002 59.3333 10.2002C59.8667 10.2002 60.5333 10.3335 60.9333 10.4669C61.4667 10.7335 61.8667 11.0002 62.2667 11.4002L61.4667 12.2002C61.2 11.9335 60.9333 11.6669 60.5333 11.5335C60.1333 11.4002 59.7333 11.2669 59.3333 11.2669C58.4 11.2669 57.7333 11.5335 57.0667 12.2002C56.5333 12.8669 56.1333 13.5335 56.1333 14.4669C56.1333 15.4002 56.4 16.2002 57.0667 16.7335C57.7333 17.4002 58.4 17.6669 59.3333 17.6669C60.1333 17.6669 60.8 17.4002 61.3333 17.0002C61.8667 16.6002 62.1333 15.9335 62.2667 15.1335H59.3333V14.2002H63.2V14.6002Z" fill="white"/>
      <path d="M69.3333 10.333V11.2664H65.7333V13.7997H69.0667V14.733H65.7333V17.2664H69.3333V18.333H64.6667V10.333H69.3333Z" fill="white"/>
      <path d="M73.7333 11.2664V18.333H72.6667V11.2664H70.4V10.333H76V11.2664H73.7333Z" fill="white"/>
      <path d="M80.9332 18.333H79.8666V10.333H80.9332V18.333Z" fill="white"/>
      <path d="M85.4666 11.2664V18.333H84.3999V11.2664H82.1332V10.333H87.5999V11.2664H85.4666Z" fill="white"/>
      <path d="M99.3333 14.3335C99.3333 15.5335 98.9333 16.4669 98.1333 17.2669C97.3333 18.0669 96.4 18.4669 95.2 18.4669C94 18.4669 93.0667 18.0669 92.2667 17.2669C91.4667 16.4669 91.0667 15.5335 91.0667 14.3335C91.0667 13.1335 91.4667 12.2002 92.2667 11.4002C93.0667 10.6002 94 10.2002 95.2 10.2002C96.4 10.2002 97.3333 10.6002 98.1333 11.4002C98.9333 12.2002 99.3333 13.1335 99.3333 14.3335ZM92.1333 14.3335C92.1333 15.2669 92.4 16.0669 93.0667 16.6002C93.6 17.2669 94.4 17.5335 95.2 17.5335C96.1333 17.5335 96.8 17.2669 97.3333 16.6002C97.8667 16.0669 98.2667 15.2669 98.2667 14.3335C98.2667 13.4002 98 12.6002 97.3333 12.0669C96.8 11.4002 96 11.1335 95.2 11.1335C94.2667 11.1335 93.6 11.4002 93.0667 12.0669C92.4 12.6002 92.1333 13.4002 92.1333 14.3335Z" fill="white"/>
      <path d="M101.733 18.333H100.667V10.333H101.867L105.733 16.5997V10.333H106.8V18.333H105.733L101.6 11.7997V18.333H101.733Z" fill="white"/>
      <path d="M90.8 30.0665C87.6 30.0665 85.0667 32.4665 85.0667 35.7998C85.0667 38.9998 87.6 41.5331 90.8 41.5331C94 41.5331 96.5333 39.1331 96.5333 35.7998C96.5333 32.3331 94 30.0665 90.8 30.0665ZM90.8 39.1331C89.0667 39.1331 87.6 37.6665 87.6 35.6665C87.6 33.6665 89.0667 32.1998 90.8 32.1998C92.5333 32.1998 94 33.5331 94 35.6665C94 37.6665 92.5333 39.1331 90.8 39.1331ZM78.4 30.0665C75.2 30.0665 72.6667 32.4665 72.6667 35.7998C72.6667 38.9998 75.2 41.5331 78.4 41.5331C81.6 41.5331 84.1333 39.1331 84.1333 35.7998C84.1333 32.3331 81.6 30.0665 78.4 30.0665ZM78.4 39.1331C76.6667 39.1331 75.2 37.6665 75.2 35.6665C75.2 33.6665 76.6667 32.1998 78.4 32.1998C80.1333 32.1998 81.6 33.5331 81.6 35.6665C81.6 37.6665 80.1333 39.1331 78.4 39.1331ZM63.6 31.7998V34.1998H69.3333C69.2 35.5331 68.6667 36.5998 68 37.2665C67.2 38.0665 65.8667 38.9998 63.6 38.9998C60 38.9998 57.3333 36.1998 57.3333 32.5998C57.3333 28.9998 60.1333 26.1998 63.6 26.1998C65.4667 26.1998 66.9333 26.9998 68 27.9331L69.7333 26.1998C68.2667 24.8665 66.4 23.7998 63.7333 23.7998C58.9333 23.7998 54.8 27.7998 54.8 32.5998C54.8 37.3998 58.9333 41.3998 63.7333 41.3998C66.4 41.3998 68.2667 40.5998 69.8667 38.8665C71.4667 37.2665 72 34.9998 72 33.2665C72 32.7331 72 32.1998 71.8667 31.7998H63.6ZM124.133 33.6665C123.6 32.3331 122.267 30.0665 119.333 30.0665C116.4 30.0665 114 32.3331 114 35.7998C114 38.9998 116.4 41.5331 119.6 41.5331C122.133 41.5331 123.733 39.9331 124.267 38.9998L122.4 37.6665C121.733 38.5998 120.933 39.2665 119.6 39.2665C118.267 39.2665 117.467 38.7331 116.8 37.5331L124.4 34.3331L124.133 33.6665ZM116.4 35.5331C116.4 33.3998 118.133 32.1998 119.333 32.1998C120.267 32.1998 121.2 32.7331 121.467 33.3998L116.4 35.5331ZM110.133 40.9998H112.667V24.3331H110.133V40.9998ZM106.133 31.2665C105.467 30.5998 104.4 29.9331 103.067 29.9331C100.267 29.9331 97.6 32.4665 97.6 35.6665C97.6 38.8665 100.133 41.2665 103.067 41.2665C104.4 41.2665 105.467 40.5998 106 39.9331H106.133V40.7331C106.133 42.8665 104.933 44.0665 103.067 44.0665C101.6 44.0665 100.533 42.9998 100.267 42.0665L98.1333 42.9998C98.8 44.4665 100.4 46.3331 103.2 46.3331C106.133 46.3331 108.533 44.5998 108.533 40.4665V30.3331H106.133V31.2665ZM103.2 39.1331C101.467 39.1331 100 37.6665 100 35.6665C100 33.6665 101.467 32.1998 103.2 32.1998C104.933 32.1998 106.267 33.6665 106.267 35.6665C106.267 37.6665 104.933 39.1331 103.2 39.1331ZM135.733 24.3331H129.733V40.9998H132.267V34.7331H135.733C138.533 34.7331 141.2 32.7331 141.2 29.5331C141.2 26.3331 138.533 24.3331 135.733 24.3331ZM135.867 32.3331H132.267V26.5998H135.867C137.733 26.5998 138.8 28.1998 138.8 29.3998C138.667 30.8665 137.6 32.3331 135.867 32.3331ZM151.2 29.9331C149.333 29.9331 147.467 30.7331 146.8 32.4665L149.067 33.3998C149.6 32.4665 150.4 32.1998 151.333 32.1998C152.667 32.1998 153.867 32.9998 154 34.3331V34.4665C153.6 34.1998 152.533 33.7998 151.467 33.7998C149.067 33.7998 146.667 35.1331 146.667 37.5331C146.667 39.7998 148.667 41.2665 150.8 41.2665C152.533 41.2665 153.333 40.4665 154 39.6665H154.133V40.9998H156.533V34.5998C156.267 31.6665 154 29.9331 151.2 29.9331ZM150.933 39.1331C150.133 39.1331 148.933 38.7331 148.933 37.6665C148.933 36.3331 150.4 35.9331 151.6 35.9331C152.667 35.9331 153.2 36.1998 153.867 36.4665C153.6 38.0665 152.267 39.1331 150.933 39.1331ZM164.933 30.3331L162.133 37.5331H162L159.067 30.3331H156.4L160.8 40.4665L158.267 46.0665H160.8L167.6 30.3331H164.933ZM142.533 40.9998H145.067V24.3331H142.533V40.9998Z" fill="white"/>
    </g>
    <defs>
      <clipPath id="clip0_135_611">
        <rect width="180" height="56" rx="6" fill="white"/>
      </clipPath>
    </defs>
  </svg>