<svg xmlns="http://www.w3.org/2000/svg" width="46" height="46" viewBox="0 0 46 46" fill="none">
    <path fill-rule="evenodd" clip-rule="evenodd" d="M26.2129 15.8125C26.2129 13.6172 27.9926 11.8375 30.1879 11.8375C32.3832 11.8375 34.1629 13.6172 34.1629 15.8125C34.1629 18.0079 32.3832 19.7875 30.1879 19.7875C27.9926 19.7875 26.2129 18.0079 26.2129 15.8125ZM30.1879 14.0375C29.2076 14.0375 28.4129 14.8322 28.4129 15.8125C28.4129 16.7928 29.2076 17.5875 30.1879 17.5875C31.1682 17.5875 31.9629 16.7928 31.9629 15.8125C31.9629 14.8322 31.1682 14.0375 30.1879 14.0375Z" fill="white"/>
    <path fill-rule="evenodd" clip-rule="evenodd" d="M43.1875 33.0507V11.5C43.1875 8.28984 40.5852 5.6875 37.375 5.6875H8.625C5.41484 5.6875 2.8125 8.28984 2.8125 11.5V31.6254C2.8125 31.6253 2.8125 31.6255 2.8125 31.6254V34.5C2.8125 37.7102 5.41484 40.3125 8.625 40.3125H37.375C40.5852 40.3125 43.1875 37.7102 43.1875 34.5V33.0758C43.1876 33.0674 43.1876 33.0591 43.1875 33.0507ZM8.625 8.6875C7.0717 8.6875 5.8125 9.9467 5.8125 11.5V28.2841L14.23 20.8001C15.064 20.0596 16.1494 19.6657 17.2642 19.6987C18.3786 19.7317 19.4383 20.1889 20.2269 20.977L28.0404 28.7758L30.1446 26.6715L30.1454 26.6707C30.9165 25.8986 31.9485 25.4423 33.0386 25.3917C34.1291 25.3411 35.1992 25.7001 36.0386 26.3981L36.0402 26.3995L40.1875 29.8583V11.5C40.1875 9.9467 38.9283 8.6875 37.375 8.6875H8.625ZM40.1875 33.7646L34.1205 28.7048C33.8567 28.4858 33.52 28.3726 33.1776 28.3885C32.8349 28.4044 32.5104 28.5479 32.2681 28.7907L23.7463 37.3125H37.375C38.9283 37.3125 40.1875 36.0533 40.1875 34.5V33.7646ZM19.5036 37.3125L25.9191 30.8971L18.1067 23.0994C17.8589 22.8516 17.5257 22.7078 17.1753 22.6974C16.8251 22.687 16.4842 22.8107 16.2221 23.0432L5.8125 32.2984V34.5C5.8125 36.0533 7.0717 37.3125 8.625 37.3125H19.5036Z" fill="white"/>
  </svg>