<svg xmlns="http://www.w3.org/2000/svg" width="13" height="12" viewBox="0 0 13 12" fill="none">
    <path d="M8.6875 4.5H8.3125V2.625C8.3125 2.02826 8.07545 1.45597 7.65349 1.03401C7.23153 0.612053 6.65924 0.375 6.0625 0.375C5.46576 0.375 4.89347 0.612053 4.47151 1.03401C4.04955 1.45597 3.8125 2.02826 3.8125 2.625V4.5H3.4375C3.03981 4.50043 2.65853 4.65861 2.37732 4.93982C2.09611 5.22103 1.93793 5.60231 1.9375 6V10.125C1.93793 10.5227 2.09611 10.904 2.37732 11.1852C2.65853 11.4664 3.03981 11.6246 3.4375 11.625H8.6875C9.08519 11.6246 9.46647 11.4664 9.74768 11.1852C10.0289 10.904 10.1871 10.5227 10.1875 10.125V6C10.1871 5.60231 10.0289 5.22103 9.74768 4.93982C9.46647 4.65861 9.08519 4.50043 8.6875 4.5ZM7.5625 4.5H4.5625V2.625C4.5625 2.22718 4.72054 1.84564 5.00184 1.56434C5.28314 1.28304 5.66468 1.125 6.0625 1.125C6.46032 1.125 6.84186 1.28304 7.12316 1.56434C7.40446 1.84564 7.5625 2.22718 7.5625 2.625V4.5Z" fill="white" stroke="white" stroke-width="0.0234375"/>
  </svg>