<svg xmlns="http://www.w3.org/2000/svg" width="135" height="30" viewBox="0 0 135 30" fill="none">
    <path d="M46.2772 28.7473C43.1481 28.7473 40.7074 27.8771 38.9551 26.1365C37.2237 24.3959 36.358 21.9109 36.358 18.6814V6.35059H41.4271V18.4926C41.4271 22.4351 43.0542 24.4064 46.3085 24.4064C47.8939 24.4064 49.1038 23.9346 49.9382 22.9909C50.7727 22.0262 51.1899 20.5268 51.1899 18.4926V6.35059H56.1964V18.6814C56.1964 21.9109 55.3203 24.3959 53.568 26.1365C51.8365 27.8771 49.4063 28.7473 46.2772 28.7473Z" fill="#2E2E2E"/>
    <path d="M58.6711 17.549H67.5264V21.481H58.6711V17.549Z" fill="#2E2E2E"/>
    <path d="M73.5533 10.5028H66.5441V6.35059H85.6316V10.5028H78.6224V28.3699H73.5533V10.5028Z" fill="#2E2E2E"/>
    <path d="M103.043 11.4465V28.3699H98.4122V26.3567C97.7655 27.0906 96.9936 27.6569 96.0966 28.0553C95.1996 28.4328 94.2296 28.6215 93.1866 28.6215C90.9754 28.6215 89.2231 27.9819 87.9297 26.7027C86.6364 25.4235 85.9897 23.5256 85.9897 21.0091V11.4465H90.8711V20.2856C90.8711 23.0118 92.008 24.3749 94.2818 24.3749C95.45 24.3749 96.3887 23.9975 97.0979 23.2425C97.8072 22.4666 98.1618 21.3237 98.1618 19.8138V11.4465H103.043Z" fill="#2E2E2E"/>
    <path d="M110.663 13.6799C111.247 12.862 112.03 12.2434 113.01 11.8239C114.011 11.4045 115.159 11.1948 116.452 11.1948V15.7245C115.91 15.6826 115.545 15.6616 115.357 15.6616C113.959 15.6616 112.864 16.06 112.071 16.8569C111.279 17.6328 110.882 18.8072 110.882 20.38V28.3699H106.001V11.4465H110.663V13.6799Z" fill="#2E2E2E"/>
    <path d="M128.022 11.1948C130.108 11.1948 131.787 11.8239 133.06 13.0822C134.353 14.3404 135 16.2068 135 18.6814V28.3699H130.119V19.4363C130.119 18.0942 129.827 17.0981 129.242 16.448C128.658 15.7769 127.814 15.4414 126.708 15.4414C125.477 15.4414 124.497 15.8294 123.767 16.6053C123.036 17.3602 122.671 18.4926 122.671 20.0025V28.3699H117.79V11.4465H122.452V13.4282C123.099 12.7152 123.902 12.17 124.862 11.7925C125.821 11.394 126.875 11.1948 128.022 11.1948Z" fill="#2E2E2E"/>
    <path fill-rule="evenodd" clip-rule="evenodd" d="M14.5508 0.627628C15.3832 -0.209209 16.7329 -0.209209 17.5653 0.627628L25.3607 8.46422L17.5299 15.9786C16.6783 16.7958 15.329 16.7642 14.5161 15.9082C13.7033 15.0521 13.7347 13.6957 14.5862 12.8785L16.9905 10.5714H11.7948C7.63523 10.5714 4.2632 13.9613 4.2632 18.1429C4.2632 22.3244 7.63524 25.7143 11.7949 25.7143H22.3107C23.488 25.7143 24.4423 26.6737 24.4423 27.8571C24.4423 29.0406 23.488 30 22.3107 30H11.7949C5.28074 30 0 24.6914 0 18.1429C0 11.5943 5.28073 6.28571 11.7948 6.28571H17.1646L14.5508 3.65809C13.7183 2.82125 13.7183 1.46447 14.5508 0.627628Z" fill="#2E2E2E"/>
  </svg>