<svg xmlns="http://www.w3.org/2000/svg" width="124" height="30" viewBox="0 0 124 30" fill="none">
    <path d="M56.1503 22.9395C55.0679 22.9395 54.0608 22.7562 53.1291 22.3896C52.2111 22.0094 51.4027 21.4799 50.7039 20.801C50.0188 20.1222 49.4844 19.3347 49.1008 18.4385C48.7172 17.5288 48.5253 16.5513 48.5253 15.5058C48.5253 14.4603 48.7172 13.4895 49.1008 12.5934C49.4844 11.6837 50.0188 10.8962 50.7039 10.2309C51.389 9.56559 52.1905 9.04964 53.1085 8.68305C54.0402 8.30288 55.0473 8.11279 56.1298 8.11279C57.2807 8.11279 58.3015 8.29609 59.1921 8.66268C59.9564 8.97255 60.6376 9.37941 61.2355 9.88328C61.4162 10.0355 61.4189 10.3066 61.252 10.4735L59.7083 12.0178C59.5387 12.1875 59.262 12.1814 59.0788 12.0264C58.7639 11.76 58.4044 11.5417 58 11.3714C57.4657 11.1406 56.8422 11.0252 56.1298 11.0252C55.4995 11.0252 54.9172 11.1338 54.3828 11.351C53.8621 11.5547 53.41 11.8534 53.0263 12.2472C52.6564 12.6409 52.3618 13.1161 52.1426 13.6728C51.937 14.2295 51.8343 14.8405 51.8343 15.5058C51.8343 16.1847 51.937 16.8024 52.1426 17.3591C52.3618 17.9158 52.6564 18.391 53.0263 18.7848C53.41 19.1785 53.8621 19.484 54.3828 19.7012C54.9172 19.9185 55.4995 20.0271 56.1298 20.0271C56.8696 20.0271 57.5136 19.9117 58.0617 19.6809C58.4713 19.5084 58.8388 19.2865 59.1643 19.0154C59.3459 18.8641 59.6173 18.8599 59.7851 19.0262L61.3457 20.5727C61.5163 20.7417 61.5113 21.0184 61.325 21.1703C60.7079 21.6736 60.0175 22.08 59.2537 22.3896C58.3631 22.7562 57.3286 22.9395 56.1503 22.9395Z" fill="#2E2E2E"/>
    <path d="M44.6961 22.7155C44.4617 22.7155 44.2716 22.5271 44.2716 22.2948V8.75748C44.2716 8.52516 44.4617 8.33682 44.6961 8.33682H47.0738C47.3083 8.33682 47.4983 8.52516 47.4983 8.75748V22.2948C47.4983 22.5271 47.3083 22.7155 47.0738 22.7155H44.6961Z" fill="#2E2E2E"/>
    <path d="M62.4076 22.2948C62.4076 22.5271 62.5976 22.7155 62.8321 22.7155H65.2098C65.2248 22.7155 65.2395 22.7147 65.2541 22.7132C65.2686 22.7147 65.2834 22.7155 65.2984 22.7155H72.4032C72.6376 22.7155 72.8277 22.5271 72.8277 22.2948V20.3663C72.8277 20.134 72.6376 19.9456 72.4032 19.9456H65.6343V16.7074H71.6838C71.9183 16.7074 72.1083 16.5191 72.1083 16.2867V14.4601C72.1083 14.2277 71.9183 14.0394 71.6838 14.0394H65.6343V11.0863H72.3004C72.5349 11.0863 72.7249 10.8979 72.7249 10.6656V8.75748C72.7249 8.52516 72.5349 8.33682 72.3004 8.33682H65.2984C65.2834 8.33682 65.2686 8.33759 65.2541 8.33908C65.2395 8.33759 65.2248 8.33682 65.2098 8.33682H62.8321C62.5976 8.33682 62.4076 8.52516 62.4076 8.75748V22.2948Z" fill="#2E2E2E"/>
    <path fill-rule="evenodd" clip-rule="evenodd" d="M76.9153 22.7155C76.8933 22.7155 76.8716 22.7138 76.8505 22.7106C76.8294 22.7138 76.8077 22.7155 76.7857 22.7155H74.449C74.2146 22.7155 74.0245 22.5271 74.0245 22.2948V8.75748C74.0245 8.52516 74.2146 8.33682 74.449 8.33682H76.7857C76.8077 8.33682 76.8294 8.33849 76.8505 8.3417C76.8716 8.33849 76.8933 8.33682 76.9153 8.33682H80.2519C81.1837 8.33682 81.9715 8.50654 82.6155 8.84598C83.2732 9.18542 83.7733 9.64027 84.1158 10.2105C84.4584 10.7808 84.6296 11.4121 84.6296 12.1046C84.6296 12.9871 84.3419 13.7339 83.7664 14.3449C83.5185 14.6081 83.2197 14.8361 82.8701 15.0287C83.3604 15.2668 83.7757 15.5683 84.1158 15.9335C84.7872 16.6395 85.1229 17.5085 85.1229 18.5404C85.1229 19.3279 84.9242 20.0407 84.5269 20.6788C84.1432 21.3034 83.5815 21.799 82.8416 22.1656C82.1154 22.5322 81.2385 22.7155 80.2108 22.7155H76.9153ZM77.2102 20.2308H79.9026C80.5328 20.2308 81.0261 20.0475 81.3823 19.6809C81.7386 19.3143 81.9167 18.8662 81.9167 18.3367C81.9167 17.9701 81.8345 17.6442 81.6701 17.3591C81.5056 17.074 81.2727 16.85 80.9713 16.687C80.6835 16.5241 80.3273 16.4426 79.9026 16.4426H77.2102V20.2308ZM79.6354 14.019H77.2102V10.8215H79.6354C80.1697 10.8215 80.6013 10.9573 80.9302 11.2288C81.259 11.4868 81.4234 11.8806 81.4234 12.4101C81.4234 12.9532 81.259 13.3605 80.9302 13.6321C80.6013 13.89 80.1697 14.019 79.6354 14.019Z" fill="#2E2E2E"/>
    <path d="M86.1634 22.2948C86.1634 22.5271 86.3534 22.7155 86.5879 22.7155H88.9656C88.9806 22.7155 88.9953 22.7147 89.0099 22.7132C89.0244 22.7147 89.0392 22.7155 89.0542 22.7155H96.159C96.3934 22.7155 96.5835 22.5271 96.5835 22.2948V20.3663C96.5835 20.134 96.3934 19.9456 96.159 19.9456H89.3901V16.7074H95.4396C95.6741 16.7074 95.8641 16.5191 95.8641 16.2867V14.4601C95.8641 14.2277 95.6741 14.0394 95.4396 14.0394H89.3901V11.0863H96.0562C96.2907 11.0863 96.4807 10.8979 96.4807 10.6656V8.75748C96.4807 8.52516 96.2907 8.33682 96.0562 8.33682H89.0542C89.0392 8.33682 89.0244 8.33759 89.0099 8.33908C88.9953 8.33759 88.9806 8.33682 88.9656 8.33682H86.5879C86.3534 8.33682 86.1634 8.52516 86.1634 8.75748V22.2948Z" fill="#2E2E2E"/>
    <path fill-rule="evenodd" clip-rule="evenodd" d="M101.007 22.2948V16.7889H101.431C101.434 16.8675 101.46 16.9469 101.511 17.0175L105.545 22.5414C105.625 22.6507 105.753 22.7155 105.889 22.7155H108.637C108.988 22.7155 109.188 22.3163 108.974 22.0395L104.847 16.6853C105.341 16.5983 105.794 16.4563 106.207 16.2593C106.947 15.9063 107.522 15.4175 107.933 14.793C108.344 14.1548 108.55 13.4148 108.55 12.573C108.55 11.7448 108.344 11.0116 107.933 10.3735C107.522 9.73531 106.954 9.23973 106.227 8.88671C105.501 8.52012 104.659 8.33682 103.699 8.33682H100.671C100.656 8.33682 100.641 8.33759 100.627 8.33908C100.612 8.33759 100.598 8.33682 100.583 8.33682H98.2048C97.9704 8.33682 97.7803 8.52516 97.7803 8.75748V22.2948C97.7803 22.5271 97.9704 22.7155 98.2048 22.7155H100.583C100.817 22.7155 101.007 22.5271 101.007 22.2948ZM103.309 14.4264H101.007V10.8215H103.33C103.973 10.8215 104.467 10.9912 104.809 11.3307C105.152 11.6701 105.323 12.0978 105.323 12.6138C105.323 13.1704 105.145 13.6117 104.789 13.9376C104.446 14.2634 103.953 14.4264 103.309 14.4264Z" fill="#2E2E2E"/>
    <path d="M113.683 22.3692C114.614 22.7494 115.608 22.9395 116.663 22.9395C118.101 22.9395 119.369 22.6408 120.465 22.0434C121.575 21.446 122.438 20.5634 123.055 19.3958C123.685 18.2145 124 16.7617 124 15.0374V14.9896C124 14.7573 123.81 14.5689 123.576 14.5689H116.8C116.565 14.5689 116.375 14.7573 116.375 14.9896V16.8636C116.375 17.0933 116.561 17.2806 116.793 17.2842L120.544 17.3432C120.464 17.6424 120.355 17.9193 120.218 18.1738C119.903 18.7712 119.444 19.2328 118.841 19.5587C118.252 19.871 117.533 20.0271 116.683 20.0271C115.848 20.0271 115.108 19.837 114.464 19.4569C113.82 19.0767 113.313 18.5472 112.943 17.8683C112.573 17.1894 112.388 16.4019 112.388 15.5058C112.388 14.6097 112.573 13.8289 112.943 13.1636C113.326 12.4848 113.854 11.962 114.525 11.5954C115.197 11.2153 115.957 11.0252 116.807 11.0252C117.601 11.0252 118.314 11.1745 118.944 11.4732C119.439 11.7077 119.883 12.0343 120.276 12.4529C120.451 12.6384 120.748 12.6587 120.929 12.4794L122.511 10.9117C122.667 10.7571 122.679 10.5087 122.527 10.3504C121.9 9.69866 121.138 9.17684 120.239 8.78488C119.225 8.33682 118.095 8.11279 116.848 8.11279C115.765 8.11279 114.751 8.30288 113.806 8.68305C112.861 9.04964 112.032 9.57238 111.319 10.2513C110.62 10.9166 110.072 11.6973 109.675 12.5934C109.278 13.4895 109.079 14.4603 109.079 15.5058C109.079 16.5513 109.271 17.5288 109.654 18.4385C110.052 19.3347 110.593 20.1222 111.278 20.801C111.963 21.4663 112.765 21.9891 113.683 22.3692Z" fill="#2E2E2E"/>
    <path d="M1.81789 3.21509C0 5.5058 0 8.8586 0 15.5642C0 22.2698 0 25.6226 1.81789 27.9133C2.23508 28.439 2.71398 28.9136 3.24448 29.327C3.44751 29.4852 3.65882 29.6295 3.87996 29.7612L12.8283 10.184C13.2173 9.33288 14.2026 8.92272 15.0883 9.24314L20.7747 11.3003C21.3118 11.4947 21.724 11.93 21.8855 12.4736L27.0933 30C27.4786 29.8096 27.8347 29.5871 28.1684 29.327C28.6989 28.9136 29.1778 28.439 29.595 27.9133C31.4129 25.6226 31.4129 22.2698 31.4129 15.5642C31.4129 8.8586 31.4129 5.5058 29.595 3.21509C29.1778 2.6894 28.6989 2.21484 28.1684 1.80143C25.8568 0 22.4734 0 15.7065 0C8.93957 0 5.55612 0 3.24448 1.80143C2.71398 2.21484 2.23508 2.6894 1.81789 3.21509Z" fill="#2E2E2E"/>
  </svg>