<svg xmlns="http://www.w3.org/2000/svg" width="146" height="30" viewBox="0 0 146 30" fill="none">
    <path d="M64.41 28.046C62.1866 28.046 60.2776 27.6514 58.683 26.8621C57.0884 26.0728 55.7858 25.0468 54.7751 23.7839C53.7869 22.5211 53.057 21.1455 52.5854 19.6572C52.1137 18.1688 51.8779 16.7369 51.8779 15.3613V14.6171C51.8779 13.0837 52.1137 11.5728 52.5854 10.0844C53.0795 8.59607 53.8319 7.24303 54.8425 6.02529C55.8532 4.80756 57.1333 3.83788 58.683 3.11626C60.2551 2.37209 62.108 2 64.2416 2C66.465 2 68.3965 2.40591 70.036 3.21774C71.698 4.00701 73.023 5.13454 74.0112 6.60034C74.9994 8.04358 75.5946 9.73488 75.7967 11.6742H70.9793C70.7996 10.5467 70.3953 9.59957 69.7665 8.83285C69.1601 8.04358 68.3853 7.45726 67.442 7.0739C66.4987 6.66799 65.4319 6.46503 64.2416 6.46503C63.0288 6.46503 61.9508 6.67926 61.0075 7.10773C60.0642 7.51364 59.2782 8.09996 58.6493 8.86668C58.0205 9.6334 57.5376 10.5354 57.2007 11.5728C56.8863 12.6101 56.7291 13.7602 56.7291 15.023C56.7291 16.2407 56.8863 17.3683 57.2007 18.4056C57.5376 19.4429 58.0317 20.3562 58.683 21.1455C59.3343 21.9122 60.1316 22.5098 61.0749 22.9383C62.0406 23.3668 63.1523 23.581 64.41 23.581C66.2517 23.581 67.8013 23.13 69.059 22.2279C70.3392 21.3034 71.114 20.018 71.3835 18.3718H76.201C75.9764 20.1307 75.3812 21.7431 74.4155 23.2089C73.4497 24.6747 72.1247 25.8473 70.4403 26.7268C68.7558 27.6063 66.7458 28.046 64.41 28.046Z" fill="#2E2E2E"/>
    <path d="M78.4186 27.4033V2.71035H83.1013V27.4033H78.4186ZM76.1278 6.22825V2.71035H83.1013V6.22825H76.1278Z" fill="#2E2E2E"/>
    <path d="M95.5555 28.046C93.9384 28.046 92.5123 27.7867 91.2771 27.268C90.0418 26.7494 88.9975 26.0503 88.144 25.1708C87.2906 24.2688 86.6393 23.254 86.1901 22.1265C85.7634 20.9989 85.55 19.8263 85.55 18.6086V17.8982C85.55 16.6354 85.7746 15.4402 86.2238 14.3127C86.6954 13.1626 87.358 12.1478 88.2114 11.2683C89.0873 10.3663 90.1429 9.66723 91.3781 9.17111C92.6134 8.65245 94.0058 8.39311 95.5555 8.39311C97.1052 8.39311 98.4976 8.65245 99.7329 9.17111C100.968 9.66723 102.012 10.3663 102.866 11.2683C103.742 12.1478 104.404 13.1626 104.853 14.3127C105.303 15.4402 105.527 16.6354 105.527 17.8982V18.6086C105.527 19.8263 105.303 20.9989 104.853 22.1265C104.427 23.254 103.787 24.2688 102.933 25.1708C102.08 26.0503 101.035 26.7494 99.8002 27.268C98.565 27.7867 97.1501 28.046 95.5555 28.046ZM95.5555 24.0207C96.7009 24.0207 97.6666 23.7727 98.4527 23.2766C99.2388 22.7579 99.8339 22.0701 100.238 21.2132C100.642 20.3337 100.845 19.3415 100.845 18.2365C100.845 17.1089 100.631 16.1167 100.204 15.2598C99.8002 14.3803 99.1938 13.6925 98.3853 13.1964C97.5993 12.6777 96.656 12.4184 95.5555 12.4184C94.455 12.4184 93.5005 12.6777 92.692 13.1964C91.9059 13.6925 91.2995 14.3803 90.8728 15.2598C90.4461 16.1167 90.2327 17.1089 90.2327 18.2365C90.2327 19.3415 90.4348 20.3337 90.8391 21.2132C91.2658 22.0701 91.8722 22.7579 92.6583 23.2766C93.4443 23.7727 94.4101 24.0207 95.5555 24.0207Z" fill="#2E2E2E"/>
    <path d="M114.175 27.9784C112.064 27.9784 110.425 27.2793 109.257 25.8812C108.112 24.483 107.539 22.4083 107.539 19.6572V9.00198H112.222V20.0631C112.222 21.1906 112.536 22.0926 113.165 22.7692C113.794 23.4231 114.647 23.7501 115.725 23.7501C116.803 23.7501 117.679 23.4006 118.353 22.7015C119.049 22.0024 119.397 21.0553 119.397 19.8601V9.00198H124.08V27.4033H120.374V19.5895H120.745C120.745 21.4387 120.509 22.9834 120.037 24.2237C119.566 25.464 118.858 26.3998 117.915 27.0312C116.972 27.6627 115.792 27.9784 114.378 27.9784H114.175Z" fill="#2E2E2E"/>
    <path d="M135.354 28.0122C134.074 28.0122 132.895 27.7754 131.817 27.3018C130.739 26.8283 129.807 26.163 129.021 25.3061C128.235 24.4492 127.629 23.457 127.202 22.3294C126.775 21.1793 126.562 19.9391 126.562 18.6086V17.8982C126.562 16.5903 126.764 15.3613 127.168 14.2112C127.595 13.0611 128.179 12.0576 128.92 11.2007C129.684 10.3437 130.593 9.6785 131.649 9.20494C132.727 8.70882 133.917 8.46077 135.22 8.46077C136.657 8.46077 137.915 8.77648 138.993 9.40789C140.093 10.0168 140.969 10.9413 141.62 12.1816C142.272 13.4219 142.631 14.9779 142.698 16.8496L141.317 15.226V2.71035H146V27.4033H142.294V19.5895H143.103C143.035 21.4612 142.654 23.0285 141.957 24.2913C141.261 25.5316 140.34 26.4675 139.195 27.0989C138.072 27.7078 136.792 28.0122 135.354 28.0122ZM136.399 24.0545C137.32 24.0545 138.162 23.8516 138.925 23.4457C139.689 23.0172 140.295 22.4083 140.745 21.6191C141.216 20.8073 141.452 19.8601 141.452 18.7777V17.4247C141.452 16.3422 141.216 15.4402 140.745 14.7186C140.273 13.9744 139.655 13.4106 138.892 13.0273C138.128 12.6214 137.297 12.4184 136.399 12.4184C135.388 12.4184 134.49 12.6665 133.704 13.1626C132.94 13.6361 132.334 14.3127 131.884 15.1921C131.458 16.0716 131.244 17.0977 131.244 18.2703C131.244 19.4429 131.469 20.469 131.918 21.3485C132.367 22.2054 132.974 22.8706 133.737 23.3442C134.523 23.8178 135.411 24.0545 136.399 24.0545Z" fill="#2E2E2E"/>
    <path d="M34.2357 30C32.6178 30 31.6209 29.25 29.9923 28.3667C28.3637 27.4834 23.6534 23.927 23.6534 19.5C23.6534 16.4968 22.8824 14.0679 21.5694 12.1321C20.2661 10.2112 18.5006 8.88037 16.6639 7.94092C15.7788 7.48828 14.8578 7.11816 13.9406 6.81226C13.4059 6.63403 13.0957 6.05762 13.3277 5.54224C14.798 2.27393 18.0724 0 21.8762 0C27.0541 0 31.2518 4.2146 31.2518 9.41382C31.2518 10.5261 31.0597 11.5935 30.7069 12.584C32.2013 11.5728 34.0018 10.9827 35.9394 10.9827C41.1172 10.9827 45.3149 15.1973 45.3149 20.3965C45.3149 26.6555 39.8373 30 34.2357 30Z" fill="#2E2E2E"/>
    <path d="M0 19.6121C0 24.5742 3.25818 28.7087 7.57454 29.6223C8.24076 29.8667 8.95999 30 9.71035 30H24.2771C24.7656 30 24.9783 29.344 24.6053 29.0271C22.0596 26.8643 20.1676 23.8162 20.1676 19.5C20.1676 17.1284 19.5695 15.4011 18.6883 14.1025C17.7972 12.7891 16.5438 11.8074 15.0817 11.0593C13.6061 10.3047 12.004 9.82397 10.4741 9.48315C10.1137 9.4375 9.74706 9.41382 9.37553 9.41382C4.19746 9.41382 0 13.9797 0 19.6121Z" fill="#2E2E2E"/>
  </svg>