<svg xmlns="http://www.w3.org/2000/svg" width="24" height="24" viewBox="0 0 24 24" fill="none">
    <path d="M23.953 4.38229C23.0545 4.78789 22.1026 5.05564 21.128 5.17689C22.1541 4.54454 22.9224 3.55286 23.291 2.38501C22.34 2.95405 21.286 3.36827 20.164 3.59896C19.4238 2.78736 18.4429 2.24907 17.3736 2.06768C16.3044 1.88628 15.2067 2.07193 14.2509 2.5958C13.2952 3.11966 12.5349 3.95243 12.0881 4.96478C11.6412 5.97713 11.533 7.11242 11.78 8.19435C7.69 7.99646 4.067 5.98175 1.64 2.93867C1.19879 3.70745 0.968664 4.58429 0.974 5.47628C0.974 7.22954 1.844 8.77056 3.162 9.6759C2.38086 9.6504 1.61697 9.43386 0.934 9.04432V9.10584C0.933557 10.271 1.32627 11.4004 2.04551 12.3024C2.76474 13.2046 3.76621 13.8238 4.88 14.055C4.1583 14.2533 3.40241 14.283 2.668 14.1421C2.98412 15.1449 3.59766 16.0214 4.42301 16.6495C5.24837 17.2775 6.24435 17.6258 7.272 17.6456C5.53153 19.046 3.38248 19.8062 1.17 19.8038C0.78 19.8038 0.391 19.7802 0 19.7351C2.25571 21.216 4.87851 22.002 7.557 22C16.61 22 21.555 14.3144 21.555 7.66119C21.555 7.44588 21.555 7.23057 21.54 7.01525C22.506 6.30253 23.3392 5.41765 24 4.40279L23.953 4.38229Z" fill="#C3C3C3"/>
  </svg>