<svg xmlns="http://www.w3.org/2000/svg" width="62" height="45" viewBox="0 0 62 45" fill="none">
    <path fill-rule="evenodd" clip-rule="evenodd" d="M0.170303 42.7709C0.367332 42.4292 0.550541 42.0728 0.720242 41.7038C0.79599 41.5268 0.873074 41.35 0.951469 41.1732C2.66682 37.017 2.78529 31.4755 1.69353 27.3018C1.51432 26.614 1.93249 25.9121 2.62593 25.7347C3.31938 25.5573 4.02839 25.97 4.2089 26.6577C4.77763 28.8352 5.04235 31.3431 4.96877 33.8728C10.2926 25.7809 18.0264 18.5268 26.2019 13.9246C25.589 12.4784 25.4669 10.8444 25.9993 9.04336C27.8173 2.89328 32.6584 0.374871 38.4254 0.0380556C46.5312 -0.433743 56.5095 3.56948 61.4674 7.15489C62.0466 7.57398 62.1726 8.37874 61.7505 8.95209C61.3272 9.52416 60.5143 9.65014 59.9351 9.23105C55.3381 5.90661 46.0948 2.16693 38.5787 2.6053C33.9297 2.87527 29.9574 4.80877 28.4913 9.76586C28.1744 10.838 28.2186 11.8137 28.5303 12.6917C29.1081 12.4064 29.6873 12.1338 30.2664 11.8754C32.5857 10.8431 39.0254 9.30047 43.76 9.8764C47.5064 10.3328 50.1932 12.085 50.0945 15.6999C50.0386 17.7697 48.7751 19.297 46.7039 20.2136C44.1496 21.3436 40.2421 21.4978 36.4957 20.7034C33.3804 20.0439 30.3911 18.7351 28.3809 16.8994C28.0991 16.6423 27.8355 16.3749 27.5914 16.0985C18.4789 21.187 9.92099 29.7334 4.90972 38.9929C8.98376 36.1127 13.7625 33.8009 18.3212 33.0278C19.0276 32.9082 19.699 33.3788 19.8198 34.0781C19.9405 34.7775 19.4666 35.442 18.7601 35.5616C12.9695 36.5445 6.81575 40.2489 2.47248 44.2757C2.18344 44.868 1.47915 45.1537 0.844501 44.9167C0.28244 44.7064 -0.0457001 44.1497 0.0125732 43.5842C-0.025795 43.3127 0.022789 43.0271 0.170303 42.7709ZM31.3313 14.2215C30.8794 14.4221 30.4275 14.633 29.9769 14.8515C30.3457 15.2102 30.7625 15.5431 31.2144 15.8504C33.6609 17.5139 37.1204 18.4588 40.2811 18.6143C42.3186 18.7133 44.2327 18.4909 45.6442 17.8661C46.7091 17.3956 47.47 16.6963 47.4986 15.6318C47.557 13.4618 45.6923 12.7021 43.4431 12.4282C39.1929 11.9114 33.4129 13.2947 31.3313 14.2215Z" fill="white"/>
  </svg>