<svg xmlns="http://www.w3.org/2000/svg" width="72" height="62" viewBox="0 0 72 62" fill="none">
    <path fill-rule="evenodd" clip-rule="evenodd" d="M71.2515 55.9094C71.0014 55.8965 70.735 55.894 70.4613 55.9068C70.0831 55.8452 69.7799 55.7759 69.4988 55.4755C68.9365 54.8721 68.6121 54.1018 68.3988 53.3161C68.3913 53.2886 68.3786 53.2301 68.3618 53.1531C68.3099 52.9142 68.2193 52.497 68.1251 52.2737C68.006 51.9912 67.8225 51.8346 67.7005 51.7653C67.5289 51.6729 67.3741 51.6549 67.2436 51.6651C67.0458 51.678 66.8721 51.7524 66.7266 51.8988C66.6497 51.9758 66.5726 52.0837 66.5234 52.23C66.4988 52.3019 66.4729 52.5048 66.4641 52.5767C66.4593 52.5928 66.4544 52.6089 66.4496 52.6251C66.393 52.8143 66.3365 53.003 66.264 53.1852C66.0688 53.6756 65.7167 54.0838 65.3136 54.4202C64.8486 54.8079 64.3264 55.0056 63.7419 55.1442C63.6399 55.1674 62.7451 55.4215 62.5743 55.4934C61.9659 55.7553 62.0839 56.3382 62.1163 56.4434C62.1997 56.713 62.4096 56.998 62.7229 57.2548C62.9083 57.4058 63.1432 57.5494 63.3662 57.6857C63.6133 57.8366 63.8459 57.9788 63.9806 58.1124C64.8147 58.9391 65.8505 60.2383 66.0613 61.3681C66.1309 61.743 66.4654 62.01 66.8488 61.9997C67.232 61.9869 67.5494 61.6993 67.596 61.3219C67.6219 61.1123 67.6408 60.8932 67.6602 60.67C67.7241 59.9307 67.792 59.1466 68.13 58.5155C68.3747 58.0559 68.834 57.8017 69.3316 57.6451C69.6686 57.5372 70.0269 57.4808 70.3751 57.4551C70.5804 57.4833 70.785 57.4782 70.9931 57.4679C71.0907 57.4628 71.3439 57.4448 71.3788 57.4371C71.9652 57.3164 71.9973 56.8132 71.9999 56.7002C72.001 56.6463 72.0035 55.953 71.2515 55.9094ZM66.7577 57.794C67.0934 57.1649 67.6265 56.7131 68.2597 56.4101C67.8028 55.8914 67.4626 55.288 67.2084 54.6513C66.9539 55.003 66.6487 55.3188 66.3147 55.5987C65.7483 56.0712 65.1293 56.3587 64.4401 56.5539C64.6982 56.7207 64.9333 56.8774 65.0785 57.0211C65.5248 57.4653 66.0064 58.0251 66.4299 58.6285C66.5122 58.3358 66.6181 58.0533 66.7577 57.794Z" fill="white"/>
    <path fill-rule="evenodd" clip-rule="evenodd" d="M64.1781 44.4761C63.9736 44.1208 63.7834 43.7502 63.6073 43.3665C63.5286 43.1825 63.4486 42.9986 63.3672 42.8148C61.5868 38.4929 61.4638 32.7304 62.597 28.3903C62.783 27.6751 62.349 26.9452 61.6292 26.7607C60.9094 26.5762 60.1735 27.0054 59.9861 27.7206C59.3958 29.9849 59.121 32.5927 59.1974 35.2233C53.6713 26.8088 45.6438 19.2654 37.1578 14.4798C37.794 12.9759 37.9207 11.2768 37.368 9.40392C35.481 3.00863 30.456 0.389817 24.47 0.0395729C16.0564 -0.451036 5.69908 3.7118 0.552784 7.44015C-0.0483767 7.87595 -0.179116 8.71279 0.258956 9.30901C0.698371 9.90389 1.54216 10.0349 2.14332 9.59908C6.91489 6.1421 16.5093 2.25332 24.3109 2.70917C29.1364 2.9899 33.2596 5.00049 34.7814 10.1552C35.1103 11.2701 35.0645 12.2847 34.741 13.1978C34.1412 12.901 33.54 12.6176 32.9388 12.3489C30.5315 11.2754 23.8472 9.67128 18.9328 10.2702C15.0441 10.7447 12.2553 12.5668 12.3577 16.3259C12.4157 18.4781 13.7272 20.0663 15.8771 21.0195C18.5284 22.1945 22.5843 22.3549 26.473 21.5288C29.7066 20.843 32.8094 19.4821 34.896 17.5731C35.1885 17.3058 35.4621 17.0277 35.7155 16.7403C45.1741 22.0317 54.057 30.9188 59.2587 40.5475C55.0299 37.5524 50.0697 35.1485 45.3378 34.3446C44.6045 34.2202 43.9076 34.7096 43.7823 35.4368C43.6569 36.164 44.1489 36.8551 44.8822 36.9794C50.8927 38.0015 57.2802 41.8535 61.7885 46.0409C62.0885 46.6569 62.8195 46.9539 63.4783 46.7075C64.0617 46.4888 64.4023 45.91 64.3418 45.3219C64.3816 45.0395 64.3312 44.7425 64.1781 44.4761ZM31.8336 14.7885C32.3026 14.9971 32.7717 15.2164 33.2394 15.4436C32.8566 15.8166 32.4239 16.1628 31.9549 16.4823C29.4154 18.2122 25.8246 19.1947 22.5438 19.3565C20.4289 19.4594 18.4422 19.2281 16.977 18.5784C15.8717 18.0891 15.0818 17.3619 15.0522 16.2551C14.9915 13.9985 16.9271 13.2085 19.2617 12.9237C23.6734 12.3863 29.6729 13.8247 31.8336 14.7885Z" fill="white"/>
  </svg>