<svg xmlns="http://www.w3.org/2000/svg" width="24" height="24" viewBox="0 0 24 24" fill="none">
    <path d="M23.498 6.15506C23.3624 5.64162 23.095 5.173 22.7226 4.79613C22.3502 4.41926 21.8858 4.14737 21.376 4.00769C19.505 3.5 12 3.5 12 3.5C12 3.5 4.495 3.5 2.623 4.00769C2.11341 4.14762 1.64929 4.41961 1.27708 4.79644C0.904861 5.17329 0.637591 5.64178 0.502 6.15506C0 8.04909 0 12 0 12C0 12 0 15.9509 0.502 17.8449C0.637586 18.3584 0.904975 18.827 1.27739 19.2039C1.64981 19.5807 2.11418 19.8527 2.624 19.9923C4.495 20.5 12 20.5 12 20.5C12 20.5 19.505 20.5 21.377 19.9923C21.8869 19.8528 22.3513 19.5809 22.7237 19.204C23.0961 18.8271 23.3635 18.3585 23.499 17.8449C24 15.9509 24 12 24 12C24 12 24 8.04909 23.498 6.15506ZM9.545 15.587V8.41302L15.818 12L9.545 15.587Z" fill="#C3C3C3"/>
  </svg>